<?xml version="1.0" standalone="no"?>
<!DOCTYPE svg PUBLIC "-//W3C//DTD SVG 1.1//EN" "http://www.w3.org/Graphics/SVG/1.1/DTD/svg11.dtd" >
<svg>
<metadata>
Created by FontForge 20090914 at Sun Mar 28 12:09:35 2021
 By www-data
Copyright 2014 The Caveat Project Authors (https://github.com/googlefonts/caveat)
</metadata>
<defs>
<font id="Caveat-Medium" horiz-adv-x="0" >
  <font-face 
    font-family="Caveat Medium"
    font-weight="500"
    font-stretch="normal"
    units-per-em="1000"
    panose-1="0 0 0 0 0 0 0 0 0 0"
    ascent="800"
    descent="-200"
    x-height="355"
    cap-height="685.999"
    bbox="-109.497 -304 1235.91 960"
    underline-thickness="50"
    underline-position="-50"
    unicode-range="U+000D-U+FB04"
  />
<missing-glyph horiz-adv-x="603" 
d="M392 960h519l-455 -1250h-519zM375 -228l14 461l-318 -461h304zM393 341l14 469l-343 -946zM785 807l-330 -478l-14 -470zM777 897h-304l-14 -460z" />
    <glyph glyph-name="f_f" unicode="ff" horiz-adv-x="500" 
d="M336 -110c-4 -2.66699 -9.99512 -1.6709 -17.9951 2.99609s-16.667 12.334 -26 23.001c-4.66699 5.33301 -7.66699 11 -9 17s-1 17.333 1 34c2.66699 7.33301 4.16699 14.666 4.5 21.999s0.5 12.333 0.5 15c0 4 1.16699 13.333 3.5 28l7.5 46.5
c2.66699 16.333 5 28.833 7 37.5c0 0.666992 0.333008 2.33398 1 5.00098s1.33398 5 2.00098 7l5.5 24c2.33301 10 4.5 22.333 6.5 37c3.33301 12.667 6.66602 24.667 9.99902 36s5.66602 21.333 6.99902 30c-8 0 -19 -0.666992 -33 -2s-28.333 -3.16602 -43 -5.49902
l-37.5 -6c-10.333 -1.66699 -16.166 -3.16699 -17.499 -4.5c-2.66699 -1.33301 -5.83398 -6.83301 -9.50098 -16.5s-7.66699 -21.5 -12 -35.5s-7.83301 -29 -10.5 -45c-8 -30.667 -12.333 -62.167 -13 -94.5s1 -56.166 5 -71.499c4 -16 4.16699 -29.5 0.5 -40.5
s-9.5 -18.167 -17.5 -21.5c-12.667 -0.666992 -24.334 9.33301 -35.001 30s-16 47.334 -16 80.001c-2.66699 27.333 -0.333984 62.166 6.99902 104.499s18.333 89.833 33 142.5c5.33301 18 12.666 39.333 21.999 64s19.166 49 29.499 73s19.5 44.167 27.5 60.5
s13 25.5 15 27.5c4 -1.33301 6 1.66699 6 9c0 1.33301 2.66699 6.33301 8 15s10.333 18 15 28c8.66699 12.667 19.334 25.334 32.001 38.001s25.667 24 39 34s25.333 17 36 21c10 4 20 6 30 6c16.667 0 33 -6.5 49 -19.5s27.333 -28.167 34 -45.5
c11.333 13.333 24.166 26.333 38.499 39s25.833 22.334 34.5 29.001c14.667 7.33301 26.5 12.333 35.5 15s20.5 4 34.5 4c12.667 0 22.334 -2.33301 29.001 -7s14.334 -11 23.001 -19c9.33301 -10 14.666 -16.667 15.999 -20s2 -9.66602 2 -18.999
c-1.33301 -6.66699 -4.33301 -15.167 -9 -25.5s-10 -21 -16 -32s-11.667 -20.333 -17 -28s-9.33301 -11.5 -12 -11.5c-15.333 -4.66699 -23 3.33301 -23 24c0 4.66699 -1.66699 9.16699 -5 13.5l-5 6.5c0 2 0.5 5.66699 1.5 11s2.83301 10.333 5.5 15
c3.33301 6.66699 4.16602 12.167 2.49902 16.5s-6.16699 5.5 -13.5 3.5c-2 -1.33301 -6.83301 -5 -14.5 -11l-24.5 -19.5c-8.66699 -7 -16.167 -13.833 -22.5 -20.5s-9.5 -11 -9.5 -13l-4 -8.5c-2.66699 -5.66699 -7.66699 -12.834 -15 -21.501
c-4.66699 -6.66699 -8.83398 -13.167 -12.501 -19.5s-5.5 -10.166 -5.5 -11.499c0 -2.66699 -0.166992 -5.5 -0.5 -8.5s-2.16602 -4.5 -5.49902 -4.5l-3 -9c-2 -6 -5.66699 -13.667 -11 -23c-2.66699 -6.66699 -6 -13.5 -10 -20.5s-7.33301 -11.833 -10 -14.5h1l-4.5 -12
l-9.5 -25c-3.33301 -8.66699 -5 -13.667 -5 -15c0 -2.66699 4.66699 -4 14 -4s20.333 1.16699 33 3.5s24.334 4.83301 35.001 7.5c9.33301 2.66699 15.666 4 18.999 4s10 -1.33301 20 -4c5.33301 -3.33301 9.83301 -8.66602 13.5 -15.999s6.33398 -14.333 8.00098 -21
s1.5 -11.334 -0.5 -14.001c-0.666992 -2.66699 -8 -6.33398 -22 -11.001s-28 -8.33398 -42 -11.001l-42.5 -9l-43 -9c-12.333 -2.66699 -18.5 -5 -18.5 -7c-2.66699 0 -5 -1.5 -7 -4.5s-3 -5.5 -3 -7.5c0 -9.33301 -1.33301 -16.333 -4 -21
c-1.33301 -4 -3.66602 -11.833 -6.99902 -23.5l-10.5 -38.5c-3.66699 -14 -6.66699 -26.833 -9 -38.5s-3.5 -19.5 -3.5 -23.5c-4 -4.66699 -6.33301 -10.5 -7 -17.5s-1 -13.167 -1 -18.5c-2.66699 -5.33301 -4.33398 -10.166 -5.00098 -14.499s-1 -7.83301 -1 -10.5v-4
c0 -2 -0.333008 -4 -1 -6c-0.666992 -6.66699 -1.5 -15.5 -2.5 -26.5s-1.5 -21.833 -1.5 -32.5l-3 -29c-0.666992 -8.66699 -1.83398 -16.834 -3.50098 -24.501s-4.16699 -13.167 -7.5 -16.5zM246.005 305.996c2.66699 0 10.499 0.828125 23.499 2.49512
s28.167 3.83398 45.5 6.50098s33.666 5 48.999 7l6 11l25 69.5c6.66699 18.333 13.334 34.5 20.001 48.5l2 9c0 1.33301 1.5 5.33301 4.5 12s4.5 13.334 4.5 20.001c4.66699 22.667 7.5 39.834 8.5 51.501s-0.5 19.834 -4.5 24.501s-12 7 -24 7
c-3.33301 0.666992 -8.5 -0.333008 -15.5 -3s-13.333 -5.83398 -19 -9.50098s-8.5 -7.16699 -8.5 -10.5v-4c-2 0.666992 -7.83301 -4.33301 -17.5 -15s-20.167 -23.667 -31.5 -39s-21 -29.666 -29 -42.999c-5.33301 -11.333 -11.666 -26.666 -18.999 -45.999l-28 -73l-8 -24
z" />
    <glyph glyph-name="f_i" unicode="fi" horiz-adv-x="459" 
d="M127 -111c-4.66699 -2 -10.332 -0.669922 -16.999 3.99707s-14.334 12 -23.001 22c-4.66699 6 -8.16699 12 -10.5 18s-2.83301 15.667 -1.5 29c2 7.33301 3.5 15.666 4.5 24.999s1.5 15.333 1.5 18c0 4.66699 1.16699 14.334 3.5 29.001s5 30 8 46s5.16699 28.333 6.5 37
c0.666992 1.33301 1.16699 3.16602 1.5 5.49902s0.833008 4.16602 1.5 5.49902l6.5 26.5c2.33301 9.66699 4.5 20.834 6.5 33.501c5.33301 20 9.66602 37.667 12.999 53s5.66602 26.666 6.99902 33.999c0.666992 10 4.33398 17.667 11.001 23
c1.33301 4 3.5 9.16699 6.5 15.5s6.16699 12.166 9.5 17.499c13.333 38 24.333 68 33 90s17.667 41.333 27 58c2.66699 8 5.66699 16.167 9 24.5s7 14.833 11 19.5c4.66699 12 12.834 25.5 24.501 40.5s24.5 29.833 38.5 44.5s27 27.334 39 38.001
c14.667 7.33301 27.167 12.666 37.5 15.999s22.166 5 35.499 5c12.667 0 22.334 -1.83301 29.001 -5.5s14 -9.5 22 -17.5c9.33301 -9.33301 15.166 -16.666 17.499 -21.999s3.5 -12 3.5 -20c-2 -8 -5.5 -17.5 -10.5 -28.5s-10.667 -21.667 -17 -32s-12.166 -19 -17.499 -26
s-9.33301 -10.5 -12 -10.5c-7.33301 -2 -12.5 -0.5 -15.5 4.5s-5.16699 12.167 -6.5 21.5c-0.666992 4 -2 7.83301 -4 11.5s-3.33301 5.83398 -4 6.50098c0 2.66699 0.833008 7 2.5 13s3.5 11.667 5.5 17c2 6 2 10.667 0 14s-6 4 -12 2l-16 -12.5l-23 -18.5
c-8 -6.66699 -15.333 -13.5 -22 -20.5s-11 -12.833 -13 -17.5c-1.33301 -1.33301 -3.33301 -4.5 -6 -9.5s-6.66699 -10.833 -12 -17.5c-4 -6.66699 -7.5 -12.834 -10.5 -18.501s-4.83301 -9.5 -5.5 -11.5c-0.666992 -3.33301 -1.16699 -6.16602 -1.5 -8.49902
s-1.83301 -3.5 -4.5 -3.5c0 0.666992 -1.16699 -2.33301 -3.5 -9s-5.83301 -14.667 -10.5 -24c-2.66699 -6.66699 -6 -13.334 -10 -20.001s-7.33301 -11.334 -10 -14.001h1l-4.5 -12l-9.5 -25c-3.33301 -8.66699 -5 -13.667 -5 -15
c0 -3.33301 5.16699 -4.66602 15.5 -3.99902s22.333 2.33398 36 5.00098l35.5 7c8 1.33301 13.833 1.83301 17.5 1.5s9.16699 -1.83301 16.5 -4.5c7.33301 -5.33301 12 -13.166 14 -23.499s2 -18.166 0 -23.499c-0.666992 -3.33301 -6.33398 -7.16602 -17.001 -11.499
s-24 -8.16602 -40 -11.499c-14 -3.33301 -28.833 -6.5 -44.5 -9.5s-29.167 -5.83301 -40.5 -8.5s-18 -5 -20 -7c-3.33301 -1.33301 -6 -3.5 -8 -6.5s-3.33301 -6.16699 -4 -9.5c0 -4 -0.166992 -7.33301 -0.5 -10s-1.16602 -5.33398 -2.49902 -8.00098
c-1.33301 -3.33301 -3.33301 -10.333 -6 -21l-9 -35.5c-3.33301 -13 -6.16602 -25.167 -8.49902 -36.5s-3.83301 -20 -4.5 -26c-2.66699 -5.33301 -4.5 -11.166 -5.5 -17.499s-1.5 -11.833 -1.5 -16.5c-2.66699 -4.66699 -4.66699 -10.5 -6 -17.5s-2 -12.833 -2 -17.5v-4
c0 -2 -0.333008 -3.66699 -1 -5c-0.666992 -5.33301 -1.5 -14 -2.5 -26s-1.5 -24 -1.5 -36l-3 -29c-0.666992 -8.66699 -1.83398 -16.5 -3.50098 -23.5s-4.5 -11.5 -8.5 -13.5zM426.002 22.9971c-10 0.666992 -19.0029 7.16797 -27.0029 19.501s-12.333 25.166 -13 38.499
c0.666992 8 1.83398 17.5 3.50098 28.5l5.5 36.5l12.5 45.5l15.5 55l14 47c4 13 6.66699 20.833 8 23.5c2 4.66699 6 6.5 12 5.5s11.333 -3.5 16 -7.5c4.66699 -3.33301 8.83398 -8.5 12.501 -15.5s5.66699 -16.667 6 -29s-2.16699 -28.833 -7.5 -49.5
c-1.33301 -9.33301 -3.16602 -17.666 -5.49902 -24.999s-4.5 -14.5 -6.5 -21.5s-4 -15 -6 -24l-7.5 -32.5c-3 -12.667 -5.83301 -28.667 -8.5 -48c-3.33301 -20.667 -6.33301 -33.834 -9 -39.501s-7.66699 -8.16699 -15 -7.5zM468.999 441.998
c-0.666992 7.33301 0.668945 16.668 4.00195 28.001s8.16602 21.666 14.499 30.999s14.166 14.333 23.499 15c3.33301 0 6.16602 -0.333008 8.49902 -1s7.5 -2.66699 15.5 -6c8 -8 15.167 -18.833 21.5 -32.5s8.33301 -27.5 6 -41.5s-12.166 -26.333 -29.499 -37
c-2.66699 -1.33301 -5.16699 -2 -7.5 -2s-5.83301 1.33301 -10.5 4c-7.33301 0 -14.5 3 -21.5 9s-12.833 12.5 -17.5 19.5s-7 11.5 -7 13.5z" />
    <glyph glyph-name="f_l" unicode="fl" horiz-adv-x="460" 
d="M126 -111c-4 -2.66699 -10.0039 -1.17188 -18.0039 4.49512s-16.667 13.834 -26 24.501c-4.66699 5.33301 -7.66699 11 -9 17s-1 17.333 1 34c2.66699 7.33301 4.16699 14.333 4.5 21s0.5 11.334 0.5 14.001c0 4 1.16699 13.333 3.5 28l7.5 46.5
c2.66699 16.333 5 28.833 7 37.5c0 0.666992 0.333008 2.33398 1 5.00098s1.33398 5 2.00098 7l5.5 24c2.33301 10 4.5 22.333 6.5 37c5.33301 16.667 9.83301 33.167 13.5 49.5s5.5 27.5 5.5 33.5c0 12 4.66699 20.667 14 26c0.666992 3.33301 2.66699 8.5 6 15.5
s6.33301 12.833 9 17.5c13.333 38 24.333 68.167 33 90.5s17.667 41.833 27 58.5c4 11.333 8.5 23 13.5 35s10.167 21.333 15.5 28c3.33301 8.66699 11 19.834 23 33.501s24.667 27 38 40s24 22.833 32 29.5c14.667 7.33301 27.167 12.666 37.5 15.999s22.5 5 36.5 5
c12.667 0 22.334 -2.33301 29.001 -7s14.334 -11 23.001 -19c9.33301 -10 14.666 -16.667 15.999 -20s2 -9.66602 2 -18.999c-1.33301 -6.66699 -4.33301 -15.167 -9 -25.5s-10 -21 -16 -32s-11.667 -20.333 -17 -28s-9.33301 -11.5 -12 -11.5
c-15.333 -4.66699 -23 3.33301 -23 24c0 4.66699 -1.66699 9.16699 -5 13.5l-5 6.5c0 2 0.5 5.5 1.5 10.5s2.83301 9.83301 5.5 14.5c3.33301 6.66699 4.33301 12.334 3 17.001s-5.66602 6 -12.999 4l-15 -10.5c-8 -5.66699 -16.167 -12.167 -24.5 -19.5
s-15.833 -14.333 -22.5 -21s-10 -11 -10 -13l-4 -8.5c-2.66699 -5.66699 -7.66699 -12.834 -15 -21.501c-4.66699 -6.66699 -8.83398 -13.167 -12.501 -19.5s-5.5 -10.166 -5.5 -11.499c0 -2.66699 -0.166992 -5.5 -0.5 -8.5s-2.16602 -4.5 -5.49902 -4.5l-3 -9
c-2 -6 -5.66699 -13.667 -11 -23c-2.66699 -6.66699 -6 -13.5 -10 -20.5s-7.33301 -11.833 -10 -14.5h1l-4.5 -12l-9.5 -25c-3.33301 -8.66699 -5 -13.667 -5 -15c0 -2.66699 4.66699 -4 14 -4s20.333 1.16699 33 3.5s24.334 4.83301 35.001 7.5
c9.33301 2.66699 15.666 4 18.999 4s10 -1.33301 20 -4c5.33301 -3.33301 9.83301 -8.66602 13.5 -15.999s6.33398 -14.333 8.00098 -21s1.5 -11.334 -0.5 -14.001c-0.666992 -2.66699 -8 -6.33398 -22 -11.001s-28 -8.33398 -42 -11.001
c-12 -2.66699 -26.333 -5.66699 -43 -9l-44 -9c-12.667 -2.66699 -19 -5 -19 -7c-2.66699 0 -5 -1.5 -7 -4.5s-3 -5.5 -3 -7.5c0 -9.33301 -1.33301 -16.333 -4 -21c-1.33301 -4 -3.5 -12 -6.5 -24l-10 -40c-3.66699 -14.667 -6.66699 -28.167 -9 -40.5
s-3.5 -20.5 -3.5 -24.5c-4 -4.66699 -6.33301 -10.5 -7 -17.5s-1 -13.167 -1 -18.5c-2.66699 -5.33301 -4.33398 -10.166 -5.00098 -14.499s-1 -7.83301 -1 -10.5v-4c0 -2 -0.333008 -4 -1 -6c-0.666992 -6.66699 -1.5 -15.5 -2.5 -26.5s-1.5 -21.833 -1.5 -32.5l-3 -29
c-0.666992 -8.66699 -1.66699 -16.167 -3 -22.5s-3.66602 -11.166 -6.99902 -14.499zM392.996 -16.0049c-8.66699 3.33301 -15.333 8.50098 -20 15.501s-7.33398 17.167 -8.00098 30.5c0 8 1.16699 19.333 3.5 34l7.5 48c0 1.33301 0.166992 2.83301 0.5 4.5
s0.5 2.83398 0.5 3.50098c0.666992 2.66699 1.5 6.66699 2.5 12l2.5 13c0.666992 3.33301 1 3.33301 1 0l7 27l10 36.5c3.33301 12.333 6.33301 23 9 32s4.33398 14.167 5.00098 15.5l4 11.5l8 23.5c11.333 32 21.666 58.833 30.999 80.5s17.666 37.5 24.999 47.5
c0.666992 2 1.66699 4.5 3 7.5s2.33301 5.5 3 7.5c0.666992 6 1.5 10.5 2.5 13.5s2.5 5.83301 4.5 8.5c1.33301 2.66699 3.33301 6.16699 6 10.5s5.66699 9.83301 9 16.5l3 11c4 8.66699 9 18.5 15 29.5s10.333 19.167 13 24.5c2.66699 6 6.83398 13.167 12.501 21.5
s10.5 13.833 14.5 16.5l-1 1c3.33301 6 8.16602 10 14.499 12s12.5 3 18.5 3c9.33301 0 15.333 -1.83301 18 -5.5s4 -10.167 4 -19.5c0 -10 -0.166992 -17.167 -0.5 -21.5s-3.16602 -9.16602 -8.49902 -14.499h1c1.33301 1.33301 1 -0.333984 -1 -5.00098
s-3.66699 -8 -5 -10l-4.5 -11c-1.66699 -4 -3.5 -7 -5.5 -9c-2 -2.66699 -6.83301 -11.667 -14.5 -27l-27 -53.5c-10.333 -20.333 -19.833 -40 -28.5 -59s-15 -33.5 -19 -43.5l-5 -15c-1.33301 -2.66699 -2 -4.66699 -2 -6l-6 -14c-2 -4.66699 -4 -8.66699 -6 -12l-17 -59
l-5 -21l-9 -23l-6 -19c-1.33301 -4 -2.16602 -7.83301 -2.49902 -11.5s-1.5 -6.5 -3.5 -8.5c0 -0.666992 -0.166992 -1.5 -0.5 -2.5s-0.5 -1.83301 -0.5 -2.5l-11 -45c-4.66699 -19.333 -7.66699 -40 -9 -62c0 -0.666992 -0.166992 -1.33398 -0.5 -2.00098
s-0.5 -1.33398 -0.5 -2.00098c-2 -14 -5.5 -23.833 -10.5 -29.5s-12.167 -7.16699 -21.5 -4.5z" />
    <glyph glyph-name="f_f_i" unicode="ffi" horiz-adv-x="654" 
d="M335 -110c-4.66699 -2 -10.4951 -0.838867 -17.4951 3.49414s-14.833 11.5 -23.5 21.5c-5.33301 5.33301 -8.83301 11.5 -10.5 18.5s-1.5 18.833 0.5 35.5c2.66699 7.33301 4.16699 14.333 4.5 21s0.5 11.334 0.5 14.001c0 6.66699 1.16699 16.667 3.5 30l7.5 42.5
c2.66699 15 5.33398 27.833 8.00098 38.5c0 1.33301 0.333008 3.5 1 6.5s1.33398 5.83301 2.00098 8.5c1.33301 6.66699 3.16602 14.834 5.49902 24.501s4.16602 21.167 5.49902 34.5c3.33301 12.667 6.66602 24.667 9.99902 36s5.66602 21.333 6.99902 30
c-8 0 -19 -0.666992 -33 -2s-28.333 -3.16602 -43 -5.49902l-37.5 -6c-10.333 -1.66699 -16.166 -3.16699 -17.499 -4.5c-2.66699 -1.33301 -6 -7.16602 -10 -17.499s-8.16699 -23.166 -12.5 -38.499s-7.83301 -31.333 -10.5 -48
c-5.33301 -24 -8.66602 -46.667 -9.99902 -68s-1.5 -40.166 -0.5 -56.499s2.5 -29.5 4.5 -39.5c2.66699 -14.667 2.16699 -27 -1.5 -37s-9.16699 -16.667 -16.5 -20c-14 0 -26 10.833 -36 32.5s-15 49.834 -15 84.501c-2 27.333 0.666992 61.5 8 102.5s18 86.833 32 137.5
c5.33301 18 12.666 39.333 21.999 64s19.166 49 29.499 73s19.5 44.167 27.5 60.5s13 25.5 15 27.5c2.66699 -0.666992 4 -0.333984 4 0.999023s0.333008 3 1 5c0 0.666992 0.833008 2.16699 2.5 4.5s4.16699 6.83301 7.5 13.5l14 28c14 20 31.333 39 52 57
s39.667 30.333 57 37c10 3.33301 19.333 5 28 5c16.667 0 33 -6.5 49 -19.5s27.333 -28.167 34 -45.5c11.333 13.333 24.166 26.333 38.499 39s25.833 22.334 34.5 29.001c14.667 7.33301 26.5 12.333 35.5 15s20.167 4 33.5 4c12.667 0 22.167 -2 28.5 -6
s13.833 -9.66699 22.5 -17c10.667 -11.333 16.667 -18.833 18 -22.5s2 -10.167 2 -19.5c-1.33301 -8 -4.66602 -17.5 -9.99902 -28.5s-11.166 -21.667 -17.499 -32s-12.166 -19 -17.499 -26s-9.33301 -10.5 -12 -10.5c-7.33301 -2 -12.5 -0.666992 -15.5 4
s-4.83301 11.334 -5.5 20.001c0 4.66699 -1.16699 9 -3.5 13s-4.16602 6.33301 -5.49902 7c0 2.66699 0.833008 7.33398 2.5 14.001s3.5 12 5.5 16c2 6 2.16699 10.5 0.5 13.5s-5.5 3.83301 -11.5 2.5c-4 -2 -10 -6.16699 -18 -12.5s-16.167 -13.166 -24.5 -20.499
s-15.333 -14.166 -21 -20.499s-8.83398 -10.5 -9.50098 -12.5c-0.666992 -1.33301 -2.5 -4.66602 -5.5 -9.99902s-7.5 -11.666 -13.5 -18.999c-4 -6 -7.5 -11.667 -10.5 -17s-4.83301 -9 -5.5 -11c-0.666992 -4 -1.33398 -7.5 -2.00098 -10.5s-2.33398 -4.5 -5.00098 -4.5
c0 0.666992 -1.16699 -2.33301 -3.5 -9s-5.83301 -14.667 -10.5 -24c-2.66699 -6.66699 -6 -13.334 -10 -20.001s-7.33301 -11.334 -10 -14.001h1l-4.5 -12l-9.5 -25c-3.33301 -8.66699 -5 -13.667 -5 -15c0 -2 3.16699 -3 9.5 -3s14.166 0.5 23.499 1.5s19 2.5 29 4.5
s18.667 3.66699 26 5c7.33301 2 12.666 2.83301 15.999 2.5s9 -1.83301 17 -4.5c7.33301 -4.66699 13.166 -12.334 17.499 -23.001s5.5 -19 3.5 -25c-0.666992 -2.66699 -7.16699 -6.83398 -19.5 -12.501s-27.833 -9.83398 -46.5 -12.501l-43 -9l-40 -8.5
c-11.333 -2.33301 -17.666 -4.5 -18.999 -6.5c-3.33301 -1.33301 -5.83301 -3.5 -7.5 -6.5s-2.83398 -6.16699 -3.50098 -9.5c0 -7.33301 -1 -13 -3 -17l-8.5 -26.5c-3.66699 -11.667 -7.16699 -24 -10.5 -37s-6.16602 -25.167 -8.49902 -36.5s-3.5 -20 -3.5 -26
c-3.33301 -4.66699 -5.5 -10.334 -6.5 -17.001s-1.5 -12.667 -1.5 -18c-2 -5.33301 -3.33301 -10 -4 -14s-1 -7.33301 -1 -10c0 -0.666992 -0.166992 -2 -0.5 -4s-0.5 -4.33301 -0.5 -7l-2.5 -26c-1 -10.667 -1.5 -21.334 -1.5 -32.001l-3 -29
c-2 -10 -3.33301 -18.833 -4 -26.5s-3.33398 -12.5 -8.00098 -14.5zM246.005 305.994c2.66699 0 10.5 0.828125 23.5 2.49512s28.167 3.83398 45.5 6.50098s33.666 5 48.999 7l6 11c10 29.333 18.5 53 25.5 71s13.5 33.667 19.5 47l2 9c0 1.33301 1.5 5.33301 4.5 12
s4.5 13.334 4.5 20.001c4.66699 22.667 7.66699 39.834 9 51.501s-0.166992 19.834 -4.5 24.501s-12.5 7 -24.5 7c-3.33301 0.666992 -8.5 -0.333008 -15.5 -3s-13.333 -5.83398 -19 -9.50098s-8.5 -7.16699 -8.5 -10.5v-4c-2 0.666992 -7.83301 -4.33301 -17.5 -15
s-20.167 -23.667 -31.5 -39s-21 -29.666 -29 -42.999c-5.33301 -11.333 -11.666 -26.666 -18.999 -45.999l-28 -73l-8 -24zM638.005 26.9893c-8 0.666992 -15.998 6.16699 -23.998 16.5s-12.667 19.5 -14 27.5c-0.666992 7.33301 -1.83398 14.833 -3.50098 22.5
s-2.16699 16.167 -1.5 25.5c2 10.667 4.83301 23.167 8.5 37.5l11 45c3.66699 15.667 7.33398 30.334 11.001 44.001s6.5 24.834 8.5 33.501c4 14.667 7.66699 24.667 11 30s6.66602 8 9.99902 8s6.66602 -0.333008 9.99902 -1c4 -2.66699 7.33301 -6.33398 10 -11.001
s4.33398 -12.334 5.00098 -23.001s-0.333008 -26.667 -3 -48c-0.666992 -22.667 -2.83398 -43.834 -6.50098 -63.501s-6.5 -42.5 -8.5 -68.5c-2.66699 -16.667 -5.16699 -30.667 -7.5 -42s-4.83301 -19.666 -7.5 -24.999s-5.66699 -8 -9 -8zM732.007 388.989
c-2.66699 -0.666992 -6.50098 0 -11.501 2s-10 5 -15 9s-8.5 8.66699 -10.5 14c-3.33301 2 -6.33301 6.5 -9 13.5s-4.66699 14.167 -6 21.5s-1.66602 11.666 -0.999023 12.999c0.666992 4.66699 2.16699 10.334 4.5 17.001s6.16602 12.5 11.499 17.5s12 7.5 20 7.5
c4 -5.33301 8.33301 -10.166 13 -14.499s10.334 -10.5 17.001 -18.5c3.33301 -8.66699 6.33301 -18.334 9 -29.001s2.66699 -20.5 0 -29.5s-10 -16.833 -22 -23.5z" />
    <glyph glyph-name="f_f_l" unicode="ffl" horiz-adv-x="670" 
d="M336 -110c-4 -2.66699 -9.99512 -1.6709 -17.9951 2.99609s-16.667 12.334 -26 23.001c-4.66699 5.33301 -7.66699 11 -9 17s-1 17.333 1 34c2.66699 7.33301 4.16699 14.666 4.5 21.999s0.5 12.333 0.5 15c0 4 1.16699 13.333 3.5 28l7.5 46.5
c2.66699 16.333 5 28.833 7 37.5c0 0.666992 0.333008 2.33398 1 5.00098s1.33398 5 2.00098 7l5.5 24c2.33301 10 4.5 22.333 6.5 37c3.33301 12.667 6.66602 24.667 9.99902 36s5.66602 21.333 6.99902 30c-8 0 -19 -0.666992 -33 -2s-28.333 -3.16602 -43 -5.49902
l-37.5 -6c-10.333 -1.66699 -16.166 -3.16699 -17.499 -4.5c-2.66699 -1.33301 -5.83398 -6.83301 -9.50098 -16.5s-7.66699 -21.5 -12 -35.5s-7.83301 -29 -10.5 -45c-8 -30.667 -12.333 -62.167 -13 -94.5s1 -56.166 5 -71.499c4 -16 4.16699 -29.5 0.5 -40.5
s-9.5 -18.167 -17.5 -21.5c-12.667 -0.666992 -24.334 9.33301 -35.001 30s-16 47.334 -16 80.001c-2.66699 27.333 -0.333984 62.166 6.99902 104.499s18.333 89.833 33 142.5c5.33301 18 12.666 39.333 21.999 64s19.166 49 29.499 73s19.5 44.167 27.5 60.5
s13 25.5 15 27.5c4 -1.33301 6 1.66699 6 9c0 1.33301 2.66699 6.33301 8 15s10.333 18 15 28c8.66699 12.667 19.334 25.334 32.001 38.001s25.667 24 39 34s25.333 17 36 21c10 4 20 6 30 6c16.667 0 33 -6.5 49 -19.5s27.333 -28.167 34 -45.5
c11.333 13.333 24.166 26.333 38.499 39s25.833 22.334 34.5 29.001c14.667 7.33301 26.5 12.333 35.5 15s20.5 4 34.5 4c12.667 0 22.334 -2.33301 29.001 -7s14.334 -11 23.001 -19c9.33301 -10 14.666 -16.667 15.999 -20s2 -9.66602 2 -18.999
c-1.33301 -6.66699 -4.33301 -15.167 -9 -25.5s-10 -21 -16 -32s-11.667 -20.333 -17 -28s-9.33301 -11.5 -12 -11.5c-15.333 -4.66699 -23 3.33301 -23 24c0 4.66699 -1.66699 9.16699 -5 13.5l-5 6.5c0 2 0.5 5.66699 1.5 11s2.83301 10.333 5.5 15
c3.33301 6.66699 4.16602 12.167 2.49902 16.5s-6.16699 5.5 -13.5 3.5c-2 -1.33301 -6.83301 -5 -14.5 -11l-24.5 -19.5c-8.66699 -7 -16.167 -13.833 -22.5 -20.5s-9.5 -11 -9.5 -13l-4 -8.5c-2.66699 -5.66699 -7.66699 -12.834 -15 -21.501
c-4.66699 -6.66699 -8.83398 -13.167 -12.501 -19.5s-5.5 -10.166 -5.5 -11.499c0 -2.66699 -0.166992 -5.5 -0.5 -8.5s-2.16602 -4.5 -5.49902 -4.5l-3 -9c-2 -6 -5.66699 -13.667 -11 -23c-2.66699 -6.66699 -6 -13.5 -10 -20.5s-7.33301 -11.833 -10 -14.5h1l-4.5 -12
l-9.5 -25c-3.33301 -8.66699 -5 -13.667 -5 -15c0 -2.66699 4.66699 -4 14 -4s20.333 1.16699 33 3.5s24.334 4.83301 35.001 7.5c9.33301 2.66699 15.666 4 18.999 4s10 -1.33301 20 -4c5.33301 -3.33301 9.83301 -8.66602 13.5 -15.999s6.33398 -14.333 8.00098 -21
s1.5 -11.334 -0.5 -14.001c-0.666992 -2.66699 -8 -6.33398 -22 -11.001s-28 -8.33398 -42 -11.001l-42.5 -9l-43 -9c-12.333 -2.66699 -18.5 -5 -18.5 -7c-2.66699 0 -5 -1.5 -7 -4.5s-3 -5.5 -3 -7.5c0 -9.33301 -1.33301 -16.333 -4 -21
c-1.33301 -4 -3.66602 -11.833 -6.99902 -23.5l-10.5 -38.5c-3.66699 -14 -6.66699 -26.833 -9 -38.5s-3.5 -19.5 -3.5 -23.5c-4 -4.66699 -6.33301 -10.5 -7 -17.5s-1 -13.167 -1 -18.5c-2.66699 -5.33301 -4.33398 -10.166 -5.00098 -14.499s-1 -7.83301 -1 -10.5v-4
c0 -2 -0.333008 -4 -1 -6c-0.666992 -6.66699 -1.5 -15.5 -2.5 -26.5s-1.5 -21.833 -1.5 -32.5l-3 -29c-0.666992 -8.66699 -1.83398 -16.834 -3.50098 -24.501s-4.16699 -13.167 -7.5 -16.5zM246.005 305.996c2.66699 0 10.499 0.828125 23.499 2.49512
s28.167 3.83398 45.5 6.50098s33.666 5 48.999 7l6 11l25 69.5c6.66699 18.333 13.334 34.5 20.001 48.5l2 9c0 1.33301 1.5 5.33301 4.5 12s4.5 13.334 4.5 20.001c4.66699 22.667 7.5 39.834 8.5 51.501s-0.5 19.834 -4.5 24.501s-12 7 -24 7
c-3.33301 0.666992 -8.5 -0.333008 -15.5 -3s-13.333 -5.83398 -19 -9.50098s-8.5 -7.16699 -8.5 -10.5v-4c-2 0.666992 -7.83301 -4.33301 -17.5 -15s-20.167 -23.667 -31.5 -39s-21 -29.666 -29 -42.999c-5.33301 -11.333 -11.666 -26.666 -18.999 -45.999l-28 -73l-8 -24
zM604.004 -16.0088c-8.66699 3.33301 -15.333 8.50098 -20 15.501s-7.33398 17.167 -8.00098 30.5c0 8 1.16699 19.333 3.5 34l7.5 48c0 1.33301 0.166992 2.83301 0.5 4.5s0.5 2.83398 0.5 3.50098c0.666992 2.66699 1.5 6.66699 2.5 12l2.5 13
c0.666992 3.33301 1 3.33301 1 0l7 27l10 36.5c3.33301 12.333 6.33301 23 9 32s4.33398 14.167 5.00098 15.5l4 11.5l8 23.5c11.333 32 21.666 58.833 30.999 80.5s17.666 37.5 24.999 47.5c0.666992 2 1.66699 4.5 3 7.5s2.33301 5.5 3 7.5c0.666992 6 1.5 10.5 2.5 13.5
s2.5 5.83301 4.5 8.5c1.33301 2.66699 3.33301 6.16699 6 10.5s5.66699 9.83301 9 16.5l3 11c4 8.66699 9 18.5 15 29.5s10.333 19.167 13 24.5c2.66699 6 6.83398 13.167 12.501 21.5s10.5 13.833 14.5 16.5l-1 1c3.33301 6 8.16602 10 14.499 12s12.5 3 18.5 3
c9.33301 0 15.333 -1.83301 18 -5.5s4 -10.167 4 -19.5c0 -10 -0.166992 -17.167 -0.5 -21.5s-3.16602 -9.16602 -8.49902 -14.499h1c1.33301 1.33301 1 -0.333984 -1 -5.00098s-3.66699 -8 -5 -10l-4.5 -11c-1.66699 -4 -3.5 -7 -5.5 -9
c-2 -2.66699 -6.83301 -11.667 -14.5 -27l-27 -53.5c-10.333 -20.333 -19.833 -40 -28.5 -59s-15 -33.5 -19 -43.5l-5 -15c-1.33301 -2.66699 -2 -4.66699 -2 -6l-6 -14c-2 -4.66699 -4 -8.66699 -6 -12l-17 -59l-5 -21l-9 -23l-6 -19
c-1.33301 -4 -2.16602 -7.83301 -2.49902 -11.5s-1.5 -6.5 -3.5 -8.5c0 -0.666992 -0.166992 -1.5 -0.5 -2.5s-0.5 -1.83301 -0.5 -2.5l-11 -45c-4.66699 -19.333 -7.66699 -40 -9 -62c0 -0.666992 -0.166992 -1.33398 -0.5 -2.00098s-0.5 -1.33398 -0.5 -2.00098
c-2 -14 -5.5 -23.833 -10.5 -29.5s-12.167 -7.16699 -21.5 -4.5z" />
    <glyph glyph-name="f_t" unicode="ft" horiz-adv-x="582" 
d="M127 -111c-4 -2.66699 -9.16211 -1.99805 -15.4951 2.00195s-14.166 11.333 -23.499 22c-4.66699 5.33301 -8.66699 11 -12 17s-4 17.333 -2 34c2.66699 7.33301 4.16699 15.166 4.5 23.499s0.5 13.833 0.5 16.5c0 4 1.16699 13.333 3.5 28l7.5 46.5
c2.66699 16.333 5 28.833 7 37.5c0 0.666992 0.333008 2.33398 1 5.00098s1.33398 5 2.00098 7l5.5 24c2.33301 10 4.5 22.333 6.5 37c5.33301 16.667 9.83301 33.167 13.5 49.5s5.5 27.5 5.5 33.5c0 12 4.66699 20.667 14 26c0.666992 3.33301 2.66699 8.5 6 15.5
s6.33301 12.833 9 17.5l32 90.5c8 22.333 16.667 41.833 26 58.5c4 11.333 9 23 15 35s11.667 21.333 17 28c3.33301 8.66699 11 19.834 23 33.501s24.667 27 38 40s24 22.833 32 29.5c14.667 7.33301 27.167 12.666 37.5 15.999s22.5 5 36.5 5c12.667 0 22.167 -2 28.5 -6
s13.833 -10 22.5 -18c9.33301 -10 14.666 -16.667 15.999 -20s2 -9.66602 2 -18.999c-1.33301 -6.66699 -4.33301 -15.334 -9 -26.001s-10 -21.667 -16 -33s-11.667 -20.833 -17 -28.5s-9.33301 -11.5 -12 -11.5c-15.333 -4.66699 -23 3.33301 -23 24
c0 4.66699 -1.5 9.16699 -4.5 13.5l-4.5 6.5c0 2 0.666992 6.16699 2 12.5s3.33301 11.833 6 16.5c3.33301 6.66699 4.16602 11.667 2.49902 15s-6.16699 4 -13.5 2c-2 -1.33301 -7 -5 -15 -11l-25 -19.5c-8.66699 -7 -16.334 -13.833 -23.001 -20.5s-10 -11 -10 -13
l-4 -8.5c-2.66699 -5.66699 -7.66699 -12.834 -15 -21.501c-4.66699 -6.66699 -8.83398 -13.167 -12.501 -19.5s-5.5 -10.166 -5.5 -11.499c0 -2.66699 -0.166992 -5.5 -0.5 -8.5s-2.16602 -4.5 -5.49902 -4.5l-3 -9c-2 -6 -5.66699 -13.667 -11 -23
c-2.66699 -6.66699 -6 -13.5 -10 -20.5s-7.33301 -11.833 -10 -14.5h1l-4 -14.5c-2.66699 -9.66699 -5.66699 -19.667 -9 -30s-5.33301 -16.833 -6 -19.5c9.33301 0.666992 21.666 2.66699 36.999 6s31.333 6 48 8c26 3.33301 51.667 7 77 11s49.666 11.333 72.999 22
c6 14.667 12.833 30.5 20.5 47.5s15.167 32.167 22.5 45.5s12.333 21.666 15 24.999c11.333 6 20.666 9.16699 27.999 9.5s14.333 -4.83398 21 -15.501l8 -11c2 -2.66699 2.83301 -6.66699 2.5 -12s-3 -13.5 -8 -24.5s-13.167 -27.167 -24.5 -48.5l-9 -17.5l-4 -7.5
c2.66699 -0.666992 6.66699 -1 12 -1s12 0.333008 20 1c7.33301 1.33301 15.833 2.5 25.5 3.5s17.834 0.833008 24.501 -0.5c15.333 0 26.666 -3.66699 33.999 -11s11.333 -17.666 12 -30.999c1.33301 -7.33301 -1 -12.166 -7 -14.499s-18 -3.5 -36 -3.5
c-6 0 -15 -0.333008 -27 -1s-24.5 -1.16699 -37.5 -1.5s-24.167 -1 -33.5 -2s-14 -2.16699 -14 -3.5c-2 -1.33301 -5 -7.5 -9 -18.5s-7.83301 -23.5 -11.5 -37.5s-7.16699 -26.667 -10.5 -38c-4.66699 -22.667 -8.5 -44.834 -11.5 -66.501s-4 -40.5 -3 -56.5
s4.5 -27.333 10.5 -34c6 -6 17.333 -7.66699 34 -5s30.334 8.33398 41.001 17.001c13.333 11.333 24.166 16.666 32.499 15.999s13.166 -5.33398 14.499 -14.001s-2.33398 -19.334 -11.001 -32.001c-8 -12 -18.5 -22.667 -31.5 -32s-26.333 -16 -40 -20
s-26.167 -4.33301 -37.5 -1c-9.33301 2.66699 -17.833 5.83398 -25.5 9.50098s-16.5 9.83398 -26.5 18.501c-8 10.667 -14.167 21 -18.5 31s-7.16602 21.667 -8.49902 35s-2 29.666 -2 48.999c0 8 1.5 20 4.5 36s6.66699 32.667 11 50l12 47
c3.66699 14 5.83398 23 6.50098 27c-2 4 -6.66699 6.33301 -14 7s-19.333 0 -36 -2s-40.334 -5.33301 -71.001 -10l-43.5 -9.5c-17 -3.66699 -31.833 -7 -44.5 -10s-19 -5.5 -19 -7.5c-2.66699 0 -5 -1.83301 -7 -5.5s-3 -6.5 -3 -8.5c0 -9.33301 -1.33301 -16.333 -4 -21
c-1.33301 -4 -3.5 -11.833 -6.5 -23.5l-10 -38c-3.66699 -13.667 -6.5 -26.334 -8.5 -38.001s-3 -19.5 -3 -23.5c-4 -4.66699 -6.33301 -10.5 -7 -17.5s-1 -13.167 -1 -18.5c-2.66699 -5.33301 -4.33398 -10.166 -5.00098 -14.499s-1 -7.83301 -1 -10.5v-4
c0 -2 -0.333008 -4 -1 -6c-0.666992 -6.66699 -1.5 -15.5 -2.5 -26.5s-1.5 -21.833 -1.5 -32.5l-3 -29c-0.666992 -8.66699 -1.66699 -17 -3 -25s-3.66602 -13.667 -6.99902 -17z" />
    <glyph glyph-name=".notdef" horiz-adv-x="603" 
d="M392 960h519l-455 -1250h-519zM375 -228l14 461l-318 -461h304zM393 341l14 469l-343 -946zM785 807l-330 -478l-14 -470zM777 897h-304l-14 -460z" />
    <glyph glyph-name="NULL" 
 />
    <glyph glyph-name="NULL" 
 />
    <glyph glyph-name="CR" unicode="&#xd;" horiz-adv-x="242" 
 />
    <glyph glyph-name="space" unicode=" " horiz-adv-x="242" 
 />
    <glyph glyph-name="exclam" unicode="!" horiz-adv-x="210" 
d="M198 167c-18.667 -3.33301 -31.8379 5.33496 -39.5049 26.002s-6.5 51.334 3.5 92.001c4 8 7.33301 15.833 10 23.5s4 13.834 4 18.501c2.66699 8.66699 6.16699 18.834 10.5 30.501s8.83301 22.667 13.5 33s8 17.166 10 20.499c2.66699 0 5.5 2.33301 8.5 7
s4.5 9.33398 4.5 14.001c0 5.33301 1.16699 11.333 3.5 18s4.83301 11.334 7.5 14.001c0 3.33301 1.33301 7 4 11s4 7.33301 4 10s0.833008 5 2.5 7s2.5 4.33301 2.5 7c6 10.667 13.833 26.5 23.5 47.5s19.334 43.167 29.001 66.5s17.834 44 24.501 62s10 29 10 33
c1.33301 5.33301 3.33301 9.66602 6 12.999s6.66699 4.33301 12 3c2.66699 2 5.83398 3.16699 9.50098 3.5s6.83398 0.5 9.50098 0.5l5.5 -4c3.66699 -2.66699 7.83398 -6.66699 12.501 -12c5.33301 -4.66699 8.33301 -10.334 9 -17.001s1 -14 1 -22
c-0.666992 -12.667 -5.33398 -27 -14.001 -43l-29 -53l-19.5 -36c-6.33301 -11.333 -9.5 -18.333 -9.5 -21s-1.33301 -6.66699 -4 -12s-5.66699 -12 -9 -20c-4 -6.66699 -8.16699 -14.667 -12.5 -24l-11.5 -25.5c-3.33301 -7.66699 -5 -12.5 -5 -14.5
c-0.666992 -2.66699 -1.5 -5.33398 -2.5 -8.00098s-2.83301 -5.33398 -5.5 -8.00098c-2.66699 0 -4.16699 -1.83301 -4.5 -5.5l-0.5 -5.5c0 -2.66699 -1.5 -8.83398 -4.5 -18.501s-7.83301 -21.167 -14.5 -34.5c-12.667 -35.333 -21.667 -63.5 -27 -84.5
s-8.66602 -38.833 -9.99902 -53.5c-1.33301 -16 -3.33301 -25.833 -6 -29.5s-6.66699 -6.83398 -12 -9.50098zM143.996 9.00098c-13.333 -5.33301 -24.335 -7.83496 -33.002 -7.50195s-18 4.5 -28 12.5c-13.333 12.667 -17.833 25.334 -13.5 38.001s15.5 25 33.5 37
c12.667 8 22 12.333 28 13s15 -1.66602 27 -6.99902c20.667 -13.333 29.834 -28 27.501 -44s-16.166 -30 -41.499 -42z" />
    <glyph glyph-name="quotedbl" unicode="&#x22;" horiz-adv-x="237" 
d="M199 437c-8 -1.33301 -13.6641 -1.49902 -16.9971 -0.499023s-7.33301 3.5 -12 7.5c-0.666992 6 0.166016 11.5 2.49902 16.5s5.16602 9.83301 8.49902 14.5l27.5 47.5c10.333 18.333 17.166 32.5 20.499 42.5c1.33301 7.33301 3.5 16.833 6.5 28.5
s4.5 23.834 4.5 36.501c0 3.33301 0.333008 7.83301 1 13.5s2.16699 10.667 4.5 15s5.16602 5.5 8.49902 3.5c6 -2.66699 13 -6 21 -10s14.5 -8.5 19.5 -13.5s6.83301 -11.167 5.5 -18.5c-1.33301 -16 -4.66602 -31.667 -9.99902 -47s-10 -29.666 -14 -42.999
c-4 -14.667 -11 -28.834 -21 -42.501s-20.667 -27.167 -32 -40.5c0.666992 -2.66699 -1.33301 -4.33398 -6 -5.00098s-10.667 -2.33398 -18 -5.00098zM323.003 437.001c-8 -1.33301 -13.667 -1.49902 -17 -0.499023s-7.33301 3.5 -12 7.5
c-1.33301 6 -0.666016 11.5 2.00098 16.5s5.66699 9.83301 9 14.5l27.5 47.5c10.333 18.333 17.166 32.5 20.499 42.5c1.33301 7.33301 3.5 16.833 6.5 28.5s4.5 23.834 4.5 36.501c0 3.33301 0.333008 7.83301 1 13.5s2.16699 10.667 4.5 15s5.16602 5.5 8.49902 3.5
c6 -2.66699 12.833 -6 20.5 -10s14.167 -8.5 19.5 -13.5s7.33301 -11.167 6 -18.5c-1.33301 -16 -4.66602 -31.667 -9.99902 -47s-10 -29.666 -14 -42.999c-4 -14.667 -11 -28.834 -21 -42.501s-20.667 -27.167 -32 -40.5c0.666992 -2.66699 -1.33301 -4.33398 -6 -5.00098
s-10.667 -2.33398 -18 -5.00098z" />
    <glyph glyph-name="numbersign" unicode="#" horiz-adv-x="559" 
d="M393 -143c-12.667 -3.33301 -22.998 -0.331055 -30.998 9.00195s-13.167 23.166 -15.5 41.499s-0.833008 39.833 4.5 64.5c3.33301 8 6 15.833 8 23.5s3 13.834 3 18.501c1.33301 5.33301 4.66602 17.166 9.99902 35.499s11.833 39.5 19.5 63.5l23 71.5l20 60
c5.66699 16.333 9.16699 25.5 10.5 27.5c2.66699 0 5 2.33301 7 7s3 9.33398 3 14.001c0 5.33301 1.16699 11.333 3.5 18s4.83301 11.334 7.5 14.001c0 3.33301 0.833008 7.16602 2.5 11.499s2.5 7.83301 2.5 10.5s0.833008 5.33398 2.5 8.00098s2.5 5.33398 2.5 8.00098
c4 7.33301 10.167 21.166 18.5 41.499l29 72l33.5 86l32 84.5c10 26.667 18 48.667 24 66s9 27.333 9 30c0 5.33301 2 9.83301 6 13.5s8.66699 5.5 14 5.5c2 2 4.5 3.33301 7.5 4s5.83301 1 8.5 1l4 -4l12 -12c5.33301 -4.66699 9.33301 -10.5 12 -17.5s4 -14.5 4 -22.5
c0 -8.66699 -1 -16.334 -3 -23.001s-6 -16.334 -12 -29.001l-28 -59c-2 -5.33301 -6 -14.666 -12 -27.999l-19.5 -45l-21 -48.5c-7 -15.667 -12.667 -28.834 -17 -39.501s-6.5 -16.667 -6.5 -18c0 -2.66699 -1.16699 -6.66699 -3.5 -12s-4.83301 -12 -7.5 -20
c-2.66699 -5.33301 -6.33398 -13.166 -11.001 -23.499l-14.5 -33l-12.5 -30c-3.33301 -8.33301 -5 -13.166 -5 -14.499c0 -2.66699 -0.166992 -5.33398 -0.5 -8.00098s-1.83301 -5.33398 -4.5 -8.00098c-2.66699 0 -4.16699 -1.83301 -4.5 -5.5l-0.5 -5.5
c0 -6.66699 -5.33301 -24.334 -16 -53.001c-4.66699 -14.667 -10.334 -33.5 -17.001 -56.5l-21.5 -73l-21.5 -75c-6.66699 -24.333 -12.167 -45.833 -16.5 -64.5s-6.5 -31.667 -6.5 -39c0 -16 -1.16699 -26.5 -3.5 -31.5s-6.16602 -8.83301 -11.499 -11.5zM144.002 176.002
c-4 0 -9 0.166016 -15 0.499023s-12.667 1.83301 -20 4.5c-10 0 -17.167 1.5 -21.5 4.5s-7.83301 6.83301 -10.5 11.5c-7.33301 10 -7.5 17 -0.5 21s22.833 7.33301 47.5 10c7.33301 2 21.833 3.66699 43.5 5s47.667 2.5 78 3.5s62 1.83301 95 2.5s64.667 1.16699 95 1.5
s57 0.666016 80 0.999023s38.833 0.5 47.5 0.5c17.333 0 29 -0.833008 35 -2.5s12.667 -6.16699 20 -13.5c10 -10 13.333 -19.833 10 -29.5s-12.666 -13.167 -27.999 -10.5c-4.66699 -0.666992 -13 -1.33398 -25 -2.00098s-24 -1.66699 -36 -3
c-2.66699 0 -13.167 -0.166992 -31.5 -0.5s-41.333 -0.666016 -69 -0.999023s-57 -0.666016 -88 -0.999023l-90.5 -1c-29.333 -0.333008 -54.333 -0.666016 -75 -0.999023s-34.334 -0.5 -41.001 -0.5zM164.002 -142.999c-12.667 -3.33301 -23.165 -0.331055 -31.498 9.00195
s-13.666 23.166 -15.999 41.499s-0.833008 39.833 4.5 64.5c3.33301 8 6 15.833 8 23.5s3 13.834 3 18.501c1.33301 5.33301 4.66602 17.166 9.99902 35.499s11.833 39.5 19.5 63.5l23 71.5l20 60c5.66699 16.333 9.16699 25.5 10.5 27.5c2.66699 0 5 2.33301 7 7
s3 9.33398 3 14.001c0 5.33301 1.16699 11.333 3.5 18s4.83301 11.334 7.5 14.001c0 3.33301 0.833008 7.16602 2.5 11.499s2.5 7.83301 2.5 10.5s0.833008 5.33398 2.5 8.00098s2.5 5.33398 2.5 8.00098c4 7.33301 10.167 21.166 18.5 41.499l29 72l33.5 86l32 84.5
c10 26.667 18 48.667 24 66s9 27.333 9 30c0 5.33301 2.16699 9.83301 6.5 13.5s9.16602 5.5 14.499 5.5c2 2 4.5 3.33301 7.5 4s5.83301 1 8.5 1l4 -4l12 -12c5.33301 -4.66699 9.33301 -10.5 12 -17.5s4 -14.5 4 -22.5c0 -8.66699 -1 -16.334 -3 -23.001
s-6 -16.334 -12 -29.001l-28 -59c-2 -5.33301 -6 -14.666 -12 -27.999l-19.5 -45l-21 -48.5c-7 -15.667 -12.667 -28.834 -17 -39.501s-6.5 -16.667 -6.5 -18c0 -2.66699 -1.16699 -6.66699 -3.5 -12s-4.83301 -12 -7.5 -20
c-2.66699 -5.33301 -6.33398 -13.166 -11.001 -23.499l-14.5 -33l-12.5 -30c-3.33301 -8.33301 -5 -13.166 -5 -14.499c0 -2.66699 -0.166992 -5.33398 -0.5 -8.00098s-1.83301 -5.33398 -4.5 -8.00098c-2.66699 0 -4.16699 -1.83301 -4.5 -5.5l-0.5 -5.5
c0 -6.66699 -5.33301 -24.334 -16 -53.001c-4.66699 -14.667 -10.334 -33.5 -17.001 -56.5l-21.5 -73l-21.5 -75c-6.66699 -24.333 -12.167 -45.833 -16.5 -64.5s-6.5 -31.667 -6.5 -39c0 -16 -1.16699 -26.5 -3.5 -31.5s-6.16602 -8.83301 -11.499 -11.5zM205.004 377.003
c-4 0 -9 0.164062 -15 0.49707s-12.667 1.83301 -20 4.5c-10 0 -17 1.33301 -21 4s-7.33301 6.33398 -10 11.001c-7.33301 10 -7.66602 17.167 -0.999023 21.5s22.334 7.83301 47.001 10.5c7.33301 2 21.833 3.66699 43.5 5s47.667 2.5 78 3.5s62 1.83301 95 2.5
s64.833 1.16699 95.5 1.5s57.5 0.666016 80.5 0.999023s38.833 0.5 47.5 0.5c17.333 0 29 -1 35 -3s12.667 -6.66699 20 -14c10 -10 13.167 -19.667 9.5 -29s-13.167 -12.666 -28.5 -9.99902c-4.66699 -0.666992 -12.834 -1.33398 -24.501 -2.00098s-23.5 -1.66699 -35.5 -3
c-2.66699 0 -13.167 -0.166992 -31.5 -0.5s-41.333 -0.666016 -69 -0.999023s-57.167 -0.666016 -88.5 -0.999023l-91 -1c-29.333 -0.333008 -54.333 -0.666016 -75 -0.999023s-34.334 -0.5 -41.001 -0.5z" />
    <glyph glyph-name="dollar" unicode="$" horiz-adv-x="450" 
d="M175 -124c-14.667 -2.66699 -23.334 3.99707 -26.001 19.9971s-0.333984 38 6.99902 66c4 8.66699 7.16699 18 9.5 28l6.5 28c2.66699 4.66699 6.66699 13.334 12 26.001l18.5 43.5l20.5 48c6.66699 15.667 12.667 29.167 18 40.5s8.33301 18 9 20
c1.33301 2 3.66602 6.16699 6.99902 12.5s7 13.833 11 22.5l12 25.5l10.5 22.5c3 6.66699 4.83301 11 5.5 13c2 8.66699 5.5 16.667 10.5 24s9.16699 16 12.5 26c3.33301 6 8.5 16.333 15.5 31l24.5 50l29 58l27.5 57l20.5 45.5c5.33301 12.333 8 19.833 8 22.5l5 9.5l13 24
l16.5 31l16.5 31.5l13.5 25.5c3.66699 7 6.16699 10.833 7.5 11.5c4 5.33301 9.33301 7 16 5l4 -2c2.66699 -1.33301 6 -3.33301 10 -6c2.66699 -4 4.5 -8.33301 5.5 -13l3.5 -16c0 -6 -0.833008 -11.833 -2.5 -17.5s-4.66699 -13.5 -9 -23.5s-11.166 -24.333 -20.499 -43
c-2 -5.33301 -5.66699 -13 -11 -23l-17.5 -33c-6.33301 -12 -13.166 -24.167 -20.499 -36.5s-13.666 -23.666 -18.999 -33.999l-13 -24.5c-2 -4.66699 -4.83301 -10.667 -8.5 -18s-7.66699 -14.833 -12 -22.5l-12.5 -22c-4 -7 -7.33301 -12.5 -10 -16.5
c-2 -4.66699 -5 -10.667 -9 -18l-12.5 -22.5c-4.33301 -7.66699 -8 -14.667 -11 -21l-5.5 -11.5c-2 -4.66699 -4.5 -10 -7.5 -16s-6 -11.5 -9 -16.5s-5.5 -8.83301 -7.5 -11.5c-2 -1.33301 -3.33301 -3.66602 -4 -6.99902s-1.33398 -5.33301 -2.00098 -6s-1.5 -3 -2.5 -7
s-3 -9.5 -6 -16.5s-7.83301 -15.5 -14.5 -25.5l-22.5 -55.5l-28.5 -70.5l-29 -72c-9.33301 -23.333 -17 -43.833 -23 -61.5s-9.66699 -30.167 -11 -37.5c-0.666992 -16.667 -2.16699 -27.5 -4.5 -32.5s-7.16602 -7.83301 -14.499 -8.5zM135 47.9971
c-6 0.666992 -11.332 1.83887 -15.999 3.50586s-9 3.83398 -13 6.50098c-8.66699 3.33301 -17.167 8.16602 -25.5 14.499s-15.166 14 -20.499 23s-8 18.833 -8 29.5c0 5.33301 3.33301 11.166 10 17.499s14.834 10.833 24.501 13.5s19.834 1 30.501 -5
c-8 -16 -10.167 -28.167 -6.5 -36.5s19.834 -13.833 48.501 -16.5c10.667 -0.666992 20.334 -0.833984 29.001 -0.500977s19 1.16602 31 2.49902c13.333 0.666992 25 1.66699 35 3s17.667 3 23 5c23.333 6 42.166 13.667 56.499 23s23.5 18.333 27.5 27
c5.33301 8 8.66602 14.167 9.99902 18.5s2 10.5 2 18.5c-0.666992 7.33301 -1 13.5 -1 18.5s-1 10.167 -3 15.5s-5.83301 12.166 -11.5 20.499s-14.167 19.166 -25.5 32.499c-2 4.66699 -7.5 11.334 -16.5 20.001s-17.833 16.334 -26.5 23.001
c-4 6.66699 -8.83301 14.167 -14.5 22.5s-11.834 14.166 -18.501 17.499c-1.33301 2 -4.16602 6.5 -8.49902 13.5s-8.16602 14.833 -11.499 23.5c-6.66699 15.333 -6.33398 32.666 0.999023 51.999s20.666 37.333 39.999 54c5.33301 6.66699 13.5 14.167 24.5 22.5
s21.667 15.666 32 21.999s16.5 9.5 18.5 9.5s6.16699 1.5 12.5 4.5s15.833 5.83301 28.5 8.5c10 2 19 4.33301 27 7s16 4 24 4c9.33301 2 17.666 3.33301 24.999 4s20.666 -0.666016 39.999 -3.99902c12 -4 22.333 -9.16699 31 -15.5s15.167 -13.166 19.5 -20.499
s5.66602 -14.5 3.99902 -21.5s-6.83398 -13.167 -15.501 -18.5c-6.66699 -0.666992 -14.167 1 -22.5 5s-17.833 8.16699 -28.5 12.5s-23.334 6.16602 -38.001 5.49902c-22 -0.666992 -43.167 -4.16699 -63.5 -10.5s-37.5 -17.5 -51.5 -33.5
c-17.333 -10.667 -29.666 -21.667 -36.999 -33s-11 -21 -11 -29l6 -14.5c2.66699 -6.33301 6.33398 -12.833 11.001 -19.5l39.5 -41.5l24 -23.5c5.66699 -5.33301 9.66699 -9.33301 12 -12s3.5 -4.66699 3.5 -6c2 -4 5.66699 -9.5 11 -16.5l13 -17.5
c2.66699 -2.66699 5.16699 -6.33398 7.5 -11.001s3.83301 -8.33398 4.5 -11.001c2 -0.666992 4.33301 -5.5 7 -14.5s5 -19.333 7 -31s3 -22.5 3 -32.5c0 -5.33301 -2.16699 -11.666 -6.5 -18.999s-10 -14.666 -17 -21.999s-14.167 -14 -21.5 -20
c-8 -6.66699 -18.833 -14 -32.5 -22s-28.167 -15.333 -43.5 -22s-30.333 -11.667 -45 -15c-10 -2.66699 -21.833 -5 -35.5 -7s-27.667 -3.33301 -42 -4s-27.5 -0.833984 -39.5 -0.500977s-21 1.5 -27 3.5z" />
    <glyph glyph-name="percent" unicode="%" horiz-adv-x="600" 
d="M130 -93c-12 2 -20.498 7.67188 -25.498 17.0049s-5.33301 22.166 -1 38.499s14.166 35.166 29.499 56.499l15 15c4.66699 4.66699 7.66699 9 9 13c3.33301 4.66699 10.666 13.834 21.999 27.501l39.5 46l45 50.5l38.5 43c10.667 12 16.334 19 17.001 21
c2.66699 -0.666992 5.66699 0.666016 9 3.99902s5.66602 7.33301 6.99902 12c2 5.33301 5.33301 10.166 10 14.499s9 6.83301 13 7.5c1.33301 3.33301 3.16602 6.16602 5.49902 8.49902s3.83301 4.83301 4.5 7.5c0.666992 2 2.16699 4 4.5 6s3.83301 4.33301 4.5 7
c6 5.33301 16.333 15.166 31 29.499l51 51l59.5 62l57.5 60.5c18 18.667 32.667 34.5 44 47.5s17.666 20.5 18.999 22.5c4 8.66699 10.333 11 19 7c4.66699 2.66699 10 2.66699 16 0l4 -6.5c2.66699 -4.33301 5.33398 -9.5 8.00098 -15.5
c3.33301 -6.66699 4.83301 -12.667 4.5 -18s-2.16602 -11 -5.49902 -17c-3.33301 -7.33301 -7.16602 -13.666 -11.499 -18.999s-11.333 -12.333 -21 -21l-44.5 -40c-4.66699 -5.33301 -13.667 -14.333 -27 -27l-42 -41.5l-38.5 -39c-11 -11 -16.833 -17.167 -17.5 -18.5
c-2 -0.666992 -4.83301 -2.5 -8.5 -5.5s-7.5 -7.83301 -11.5 -14.5l-25.5 -25l-32 -31c-9.66699 -9.33301 -14.834 -15 -15.501 -17c-1.33301 -2 -3 -3.83301 -5 -5.5s-5 -3.16699 -9 -4.5c-1.33301 0.666992 -2.5 0 -3.5 -2l-1.5 -3c0 -2.66699 -3 -7.83398 -9 -15.501
s-14.333 -16.167 -25 -25.5c-11.333 -12.667 -26 -30.167 -44 -52.5l-55.5 -69.5l-50.5 -65c-14.667 -19.333 -23.667 -33 -27 -41c-5.33301 -12.667 -10.5 -21.5 -15.5 -26.5s-9.83301 -7.83301 -14.5 -8.5zM477.002 34.0049c11.333 12.667 20.501 24.998 27.501 36.998
s13.5 27 19.5 45c2.66699 8 4 18.667 4 32s-1.66699 21 -5 23c-6 3.33301 -13.333 4.5 -22 3.5s-17.334 -6.16699 -26.001 -15.5c-16 -12 -29.5 -27.667 -40.5 -47s-21.833 -40.666 -32.5 -63.999c-7.33301 -17.333 -8.83301 -31.166 -4.5 -41.499s13.5 -14 27.5 -11
s31.333 15.833 52 38.5zM399.003 -65.9971c-6.66699 0 -12.3301 1.33203 -16.9971 3.99902s-9.66699 6.66699 -15 12c-10.667 10.667 -18.334 21.5 -23.001 32.5s-6 20.833 -4 29.5c1.33301 4.66699 1.83301 8.83398 1.5 12.501l-0.5 5.5
c-2.66699 3.33301 -3.33398 5.33301 -2.00098 6s2.33301 2 3 4c3.33301 0 4.33301 3 3 9c-0.666992 4 1.66602 13.5 6.99902 28.5s12 28.833 20 41.5l15 23c6.66699 10 14 20 22 30s15.333 17.667 22 23c13.333 11.333 25.333 19.833 36 25.5s22.334 9.83398 35.001 12.501
c12 3.33301 20.333 4.83301 25 4.5s11 -4.83301 19 -13.5c12 -4.66699 21.833 -11.834 29.5 -21.501s12.167 -21.834 13.5 -36.501c1.33301 -16.667 0.166016 -35.167 -3.50098 -55.5s-16.167 -46.166 -37.5 -77.499c-13.333 -18.667 -25.833 -33.167 -37.5 -43.5
s-25.167 -20.166 -40.5 -29.499c-11.333 -7.33301 -23 -13.333 -35 -18s-24 -7.33398 -36 -8.00098zM336.007 404.002c11.333 12.667 20.501 24.998 27.501 36.998s13.5 27 19.5 45c2.66699 8 4 18.667 4 32s-1.66699 21 -5 23c-6 3.33301 -13.333 4.5 -22 3.5
s-17.334 -6.16699 -26.001 -15.5c-16 -12 -29.5 -27.667 -40.5 -47s-21.833 -40.666 -32.5 -63.999c-7.33301 -17.333 -8.83301 -31.166 -4.5 -41.499s13.333 -14 27 -11s31.167 15.833 52.5 38.5zM257.008 305c-6.66699 0 -12.3301 1.33105 -16.9971 3.99805
s-9.66699 6.66699 -15 12c-10.667 10.667 -18.334 21.334 -23.001 32.001s-6 20.667 -4 30c1.33301 4.66699 1.83301 8.83398 1.5 12.501l-0.5 5.5c-2.66699 3.33301 -3.33398 5.33301 -2.00098 6s2.33301 2 3 4c3.33301 0 4.33301 3 3 9
c-0.666992 4 1.66602 13.333 6.99902 28s12 28.667 20 42l15 23c6.66699 10 14 20 22 30s15.333 17.667 22 23c13.333 11.333 25.333 19.666 36 24.999s22.334 9.33301 35.001 12c12 3.33301 20.333 5 25 5s11 -4.66699 19 -14c12 -4.66699 21.833 -11.667 29.5 -21
s12.167 -21.333 13.5 -36c1.33301 -16.667 0.166016 -35.167 -3.50098 -55.5s-16.167 -46.166 -37.5 -77.499c-13.333 -18.667 -25.833 -33.167 -37.5 -43.5s-25.167 -20.166 -40.5 -29.499c-11.333 -7.33301 -23 -13.333 -35 -18s-24 -7.33398 -36 -8.00098z" />
    <glyph glyph-name="ampersand" unicode="&#x26;" horiz-adv-x="564" 
d="M660 -54c0.666992 -8 -3.16797 -12.8291 -11.501 -14.4961s-19 -1.16699 -32 1.5s-26.5 6.83398 -40.5 12.501s-26 11.5 -36 17.5c-12.667 3.33301 -29.834 15.666 -51.501 36.999s-45.5 47.333 -71.5 78l-65 -35.5c-16.667 -9 -31.834 -16.333 -45.501 -22
s-29.834 -11.167 -48.501 -16.5c-44 -4 -84.333 0.333008 -121 13c-5.33301 2 -12.5 6 -21.5 12s-17.667 12.333 -26 19s-14.166 11.667 -17.499 15c-3.33301 2 -5.33301 7.16699 -6 15.5s-0.666992 16.666 0 24.999s1.33398 13.5 2.00098 15.5c2 6 7.83301 16.5 17.5 31.5
s22 32.5 37 52.5s31.333 40.333 49 61s35.167 39.667 52.5 57c-16 23.333 -27 45.833 -33 67.5s-5.83301 45 0.5 70s18.833 54.167 37.5 87.5c6.66699 10.667 15.167 22 25.5 34s21 23.5 32 34.5s20.5 19.5 28.5 25.5s12.333 8.33301 13 7
c2.66699 -4.66699 5.33398 -6.33398 8.00098 -5.00098s5.33398 2 8.00098 2c2.66699 1.33301 7.83398 1.83301 15.501 1.5s16.667 -1.16602 27 -2.49902s19.833 -3.66602 28.5 -6.99902c24 -2.66699 40.833 -5.33398 50.5 -8.00098s18.5 -8.66699 26.5 -18
c10 -7.33301 18.167 -15.333 24.5 -24s11.333 -17 15 -25s5.5 -15 5.5 -21c0 -8.66699 -6.83301 -22 -20.5 -40s-31.834 -37 -54.501 -57c-8.66699 -10.667 -17.5 -20.167 -26.5 -28.5l-13.5 -12.5c0 -2.66699 -1.66699 -6.33398 -5 -11.001s-7.66602 -8 -12.999 -10
l-31 -28l-36 -33c-10.667 -10 -16.334 -16 -17.001 -18c-0.666992 -1.33301 2 -7 8 -17s14 -21.667 24 -35l30.5 -39.5c10.333 -13 19.666 -23.667 27.999 -32s13.833 -12.5 16.5 -12.5c22 21.333 44.833 42.166 68.5 62.499l72.5 64.5
c16.667 17.333 28.834 29.166 36.501 35.499s13.5 8.83301 17.5 7.5s8.33301 -4.33301 13 -9c8.66699 -1.33301 13.334 -6 14.001 -14s-0.333008 -15.667 -3 -23s-4.33398 -11.333 -5.00098 -12c-8.66699 -11.333 -20.5 -24.333 -35.5 -39s-31 -29.5 -48 -44.5l-48 -43.5
l-37.5 -36l12.5 -14.5c8.33301 -9.66699 16.5 -18.167 24.5 -25.5c22 -22.667 39 -38.5 51 -47.5s25.667 -16.167 41 -21.5c20.667 -6.66699 35.5 -14.667 44.5 -24s13.833 -21.333 14.5 -36zM172.998 70.0039c20 -6 38.832 -8.16602 56.499 -6.49902
s36.5 7.16699 56.5 16.5s42.667 22.666 68 39.999l19 14l-25 29c-4.66699 5.33301 -11.167 13.833 -19.5 25.5s-17.166 23.167 -26.499 34.5c-10 9.33301 -17.333 17.833 -22 25.5l-7 11.5c-2 0 -6.5 -3.33301 -13.5 -10s-14.333 -14.5 -22 -23.5s-13.5 -16.833 -17.5 -23.5
c-15.333 -12 -27 -23.833 -35 -35.5l-27 -40.5c-4.66699 -10.667 -7 -19.5 -7 -26.5s2 -12.667 6 -17s9.33301 -8.83301 16 -13.5zM279.997 364.005c7.33301 8 18.3301 17.835 32.9971 29.502l47 38c16.667 13.667 32.334 27.834 47.001 42.501s26.334 28.834 35.001 42.501
s11.334 26.167 8.00098 37.5c-1.33301 2.66699 -6.33301 6.16699 -15 10.5s-18.167 8.16602 -28.5 11.499s-19.5 4.66602 -27.5 3.99902c-13.333 1.33301 -27.5 -4.83398 -42.5 -18.501s-30.167 -31.5 -45.5 -53.5c-16.667 -24.667 -27.167 -49.334 -31.5 -74.001
s2.5 -48 20.5 -70z" />
    <glyph glyph-name="quotesingle" unicode="'" horiz-adv-x="117" 
d="M192 437c-8 -1.33301 -13.6641 -1.49902 -16.9971 -0.499023s-7.33301 3.5 -12 7.5c-1.33301 6 -0.833008 11.5 1.5 16.5s5.16602 9.83301 8.49902 14.5l27.5 47.5c10.333 18.333 17.166 32.5 20.499 42.5c1.33301 7.33301 3.5 16.833 6.5 28.5s4.5 23.834 4.5 36.501
c0 3.33301 0.5 7.83301 1.5 13.5s2.66699 10.667 5 15s5.16602 5.5 8.49902 3.5c6 -2.66699 12.833 -6 20.5 -10s14.167 -8.5 19.5 -13.5s7.33301 -11.167 6 -18.5c-1.33301 -16 -4.83301 -31.667 -10.5 -47s-10.5 -29.666 -14.5 -42.999
c-4 -14.667 -10.833 -28.834 -20.5 -42.501s-20.167 -27.167 -31.5 -40.5c0.666992 -2.66699 -1.33301 -4.33398 -6 -5.00098s-10.667 -2.33398 -18 -5.00098z" />
    <glyph glyph-name="parenleft" unicode="(" horiz-adv-x="330" 
d="M286 -131c-28.667 4.66699 -53.998 17.666 -75.998 38.999s-37.667 46.333 -47 75c-12.667 28 -18.667 64.5 -18 109.5s7.33398 90.833 20.001 137.5c3.33301 12.667 6.33301 25.667 9 39s4.33398 22.333 5.00098 27c2 6.66699 6.33301 17.667 13 33l23 52.5l25.5 59
l21.5 52.5c7.33301 16.667 18.166 36.334 32.499 59.001l45 68c15.667 22.667 30 42.334 43 59.001s22.167 27 27.5 31c3.33301 3.33301 8 7.66602 14 12.999s11.333 8.33301 16 9c2.66699 7.33301 8 13.333 16 18s15 7 21 7c15.333 8 28.833 10.333 40.5 7
s20.167 -15 25.5 -35c2 -9.33301 2.16699 -15.333 0.5 -18s-9.16699 -7 -22.5 -13c-6.66699 -2.66699 -15 -6.5 -25 -11.5s-17.333 -10.167 -22 -15.5c-6 -7.33301 -12.667 -14.666 -20 -21.999s-13 -12.333 -17 -15c-12 -4.66699 -18 -10 -18 -16l-8.5 -17
c-5.66699 -11.333 -14.834 -25 -27.501 -41c-8 -12.667 -17.333 -28.334 -28 -47.001s-19 -32.667 -25 -42l-14.5 -26.5c-3.66699 -7 -8.83398 -14.167 -15.501 -21.5c0 -2 -1 -6.66699 -3 -14s-6 -15.666 -12 -24.999c-4 -14.667 -12 -34.334 -24 -59.001
c-4.66699 -10.667 -10.167 -24.667 -16.5 -42s-11.666 -34 -15.999 -50s-6.5 -27.333 -6.5 -34c-1.33301 0 -2.5 -1.83301 -3.5 -5.5s-2.33301 -11.667 -4 -24s-4.5 -32.166 -8.5 -59.499c-0.666992 -30 0.166016 -54.667 2.49902 -74s7.16602 -35.833 14.499 -49.5
s17 -27.167 29 -40.5c7.33301 -6.66699 14.666 -11.667 21.999 -15s16 -5.33301 26 -6l34 -21c-4 -15.333 -10.167 -25.333 -18.5 -30s-18.166 -6.33398 -29.499 -5.00098z" />
    <glyph glyph-name="parenright" unicode=")" horiz-adv-x="330" 
d="M72 -125c-12.667 3.33301 -23.334 8.83301 -32.001 16.5s-13.334 16.5 -14.001 26.5c0.666992 2 1 5.16699 1 9.5s1.33301 8.83301 4 13.5l6.5 -3c4.33301 -2 11.833 -1.66699 22.5 1c13.333 -0.666992 22.833 0.666016 28.5 3.99902s13.5 10.666 23.5 21.999l25.5 34
c9.66699 12.667 16.167 23.334 19.5 32.001c10.667 7.33301 18.334 14.166 23.001 20.499s9 12.833 13 19.5c0 3.33301 1 9.5 3 18.5s7 19.833 15 32.5c7.33301 16.667 14.333 30.834 21 42.501s10 19.167 10 22.5l3 7c2 4.66699 2.66699 10.334 2 17.001
c4 2 7.5 6.5 10.5 13.5s4.16699 14.167 3.5 21.5c0 2 3 9.83301 9 23.5s9.33301 27.5 10 41.5c7.33301 24 12.833 45.5 16.5 64.5s6.5 39.833 8.5 62.5s4 51.667 6 87l3 67.5c0.666992 15 0.5 26.5 -0.5 34.5s-4.16699 16 -9.5 24c-6.66699 21.333 -12.334 32 -17.001 32
c-2 0 -4 3.16699 -6 9.5s-1.66699 14.166 1 23.499c-0.666992 2.66699 1.66602 5.66699 6.99902 9s11 4.66602 17 3.99902c4.66699 0 9.83398 -1.83301 15.501 -5.5s9.5 -6.83398 11.5 -9.50098c2.66699 2.66699 6.83398 -0.833008 12.501 -10.5
s11.834 -24.167 18.501 -43.5c4 -9.33301 7 -17.166 9 -23.499s3.33301 -13.333 4 -21s0.666992 -18.334 0 -32.001s-1.66699 -32.5 -3 -56.5c0 -23.333 -1.5 -48.833 -4.5 -76.5s-6.5 -54.667 -10.5 -81s-8.33301 -50.166 -13 -71.499
c-4.66699 -17.333 -11 -38.166 -19 -62.499s-16.833 -48.833 -26.5 -73.5s-18.667 -46.667 -27 -66s-15.166 -33 -20.499 -41c1.33301 0 -0.5 -4 -5.5 -12l-20 -30.5l-25.5 -38l-22 -33.5c-10 -14 -21.833 -26.5 -35.5 -37.5s-26.834 -19.167 -39.501 -24.5
s-23.667 -6.66602 -33 -3.99902z" />
    <glyph glyph-name="asterisk" unicode="*" horiz-adv-x="363" 
d="M419 402c-6.66699 -4.66699 -14.6641 -2.66797 -23.9971 5.99902s-17.333 19 -24 31c-2 4.66699 -4.5 11.5 -7.5 20.5s-6.5 18.833 -10.5 29.5c-0.666992 8.66699 -1.16699 17 -1.5 25l-0.5 12c-0.666992 0.666992 -9.83398 -6 -27.501 -20s-41.5 -36 -71.5 -66
c-18.667 -17.333 -31 -27.666 -37 -30.999s-11 -4.66602 -15 -3.99902c-4.66699 0.666992 -8.16699 2.5 -10.5 5.5s-3.5 4.83301 -3.5 5.5c-0.666992 2 -1 7.33301 -1 16s1 15.334 3 20.001c3.33301 4 10.333 11.667 21 23l35 36l34 34c10 10 16.333 16 19 18
c5.33301 5.33301 8 9 8 11s-2.66699 5.33301 -8 10c-2.66699 3.33301 -4.83398 5.83301 -6.50098 7.5s-1.16699 2.5 1.5 2.5l-0.5 3c-0.333008 2 -1.83301 3.33301 -4.5 4c-2 3.33301 -3.5 6.66602 -4.5 9.99902s-1.5 5.66602 -1.5 6.99902
c0 3.33301 -0.5 6.66602 -1.5 9.99902l-1.5 5c-2.66699 2 -4.16699 5.83301 -4.5 11.5s0.166992 11.334 1.5 17.001s2.66602 9.16699 3.99902 10.5l2.5 -0.5c1.66699 -0.333008 3.83398 -1.83301 6.50098 -4.5c2.66699 0 6.33398 -3 11.001 -9s9.33398 -12.667 14.001 -20
c5.33301 -10.667 9.83301 -17.667 13.5 -21s7.83398 -5 12.501 -5l7.5 13.5c5 9 8.16699 19.5 9.5 31.5c9.33301 12.667 16.833 24 22.5 34s10.167 17.333 13.5 22c1.33301 4 3.33301 7.66699 6 11l4 5l2 5c1.33301 3.33301 3.33301 5.33301 6 6v0v0
c4.66699 5.33301 8.66699 8.83301 12 10.5s5.66602 1.83398 6.99902 0.500977c2.66699 -3.33301 5.5 -6.16602 8.5 -8.49902s5.16699 -6.16602 6.5 -11.499l13 -15l-13 -17c-14.667 -22 -25.834 -42.167 -33.501 -60.5s-10.834 -27.5 -9.50098 -27.5l9.5 4
c6.33301 2.66699 12.833 4.66699 19.5 6c7.33301 3.33301 13.833 5.66602 19.5 6.99902s9.16699 2.33301 10.5 3c6.66699 0 14.667 3 24 9c10 3.33301 18 3.33301 24 0c5.33301 -4.66699 9.33301 -11.5 12 -20.5s4 -15.167 4 -18.5
c-0.666992 -0.666992 -6.83398 -4.33398 -18.501 -11.001s-26.167 -12.667 -43.5 -18c-16.667 -4.66699 -31.334 -9.33398 -44.001 -14.001s-19.667 -8.66699 -21 -12c-8 0 -8 -5.66699 0 -17c1.33301 -4 2 -8.5 2 -13.5s0.333008 -11.167 1 -18.5
c3.33301 -12.667 5.83301 -23.167 7.5 -31.5s2.83398 -12.5 3.50098 -12.5c2.66699 0 4 2 4 6c0 2.66699 3 4 9 4c2 0 4.5 -1.66699 7.5 -5s5.5 -7 7.5 -11s2.33301 -6.66699 1 -8v-3v-3c2.66699 -0.666992 2.5 -3.5 -0.5 -8.5s-6.66699 -10 -11 -15s-7.5 -7.5 -9.5 -7.5z
" />
    <glyph glyph-name="plus" unicode="+" horiz-adv-x="446" 
d="M175 176c-4 0 -9 0.168945 -15 0.501953s-12.667 1.83301 -20 4.5c-10 0 -17 1.5 -21 4.5s-7.33301 6.83301 -10 11.5c-7.33301 10 -7.66602 17.167 -0.999023 21.5s22.334 7.83301 47.001 10.5c11.333 2.66699 28.166 4.83398 50.499 6.50098s46.5 3 72.5 4
s50.667 1.83301 74 2.5s41.666 1 54.999 1c17.333 0 30.333 -1 39 -3s16.667 -6.66699 24 -14c10 -10 13.167 -19.833 9.5 -29.5s-13.167 -13.167 -28.5 -10.5c-3.33301 0 -8.83301 -0.333008 -16.5 -1s-16.167 -1.33398 -25.5 -2.00098s-18 -1.33398 -26 -2.00098
c-4 0 -15 -0.333008 -33 -1s-38.833 -1.33398 -62.5 -2.00098s-46 -1.16699 -67 -1.5s-36.167 -0.5 -45.5 -0.5zM304 26.002c-10 -7.33301 -17.168 -7.66602 -21.501 -0.999023s-7.83301 22.334 -10.5 47.001c-2.66699 11.333 -4.83398 28.166 -6.50098 50.499
s-3 46.5 -4 72.5s-1.83301 50.667 -2.5 74s-1 41.666 -1 54.999c0 17.333 1.16699 30.333 3.5 39s6.83301 16.667 13.5 24c10 10 19.833 13.167 29.5 9.5s13.167 -13.167 10.5 -28.5c0.666992 -3.33301 1.16699 -8.83301 1.5 -16.5s0.833008 -16.167 1.5 -25.5
s1.33398 -18 2.00098 -26c0 -4 0.333008 -15 1 -33s1.33398 -38.833 2.00098 -62.5s1.16699 -46 1.5 -67s0.5 -36.167 0.5 -45.5c0 -4 -0.166992 -9 -0.5 -15s-1.83301 -12.667 -4.5 -20c0 -10 -1.5 -17 -4.5 -21s-6.83301 -7.33301 -11.5 -10z" />
    <glyph glyph-name="comma" unicode="," horiz-adv-x="198" 
d="M53 -81c-6.66699 0 -11.501 0.833008 -14.501 2.5s-5.83301 4.83398 -8.5 9.50098c0 4.66699 1.33301 8.66699 4 12s6.33398 7.33301 11.001 12c6.66699 6.66699 14 14.834 22 24.501s15.5 19.5 22.5 29.5s12.167 18 15.5 24c2.66699 7.33301 5.16699 16 7.5 26l7.5 33
c0 5.33301 0.166992 10.166 0.5 14.499s1.83301 7.83301 4.5 10.5c5.33301 4.66699 10.5 7.33398 15.5 8.00098s9.66699 -2.5 14 -9.5s7.83301 -19.5 10.5 -37.5c2.66699 -14.667 2.66699 -28 0 -40s-8 -26.667 -16 -44c-1.33301 -4.66699 -5.83301 -11.834 -13.5 -21.501
s-15.334 -18.667 -23.001 -27s-12.5 -12.5 -14.5 -12.5c-2.66699 0 -5 -0.833008 -7 -2.5s-4.33301 -3.83398 -7 -6.50098s-6.66699 -4.16699 -12 -4.5s-11.666 -0.5 -18.999 -0.5z" />
    <glyph glyph-name="hyphen" unicode="-" horiz-adv-x="326" 
d="M175 176c-4 0 -9.00195 0.167969 -15.002 0.500977s-12.667 1.83301 -20 4.5c-10 0 -17 1.5 -21 4.5s-7.33301 6.83301 -10 11.5c-7.33301 10 -7.66602 17.167 -0.999023 21.5s22.334 7.83301 47.001 10.5c22.667 5.33301 44.167 9 64.5 11s43.833 3 70.5 3
c17.333 0 29.833 -1 37.5 -3s15.167 -6.66699 22.5 -14c10 -10 13.167 -19.833 9.5 -29.5s-13.167 -13.167 -28.5 -10.5c-4.66699 -0.666992 -13.667 -1.33398 -27 -2.00098s-26 -1.66699 -38 -3c-7.33301 -0.666992 -19.5 -1.66699 -36.5 -3s-35.167 -2 -54.5 -2z" />
    <glyph glyph-name="period" unicode="." horiz-adv-x="198" 
d="M156 52c-13.333 -4.66699 -24.335 -6.83398 -33.002 -6.50098s-18 4.16602 -28 11.499c-13.333 12.667 -17.833 25.334 -13.5 38.001s15.5 25.334 33.5 38.001c12.667 7.33301 22 11.333 28 12s15 -1.66602 27 -6.99902c20.667 -13.333 29.834 -27.833 27.501 -43.5
s-16.166 -29.834 -41.499 -42.501z" />
    <glyph glyph-name="slash" unicode="/" horiz-adv-x="330" 
d="M71 -101c-20 -0.666992 -32.3369 9.83203 -37.0039 31.499s1.33301 51.5 18 89.5l12 21.5c4 7 6.33301 12.833 7 17.5c2 4.66699 7 14.834 15 30.501l30 57.5l38 70l37.5 68.5l29.5 53.5c8 14 12.667 22 14 24c2.66699 -0.666992 5.5 1.16602 8.5 5.49902
s4.83301 8.83301 5.5 13.5c1.33301 5.33301 3.83301 11 7.5 17s6.83398 9.66699 9.50098 11c1.33301 3.33301 3 7 5 11s3.33301 7.33301 4 10s2 5.16699 4 7.5s3.33301 4.83301 4 7.5c5.33301 6 12.666 16.333 21.999 31l32 51l36.5 59.5l34 57.5l25.5 45.5
c6.66699 12.333 10.334 19.833 11.001 22.5c2 10 8.66699 14 20 12c4 2.66699 9.33301 3.33398 16 2.00098l5 -6.5c3.33301 -4.33301 7.33301 -9.83301 12 -16.5c5.33301 -5.33301 7.83301 -11 7.5 -17s-1.5 -12.667 -3.5 -20
c-1.33301 -8.66699 -3.66602 -16.334 -6.99902 -23.001s-9.33301 -15.5 -18 -26.5l-39 -51.5l-14.5 -22l-16.5 -25c-5.33301 -8 -9.66602 -14.833 -12.999 -20.5s-5 -9.16699 -5 -10.5c-0.666992 -2.66699 -2.83398 -6.5 -6.50098 -11.5s-7.5 -11.167 -11.5 -18.5
c-4 -4.66699 -9.33301 -11.834 -16 -21.501l-20 -29.5l-18 -26.5c-5.33301 -7.66699 -8 -12.167 -8 -13.5c-0.666992 -2 -1.5 -4.33301 -2.5 -7s-3.16699 -5 -6.5 -7c-2.66699 0.666992 -4.5 -0.833008 -5.5 -4.5l-1.5 -5.5
c0.666992 -5.33301 -7.66602 -21.666 -24.999 -48.999l-31 -59l-43.5 -83l-45.5 -88.5l-37 -75.5c-10 -21.333 -15.667 -35.666 -17 -42.999c-2.66699 -15.333 -5.66699 -26.5 -9 -33.5s-7.66602 -11.167 -12.999 -12.5z" />
    <glyph glyph-name="zero" unicode="0" horiz-adv-x="450" 
d="M284 15c-4.66699 0 -12.1602 2.00391 -22.4932 6.00391s-21.333 9 -33 15s-20.834 12 -27.501 18c-17.333 15.333 -31 33.666 -41 54.999s-16.667 43.833 -20 67.5s-3.33301 46.167 0 67.5c7.33301 42.667 23.166 85 47.499 127s52.5 76.667 84.5 104
c17.333 15.333 33.666 27.5 48.999 36.5s33 15.833 53 20.5c7.33301 2 16.166 3.16699 26.499 3.5s17.833 0.5 22.5 0.5c13.333 0 27.166 -2.66699 41.499 -8s26.5 -11.833 36.5 -19.5s15 -14.834 15 -21.501c0 -4.66699 -0.333008 -8.5 -1 -11.5s-3.66699 -3.16699 -9 -0.5
h-10l10 -30c2.66699 -5.33301 5 -12.5 7 -21.5s3 -17.167 3 -24.5c0 -6 -0.833008 -15.5 -2.5 -28.5s-4.16699 -26.833 -7.5 -41.5s-6.66602 -28.334 -9.99902 -41.001s-6.33301 -22 -9 -28c-2 -4 -3.16699 -7.83301 -3.5 -11.5s-0.5 -6.83398 -0.5 -9.50098
c-2.66699 -4.66699 -6.83398 -13.667 -12.501 -27s-9.83398 -22.666 -12.501 -27.999c-2.66699 -2.66699 -4.83398 -5 -6.50098 -7s-1.16699 -4.33301 1.5 -7c0 -2 -1.66699 -6.5 -5 -13.5s-6.83301 -13.5 -10.5 -19.5s-6.5 -9 -8.5 -9l-2.5 -0.5
c-1.66699 -0.333008 -2.5 -1.5 -2.5 -3.5c0 -2.66699 -4.33301 -9.5 -13 -20.5s-19 -22.5 -31 -34.5c-6.66699 -6.66699 -16.334 -14.334 -29.001 -23.001s-25.167 -16 -37.5 -22s-22.166 -9 -29.499 -9zM282.007 89.0039c7.33301 0 14.335 1.16699 21.002 3.5
s12.334 5.83301 17.001 10.5c12 8 25.167 20.333 39.5 37s25.166 33.667 32.499 51c7.33301 10 13.166 20.5 17.499 31.5s11.166 29.833 20.499 56.5c5.33301 7.33301 9 16.333 11 27s3 19.667 3 27s0.166992 17.333 0.5 30s1.83301 23.334 4.5 32.001
c0 17.333 -0.333008 28.333 -1 33s-3.33398 9.66699 -8.00098 15c-2.66699 2 -6.16699 4 -10.5 6s-8.83301 3 -13.5 3s-12.5 -2 -23.5 -6s-19.167 -7.66699 -24.5 -11c-4.66699 -2.66699 -9.83398 -3 -15.501 -1s-8.5 4.66699 -8.5 8c0 9.33301 -5.5 9.66602 -16.5 0.999023
s-23.833 -22 -38.5 -40c-12 -12 -22.167 -24.167 -30.5 -36.5s-12.5 -19.833 -12.5 -22.5s-1 -6 -3 -10s-4 -8.66699 -6 -14c-3.33301 -4.66699 -7.33301 -12.334 -12 -23.001l-13.5 -31.5c-4.33301 -10.333 -7.16602 -18.166 -8.49902 -23.499v-21.5v-32.5
c0 -11.333 0.333008 -20.5 1 -27.5s2 -13 4 -18s4.66699 -10.833 8 -17.5c2.66699 -4.66699 6.83398 -10.167 12.501 -16.5s9.5 -10.833 11.5 -13.5c7.33301 -6.66699 13 -10 17 -10s12.333 1.33301 25 4z" />
    <glyph glyph-name="one" unicode="1" horiz-adv-x="450" 
d="M335 -13c-2 -1.33301 -5.33398 -1.49902 -10.001 -0.499023s-9.83398 3 -15.501 6s-10.834 6.5 -15.501 10.5c-2.66699 2.66699 -4.66699 5.83398 -6 9.50098s-1.16602 10.167 0.500977 19.5s4.5 24.333 8.5 45c2.66699 13.333 5.66699 26.833 9 40.5
s6.5 25.334 9.5 35.001l4.5 14.5c3.33301 1.33301 8.16602 11.333 14.499 30s13.5 41.334 21.5 68.001l14 47l20 64l15.5 50l6.5 21l-13.5 -8l-34.5 -21c-14 -8.66699 -28 -18.334 -42 -29.001c-11.333 -6.66699 -24.666 -16 -39.999 -28s-29 -21.667 -41 -29
c-18 -14 -29.333 -22.167 -34 -24.5s-10 -1.83301 -16 1.5c-8.66699 7.33301 -15.334 16 -20.001 26s-5 18.333 -1 25c1.33301 0.666992 5.66602 3.5 12.999 8.5l24.5 17l25.5 18c8 5.66699 13.667 9.5 17 11.5c2 0 5.66699 2.33301 11 7s11 9 17 13c3.33301 4 15 13 35 27
l65 47c24.667 15.333 45.834 27.666 63.501 36.999s27.834 13.666 30.501 12.999c2 0 5.83301 -1.66699 11.5 -5s11 -7.33301 16 -12s7.83301 -9 8.5 -13c4 -4.66699 2 -15.334 -6 -32.001c-2.66699 -6 -7 -16.833 -13 -32.5s-12.5 -33.667 -19.5 -54l-20 -60
c-6.33301 -19.667 -11.5 -36.5 -15.5 -50.5c-5.33301 -20.667 -10.166 -36.667 -14.499 -48l-12 -32.5c-3.66699 -10.333 -7.83398 -24.5 -12.501 -42.5c-4.66699 -10.667 -9.5 -24.167 -14.5 -40.5s-9.5 -32.333 -13.5 -48s-7 -28.5 -9 -38.5
c-5.33301 -14.667 -9.66602 -28.167 -12.999 -40.5s-6.66602 -19.833 -9.99902 -22.5z" />
    <glyph glyph-name="two" unicode="2" horiz-adv-x="450" 
d="M160 18c-2.66699 1.33301 -6.66602 4.16016 -11.999 8.49316s-10.666 9.5 -15.999 15.5s-9 11 -11 15c-2 3.33301 -1.83301 9.33301 0.5 18s4.83301 13 7.5 13c2 -1.33301 5 1 9 7l12.5 19.5c4.33301 7 6.5 11.167 6.5 12.5c0.666992 2.66699 2.5 4.83398 5.5 6.50098
s5.83301 3.5 8.5 5.5c3.33301 5.33301 7.83301 10.833 13.5 16.5s10.167 10.5 13.5 14.5c5.33301 6.66699 15 16.667 29 30l41 41l37 40.5c10.667 11.667 16.334 19.834 17.001 24.501l3.5 3.5c2.33301 2.33301 5.16602 4.5 8.49902 6.5s7.83301 5.33301 13.5 10
s10.5 9 14.5 13c1.33301 5.33301 5 12.333 11 21s12.333 16.334 19 23.001c5.33301 8 10.333 16.833 15 26.5s7.66699 16.834 9 21.501c2 7.33301 1.66699 11.833 -1 13.5s-11.334 4.83398 -26.001 9.50098c-16 5.33301 -32.667 7.16602 -50 5.49902
s-37.666 -10.834 -60.999 -27.501c-9.33301 -2 -17.833 -4.66699 -25.5 -8s-14.167 -4.66602 -19.5 -3.99902c-2.66699 1.33301 -5.66699 4.33301 -9 9s-7 9 -11 13l-10 28l31 17c27.333 17.333 52.666 29.833 75.999 37.5s44.333 8.5 63 2.5
c7.33301 0 14 -0.833008 20 -2.5l9 -2.5c5.33301 0.666992 12.333 -2.16602 21 -8.49902s17.334 -14.166 26.001 -23.499s15 -18.666 19 -27.999c10.667 -16 14.334 -33.667 11.001 -53s-13.333 -41.333 -30 -66c-3.33301 -4 -10.666 -12.333 -21.999 -25l-38.5 -42.5
l-39 -41.5l-22.5 -23c-4.66699 -2 -12.5 -8.66699 -23.5 -20l-35 -37c-12.333 -13.333 -22.666 -25.166 -30.999 -35.499s-11.833 -15.5 -10.5 -15.5c-0.666992 -2.66699 1.16602 -3.33398 5.49902 -2.00098l15.5 5c10 3.33301 22.667 6.66602 38 9.99902s31.166 6 47.499 8
s30.5 3.33301 42.5 4s19 0 21 -2c1.33301 -3.33301 2.5 -4.5 3.5 -3.5l1.5 1.5c1.33301 4.66699 9.83301 6 25.5 4s29.834 -5 42.501 -9c7.33301 -2 13.166 -4 17.499 -6s6.5 -4.33301 6.5 -7l2.5 -4.5c1.66699 -3 4.5 -6.83301 8.5 -11.5
c10.667 -8.66699 11.667 -15.5 3 -20.5s-26.334 -5.16699 -53.001 -0.5c-17.333 0 -31.666 -1 -42.999 -3c-2.66699 -1.33301 -8.33398 -2 -17.001 -2s-17 -0.333008 -25 -1c-12 1.33301 -24 0.833008 -36 -1.5s-26.333 -6.16602 -43 -11.499l-28 -9
c-12.667 -4 -26.334 -8 -41.001 -12s-27.834 -7 -39.501 -9s-19.167 -2.66699 -22.5 -2z" />
    <glyph glyph-name="three" unicode="3" horiz-adv-x="450" 
d="M243 11c-16.667 0 -32.8311 2.32617 -48.498 6.99316s-28.167 10.5 -37.5 17.5s-13.666 14.5 -12.999 22.5c0.666992 10.667 3.5 17.334 8.5 20.001s14.833 3 29.5 1c22.667 -4.66699 46.5 -5.33398 71.5 -2.00098s48.5 9.5 70.5 18.5s39.333 19.833 52 32.5
c18 17.333 26.5 33.833 25.5 49.5s-11.167 29.834 -30.5 42.501c-8.66699 6 -20.167 11.667 -34.5 17s-28.5 9.5 -42.5 12.5s-25.667 4.16699 -35 3.5c-6 -0.666992 -11.667 -0.333984 -17 0.999023s-12.333 4.33301 -21 9c-4 4.66699 -7.66699 10.667 -11 18
s-5.66602 12.333 -6.99902 15c-0.666992 3.33301 1.33301 7 6 11s14.5 10.333 29.5 19l68.5 38l66 37l37.5 22.5c9 5.66699 16.5 11.167 22.5 16.5c10.667 14 16 23.333 16 28s-8.66699 8.66699 -26 12c-16.667 1.33301 -31.834 2 -45.501 2s-20.5 -1.33301 -20.5 -4h-0.5
h-3.5c-3.33301 1.33301 -10.666 1 -21.999 -1s-22.166 -4.33301 -32.499 -7s-15.833 -5 -16.5 -7c-0.666992 -1.33301 -4.66699 -3.5 -12 -6.5s-14.833 -5.5 -22.5 -7.5s-12.5 -3 -14.5 -3c-3.33301 1.33301 -7.16602 5.33301 -11.499 12s-7.83301 13.5 -10.5 20.5
s-3.33398 12.167 -2.00098 15.5c1.33301 2.66699 5.83301 6.5 13.5 11.5s16.334 10.167 26.001 15.5s18.167 9.66602 25.5 12.999c9.33301 2.66699 22.666 4.83398 39.999 6.50098s34.833 2.83398 52.5 3.50098s30.5 0.666992 38.5 0
c30.667 -3.33301 54.667 -11.166 72 -23.499s28.333 -30.166 33 -53.499c2 -9.33301 2.5 -17.666 1.5 -24.999s-4.5 -14.833 -10.5 -22.5s-15.667 -17.5 -29 -29.5c-16.667 -10.667 -30 -19.5 -40 -26.5s-24.667 -15.5 -44 -25.5
c-4.66699 -3.33301 -11.334 -7.5 -20.001 -12.5l-24 -13.5c-7.33301 -4 -11 -6.66699 -11 -8l6 -2c4 -1.33301 8.5 -3.16602 13.5 -5.49902s9.16699 -5.16602 12.5 -8.49902c19.333 -6.66699 37.166 -17.667 53.499 -33s27.833 -27.666 34.5 -36.999
c9.33301 -20.667 12.166 -41.5 8.49902 -62.5s-12.334 -40.833 -26.001 -59.5s-32.167 -35 -55.5 -49c-18.667 -10.667 -40.834 -19 -66.501 -25s-49.167 -9.66699 -70.5 -11z" />
    <glyph glyph-name="four" unicode="4" horiz-adv-x="450" 
d="M322 1c-4 4 -7.83594 10.1689 -11.5029 18.502s-3.5 23.833 0.5 46.5c2.66699 18.667 6.66699 38.5 12 59.5l13 52.5c5.33301 12.667 9.5 23.834 12.5 33.501s4.5 14.834 4.5 15.501c-0.666992 0 -4.83398 -0.333008 -12.501 -1s-17.167 -3.33398 -28.5 -8.00098
c-33.333 -7.33301 -58.833 -9.83301 -76.5 -7.5s-32.167 12.833 -43.5 31.5c-3.33301 3.33301 -7 9.5 -11 18.5s-6.33301 18.333 -7 28s1.66602 17.167 6.99902 22.5c4.66699 11.333 9.16699 21 13.5 29s7.66602 14.833 9.99902 20.5s3.5 9.5 3.5 11.5
c0.666992 2 1.66699 4.16699 3 6.5s2.33301 4.83301 3 7.5c4 7.33301 11.333 19.166 22 35.499l35 52l35.5 50c11 15 19.167 24.5 24.5 28.5c4.66699 2.66699 10.834 5.16699 18.501 7.5s12.834 2.83301 15.501 1.5c3.33301 -2.66699 6.5 -7.33398 9.5 -14.001
s5.33301 -13 7 -19s1.83398 -9.33301 0.500977 -10l-2 -1c-1.33301 -0.666992 -2.33301 -2.66699 -3 -6c-0.666992 -2.66699 -4.16699 -8 -10.5 -16l-21.5 -27c-9.33301 -11.333 -18.666 -23.833 -27.999 -37.5s-18.333 -27.667 -27 -42l-24 -40.5
c-7.33301 -12.667 -13.333 -23.667 -18 -33c-4.66699 -16.667 -7 -27.167 -7 -31.5s2 -7.5 6 -9.5c6 -0.666992 14.5 -0.5 25.5 0.5s25.167 3.83301 42.5 8.5c10.667 2.66699 20.667 5 30 7s16.333 4 21 6c5.33301 0.666992 10.166 2 14.499 4s6.83301 4.33301 7.5 7
c2.66699 4 6.16699 10.833 10.5 20.5l13.5 31.5l18.5 38.5c7 15 13.833 28.5 20.5 40.5c16.667 34.667 28.334 58.167 35.001 70.5s11.334 18.5 14.001 18.5c2 0 5.83301 -1.66699 11.5 -5s10.5 -8 14.5 -14c4.66699 -4.66699 8 -9 10 -13s1.33301 -9.33301 -2 -16
c-0.666992 -8 -2.5 -15.333 -5.5 -22s-7 -14.334 -12 -23.001s-11.5 -21 -19.5 -37l-28 -57.5c-10 -21 -19.667 -42.333 -29 -64l-25.5 -61.5l-18.5 -48c-11.333 -31.333 -19.333 -55 -24 -71s-7.16699 -28 -7.5 -36s1.16699 -15 4.5 -21
c0.666992 -10.667 -2.16602 -20.167 -8.49902 -28.5s-13.333 -13.5 -21 -15.5s-13.5 0.333008 -17.5 7z" />
    <glyph glyph-name="five" unicode="5" horiz-adv-x="445" 
d="M168 21c-12 8.66699 -18.002 15.998 -18.002 21.998c-2.66699 4 -5.66699 6 -9 6c-2 -0.666992 -3.83301 1.83301 -5.5 7.5s-3 12 -4 19s-1.16699 11.833 -0.5 14.5c2.66699 5.33301 7.16699 8.83301 13.5 10.5s12.333 1.66699 18 0s8.83398 -5.16699 9.50098 -10.5
c1.33301 -5.33301 6.5 -9.66602 15.5 -12.999s20.833 -4.66602 35.5 -3.99902c18.667 0.666992 37.5 4.83398 56.5 12.501s36.5 17.5 52.5 29.5s29.333 25 40 39c4.66699 9.33301 9 21.666 13 36.999s6.66699 29 8 41s0.333008 18 -3 18l-1.5 7
c-1 4.66699 -2.5 9.66699 -4.5 15c-3.33301 10 -11 20.167 -23 30.5s-23.667 17.833 -35 22.5c-4.66699 1.33301 -13.5 2.16602 -26.5 2.49902s-24.5 -0.166992 -34.5 -1.5c-10.667 -0.666992 -19.167 -0.666992 -25.5 0l-9.5 1c-3.33301 0.666992 -8.33301 3.66699 -15 9
s-12.834 10.833 -18.501 16.5s-8.5 10.167 -8.5 13.5c1.33301 4.66699 4.83301 12.334 10.5 23.001s12.5 22.5 20.5 35.5s16.5 25.5 25.5 37.5s17.5 22 25.5 30c20 22 43.167 38.5 69.5 49.5s53.166 15.833 80.499 14.5c19.333 -0.666992 33.333 -2.5 42 -5.5
s17 -9.83301 25 -20.5c5.33301 -9.33301 7.66602 -18 6.99902 -26s-3.5 -13.833 -8.5 -17.5s-11.5 -3.5 -19.5 0.5c-9.33301 6 -22.166 8.33301 -38.499 7s-33.5 -4.66602 -51.5 -9.99902c-14 -5.33301 -27.667 -12.5 -41 -21.5s-21.666 -17.167 -24.999 -24.5
c-2.66699 -2 -4.5 -4 -5.5 -6s-2.83301 -2.66699 -5.5 -2l-3 -3.5c-2 -2.33301 -3 -4.83301 -3 -7.5c-3.33301 -4 -5.5 -6.83301 -6.5 -8.5s-2.83301 -1.16699 -5.5 1.5v-3c0 -2 -0.333008 -4.33301 -1 -7c-0.666992 -4.66699 0.166016 -8.33398 2.49902 -11.001
s9.83301 -4.66699 22.5 -6c16.667 -2.66699 29.334 -5.16699 38.001 -7.5s21.334 -8.5 38.001 -18.5c18.667 -10.667 33.334 -25.334 44.001 -44.001s17.667 -39.5 21 -62.5s3.33301 -45.833 0 -68.5c-2 -14.667 -4 -26 -6 -34s-7.66699 -19 -17 -33
c-15.333 -21.333 -34.333 -40.166 -57 -56.499s-46.5 -29 -71.5 -38s-48.667 -14 -71 -15s-40.833 3.5 -55.5 13.5z" />
    <glyph glyph-name="six" unicode="6" horiz-adv-x="457" 
d="M268 26c-22 -6 -41.1689 -8.16406 -57.502 -6.49707s-31.5 9.16699 -45.5 22.5c-9.33301 7.33301 -17.166 15.333 -23.499 24s-10.5 19.667 -12.5 33c-3.33301 10 -5.33301 18 -6 24s-0.166992 13.333 1.5 22l7.5 40c5.33301 24 10 42.833 14 56.5s12 28.834 24 45.501
c5.33301 14 11.5 28.167 18.5 42.5s12.167 23.5 15.5 27.5l15 21c6.66699 9.33301 13.667 18 21 26l18.5 24.5l8.5 11.5c3.33301 2 6.5 4 9.5 6s6.16699 5.33301 9.5 10c5.33301 6 13.166 13.167 23.499 21.5s22.166 16.5 35.499 24.5s26.5 14.833 39.5 20.5
s24.833 9.16699 35.5 10.5c21.333 7.33301 31.333 7 30 -1l5.5 -5.5c3.66699 -3.66699 8.16699 -6.16699 13.5 -7.5c2.66699 -0.666992 4.83398 -2.83398 6.50098 -6.50098s3.5 -7.16699 5.5 -10.5c1.33301 -5.33301 0.333008 -10.833 -3 -16.5
s-9.66602 -12.834 -18.999 -21.501c-9.33301 -6.66699 -15.833 -10.334 -19.5 -11.001s-6.83398 0.333008 -9.50098 3c0.666992 2.66699 -0.666016 4.5 -3.99902 5.5l-5 1.5c-4 1.33301 -12.167 -1 -24.5 -7s-25.666 -14.167 -39.999 -24.5s-26.5 -20.833 -36.5 -31.5
c-6 -5.33301 -11.333 -10.666 -16 -15.999s-7.66699 -9.33301 -9 -12c-8.66699 -8.66699 -16.334 -17.167 -23.001 -25.5l-10 -12.5c2 -4 6.83301 -5 14.5 -3s11.834 4.33301 12.501 7c0 2.66699 7.5 6.16699 22.5 10.5s30.167 7.16602 45.5 8.49902
c6 2.66699 14.167 3 24.5 1l25.5 -5c14.667 -2.66699 24.667 -5.33398 30 -8.00098s12 -9 20 -19c13.333 -12.667 22.5 -25.5 27.5 -38.5s7.16699 -28.167 6.5 -45.5c0 -10.667 -1 -20 -3 -28s-6.66699 -16.333 -14 -25c-5.33301 -8.66699 -12.333 -19 -21 -31
s-17.167 -23 -25.5 -33s-15.5 -17 -21.5 -21c-2.66699 -1.33301 -5.16699 -2.83301 -7.5 -4.5l-3.5 -2.5c-0.666992 -4 -5.5 -9.16699 -14.5 -15.5s-20.333 -13.333 -34 -21s-27.5 -14.667 -41.5 -21s-26.333 -10.833 -37 -13.5zM202.998 84.0029
c11.333 -2 20.165 -2.99414 26.498 -2.99414s17.5 3.33301 33.5 10c5.33301 1.33301 10.166 2.66602 14.499 3.99902s7.83301 1.66602 10.5 0.999023l13.5 9l31.5 20c34 21.333 60 45.166 78 71.499s25.333 48.166 22 65.499c0.666992 4.66699 -0.166016 9.5 -2.49902 14.5
s-3.16602 8.5 -2.49902 10.5c-2 0 -5.16699 0.666992 -9.5 2s-10.166 2.66602 -17.499 3.99902c-7.33301 2 -14.5 2.83301 -21.5 2.5s-17.667 -2 -32 -5s-36.166 -7.83301 -65.499 -14.5c-4.66699 -1.33301 -9.83398 -3.33301 -15.501 -6s-11.167 -4.66699 -16.5 -6
c-2.66699 -2 -6.66699 -4.5 -12 -7.5s-10 -5.16699 -14 -6.5c-7.33301 -0.666992 -13.666 -6.66699 -18.999 -18s-11.333 -33 -18 -65c-4.66699 -22 -7.33398 -36.833 -8.00098 -44.5s0.666016 -13.834 3.99902 -18.501c1.33301 -8 3.83301 -13 7.5 -15
s7.83398 -3.66699 12.501 -5z" />
    <glyph glyph-name="seven" unicode="7" horiz-adv-x="449" 
d="M226 -21c-8 1.33301 -15.6621 6.15723 -22.9951 14.4902s-13 17.166 -17 26.499c-2.66699 12.667 2.66602 34.834 15.999 66.501s31.333 68.834 54 111.501c14.667 24 21.667 38 21 42s-7 6 -19 6l-22.5 5c-9 2 -14.5 4.33301 -16.5 7
c-10.667 5.33301 -16.834 11.166 -18.501 17.499s0.5 9.83301 6.5 10.5c4 2 5.5 4.66699 4.5 8s-1.16699 6.33301 -0.5 9c2.66699 0 5.33398 -0.166992 8.00098 -0.5s6 -1.16602 10 -2.49902h22.5h19.5h12.5c5 0 9.5 -0.333008 13.5 -1
c9.33301 -1.33301 15.666 -0.5 18.999 2.5s9.66602 10.5 18.999 22.5c5.33301 9.33301 13.333 21 24 35s20.334 29.333 29.001 46c28.667 41.333 44.667 69 48 83s-3.66699 20.333 -21 19c-10.667 -0.666992 -22.5 -3 -35.5 -7s-32.167 -10.667 -57.5 -20
c-22.667 -9.33301 -38.834 -15.166 -48.501 -17.499s-18.167 -1.5 -25.5 2.5c-4 0.666992 -7.16699 3.5 -9.5 8.5s-3.66602 10.667 -3.99902 17s-0.166016 11.833 0.500977 16.5c1.33301 7.33301 15 15.333 41 24s56 17.334 90 26.001
c15.333 2.66699 30.833 4.33398 46.5 5.00098s29.5 0 41.5 -2s19.333 -5.66699 22 -11l2.5 -2.5c1.66699 -1.66699 2.83398 -1.16699 3.50098 1.5c2.66699 -0.666992 4.66699 -3.16699 6 -7.5s4 -9.83301 8 -16.5c6.66699 -11.333 10.834 -19.666 12.501 -24.999
s1.5 -13 -0.5 -23c-2 -7.33301 -5.33301 -14.666 -10 -21.999s-8.33398 -12 -11.001 -14c-3.33301 -2.66699 -5.83301 -5.66699 -7.5 -9l-2.5 -5c-0.666992 -2.66699 -2.66699 -5.16699 -6 -7.5s-6.66602 -5.5 -9.99902 -9.5c-0.666992 -2.66699 -2.16699 -5.66699 -4.5 -9
s-3.83301 -6 -4.5 -8c-0.666992 -0.666992 -3.33398 -4.66699 -8.00098 -12l-16.5 -25.5l-18 -27c-5.66699 -8.33301 -9.5 -14.166 -11.5 -17.499c-9.33301 -8.66699 -14 -15 -14 -19s4.33301 -8 13 -12c11.333 -4.66699 20.666 -10.167 27.999 -16.5
s12.333 -14.166 15 -23.499c0.666992 -14 -1.33301 -22 -6 -24c-3.33301 -4.66699 -8.5 -7.16699 -15.5 -7.5s-11.5 0.833984 -13.5 3.50098c-2 4 -6.5 7.83301 -13.5 11.5s-13.833 6.5 -20.5 8.5s-11 3 -13 3c-2.66699 -1.33301 -5.33398 -3.83301 -8.00098 -7.5
s-5.66699 -7.5 -9 -11.5c-4.66699 -6.66699 -10.834 -17.167 -18.501 -31.5l-23 -42.5c-7.66699 -14 -13.5 -24.333 -17.5 -31c-0.666992 -3.33301 -2.5 -6.66602 -5.5 -9.99902s-5.16699 -7.33301 -6.5 -12c-2.66699 -4.66699 -5 -11.5 -7 -20.5s-3 -17 -3 -24
s1 -10.833 3 -11.5c5.33301 1.33301 9.16602 0.833008 11.499 -1.5s4.16602 -6.16602 5.49902 -11.499c3.33301 -4.66699 1.83301 -10.334 -4.5 -17.001s-14.333 -12.5 -24 -17.5s-18.167 -6.83301 -25.5 -5.5z" />
    <glyph glyph-name="eight" unicode="8" horiz-adv-x="450" 
d="M178 -37c-4.66699 0.666992 -9.83496 2.83496 -15.502 6.50195s-11.334 7.83398 -17.001 12.501l-14.5 12c-4.66699 11.333 -8 20 -10 26s-2 16 0 30c0 8 0.833008 17.333 2.5 28s4.83398 19.334 9.50098 26.001c4.66699 13.333 12.167 29 22.5 47s21.666 36 33.999 54
l35 49.5c11 15 19.167 25.833 24.5 32.5c7.33301 9.33301 10.833 17.166 10.5 23.499s-7.16602 18.5 -20.499 36.5c-2.66699 7.33301 -5.66699 12.833 -9 16.5s-3.66602 5.5 -0.999023 5.5l-2.5 3.5c-1.66699 2.33301 -3.5 5.83301 -5.5 10.5
c-10 9.33301 -14.833 23.666 -14.5 42.999s5.16602 38.333 14.499 57c10.667 24 23.334 43 38.001 57s32 22.333 52 25c7.33301 -0.666992 19.833 -2.66699 37.5 -6s36 -7 55 -11s34.167 -8.66699 45.5 -14c8 -3.33301 17.667 -8.83301 29 -16.5s21.333 -15.334 30 -23.001
s13.334 -13.5 14.001 -17.5c0 -2 1.16699 -4.16699 3.5 -6.5s3.83301 -5.16602 4.5 -8.49902c4 -7.33301 6.16699 -16.5 6.5 -27.5s-0.5 -21.667 -2.5 -32s-5 -18.5 -9 -24.5c-16.667 -18.667 -28.334 -29.334 -35.001 -32.001c-3.33301 -2.66699 -7.16602 -6 -11.499 -10
s-9.16602 -6.66699 -14.499 -8c-3.33301 -4.66699 -6.5 -8.66699 -9.5 -12s-5.83301 -5 -8.5 -5c-2.66699 2 -5.33398 3.16699 -8.00098 3.5s-4 -0.833984 -4 -3.50098c0 -1.33301 -4.5 -4.33301 -13.5 -9s-18.167 -8.66699 -27.5 -12s-15.333 -4.33301 -18 -3h-3
c-2 0 -5 -1.33301 -9 -4c-8.66699 1.33301 -3.66699 -9.33398 15 -32.001c15.333 -28.667 26.833 -56.167 34.5 -82.5s6.5 -46.5 -3.5 -60.5c-12.667 -28.667 -26.334 -52.167 -41.001 -70.5s-26.334 -27.166 -35.001 -26.499l-4.5 -3c-3 -2 -6.16699 -4 -9.5 -6
c-1.33301 -4.66699 -4.16602 -7.83398 -8.49902 -9.50098s-8.16602 -2.16699 -11.499 -1.5c-6 2.66699 -16.333 -0.666016 -31 -9.99902c-8.66699 -6 -19.167 -10.667 -31.5 -14s-24 -5.33301 -35 -6s-18.833 0 -23.5 2zM195.999 22.001
c6.66699 -0.666992 15.832 1.33594 27.499 6.00293s24.167 10.667 37.5 18s25 14.333 35 21c24 19.333 40.333 38.166 49 56.499s9 37.166 1 56.499l-13 26c-4.66699 9.33301 -8.66699 16.666 -12 21.999c-4 6 -7.5 10.333 -10.5 13s-6.16699 5 -9.5 7l-6.5 -6
c-4.33301 -4 -8.16602 -9.66699 -11.499 -17c-7.33301 -9.33301 -12.666 -16.5 -15.999 -21.5s-6.33301 -9.83301 -9 -14.5l-13 -13l-9 -9c0 -2 -2 -7.83301 -6 -17.5s-8.66699 -19.167 -14 -28.5c-14.667 -25.333 -23.834 -47.833 -27.501 -67.5
s-1.16699 -30.167 7.5 -31.5zM350.997 351.004c14 12.667 25.834 19.8291 35.501 21.4961s16.5 -1.16602 20.5 -8.49902c1.33301 -2.66699 8.66602 0 21.999 8s25.333 17.667 36 29c4 7.33301 6 12.333 6 15s-0.666992 9.33398 -2 20.001
c0.666992 6.66699 0.166992 12.167 -1.5 16.5s-5.5 8.5 -11.5 12.5s-16 8.66699 -30 14c-41.333 14.667 -74.5 19.334 -99.5 14.001s-42.167 -22.333 -51.5 -51c-4 -12.667 -6 -23.667 -6 -33s2.66699 -19.666 8 -30.999c6 -2.66699 10 -6.16699 12 -10.5l3 -6.5
c0 -6 2.66699 -9 8 -9c1.33301 -3.33301 6 -7 14 -11s20.333 -0.666992 37 10z" />
    <glyph glyph-name="nine" unicode="9" horiz-adv-x="446" 
d="M313 -32c-3.33301 0.666992 -7.50488 2.50293 -12.5049 5.50293s-9.16699 6.33301 -12.5 10s-5 6.16699 -5 7.5c0.666992 3.33301 -0.666016 5 -3.99902 5l-2 6.5c-1.33301 4.33301 -1.66602 8.83301 -0.999023 13.5c0 2 0.333008 7 1 15s1 14.333 1 19
c1.33301 13.333 4.66602 31 9.99902 53s11.666 45.167 18.999 69.5s14.333 46.166 21 65.499c9.33301 24 13.5 38.667 12.5 44s-9.5 7.33301 -25.5 6c-20.667 -3.33301 -39.667 -0.333008 -57 9s-31 22.666 -41 39.999s-14.333 35.666 -13 54.999
c0.666992 10 2.83398 19.167 6.50098 27.5s9.83398 19.833 18.501 34.5c14 20.667 29.833 39.5 47.5 56.5s36.167 31.333 55.5 43s37.666 19.167 54.999 22.5c10.667 2 23.334 2.66699 38.001 2s26 -2.66699 34 -6c10 -4 20 -11.833 30 -23.5s18.167 -24 24.5 -37
s8.5 -23.5 6.5 -31.5c-4.66699 -22 -10 -38.667 -16 -50s-13.333 -21.666 -22 -30.999c-10.667 -9.33301 -23.167 -26.333 -37.5 -51s-28.666 -52.834 -42.999 -84.501s-26.833 -62.834 -37.5 -93.501c-9.33301 -28 -15.166 -53.333 -17.499 -76
s-1.16602 -34.334 3.50098 -35.001c2.66699 0 6.66699 -1 12 -3s9.33301 -3 12 -3c2 -2.66699 3 -5.66699 3 -9s-1.66699 -8.66602 -5 -15.999c-2 -4.66699 -5.66699 -10.5 -11 -17.5s-11.333 -13.667 -18 -20s-12.667 -11.666 -18 -15.999s-9.33301 -6.5 -12 -6.5z
M272.995 359.003c10 -10.667 23.1689 -14.3359 39.502 -11.0029s33.333 12 51 26s33.5 32 47.5 54c8 9.33301 14.333 17.666 19 24.999s8.33398 12 11.001 14c8.66699 9.33301 13.834 16.833 15.501 22.5s0.166992 10.834 -4.5 15.501
c-4.66699 7.33301 -10.834 11.333 -18.501 12s-19.5 -2 -35.5 -8c-10.667 -2 -19.834 -5.16699 -27.501 -9.5s-18.5 -11.166 -32.5 -20.499c-2.66699 -2.66699 -5.33398 -4.16699 -8.00098 -4.5s-5.33398 -0.166016 -8.00098 0.500977l-2 -0.5
c-1.33301 -0.333008 -2 -1.83301 -2 -4.5c3.33301 -6 -0.666992 -13.667 -12 -23c-17.333 -18.667 -28.833 -36.167 -34.5 -52.5s-5.16699 -28.166 1.5 -35.499z" />
    <glyph glyph-name="colon" unicode=":" horiz-adv-x="198" 
d="M230 262c-12.667 -4.66699 -23.334 -6.83398 -32.001 -6.50098s-18.334 4.16602 -29.001 11.499c-12.667 12.667 -16.834 25.334 -12.501 38.001s15.5 25.334 33.5 38.001c12.667 7.33301 21.834 11.333 27.501 12s14.834 -1.66602 27.501 -6.99902
c20.667 -13.333 29.834 -27.833 27.501 -43.5s-16.5 -29.834 -42.5 -42.501zM160 52c-12.667 -4.66699 -23.334 -6.83398 -32.001 -6.50098s-18.334 4.16602 -29.001 11.499c-12.667 12.667 -16.834 25.334 -12.501 38.001s15.5 25.334 33.5 38.001
c12.667 7.33301 21.834 11.333 27.501 12s14.834 -1.66602 27.501 -6.99902c20.667 -13.333 29.834 -27.833 27.501 -43.5s-16.5 -29.834 -42.5 -42.501z" />
    <glyph glyph-name="semicolon" unicode=";" horiz-adv-x="198" 
d="M58 -81c-6.66699 0 -11.333 0.833008 -14 2.5s-5.33398 4.83398 -8.00098 9.50098c0 4.66699 1.16699 8.66699 3.5 12s5.83301 7.33301 10.5 12c6.66699 6.66699 14 14.834 22 24.501s15.5 19.5 22.5 29.5s12.167 18 15.5 24c2.66699 7.33301 5.33398 16 8.00098 26
s5.33398 21 8.00098 33c0 5.33301 0.166992 10.166 0.5 14.499s1.83301 7.83301 4.5 10.5c4.66699 4.66699 9.5 7.33398 14.5 8.00098s9.83301 -2.5 14.5 -9.5s8 -19.5 10 -37.5c2.66699 -14.667 2.66699 -28 0 -40s-8 -26.667 -16 -44
c-1.33301 -4.66699 -5.83301 -11.834 -13.5 -21.501s-15.334 -18.667 -23.001 -27s-12.5 -12.5 -14.5 -12.5c-2.66699 0 -5 -0.833008 -7 -2.5s-4.33301 -3.83398 -7 -6.50098s-6.5 -4.16699 -11.5 -4.5s-11.5 -0.5 -19.5 -0.5zM230.001 262
c-12.667 -4.66699 -23.334 -6.83398 -32.001 -6.50098s-18.334 4.16602 -29.001 11.499c-12.667 12.667 -16.834 25.334 -12.501 38.001s15.5 25.334 33.5 38.001c12.667 7.33301 21.834 11.333 27.501 12s14.834 -1.66602 27.501 -6.99902
c20.667 -13.333 29.834 -27.833 27.501 -43.5s-16.5 -29.834 -42.5 -42.501z" />
    <glyph glyph-name="less" unicode="&#x3c;" horiz-adv-x="446" 
d="M362 51l-56.4941 15.999c-13.667 4 -27.834 11.333 -42.501 22c-24 10 -43.333 20.333 -58 31s-29.334 24.334 -44.001 41.001l-36 43l-8 38c5.33301 1.33301 12.166 4.5 20.499 9.5s13.166 7.83301 14.499 8.5l24.5 17c9 6 21.167 13.667 36.5 23l62 36
c29.333 14 51.333 25.667 66 35s25.667 17 33 23c4.66699 3.33301 10 6.66602 16 9.99902s10.333 4.66602 13 3.99902c4 1.33301 8 0.5 12 -2.5s7.33301 -5.83301 10 -8.5c6 -6 12 -9.83301 18 -11.5s9 -5.16699 9 -10.5l-3.5 -8
c-2.33301 -5.33301 -6.16602 -10 -11.499 -14c-9.33301 -6 -20.333 -12 -33 -18s-28.334 -14 -47.001 -24s-43 -24 -73 -42c-18 -10.667 -33 -19.167 -45 -25.5s-20.833 -12.166 -26.5 -17.499s-7.83398 -12.333 -6.50098 -21c8 -13.333 26.833 -27.833 56.5 -43.5
s69.5 -31.167 119.5 -46.5c20.667 -5.33301 37.5 -11.333 50.5 -18s21.5 -13.5 25.5 -20.5s2.66699 -13.833 -4 -20.5c-3.33301 -2 -9.5 -4.16699 -18.5 -6.5s-19.833 -3.66602 -32.5 -3.99902s-26.334 1.5 -41.001 5.5z" />
    <glyph glyph-name="equal" unicode="=" horiz-adv-x="446" 
d="M241 272c-4 0 -9.16797 0.167969 -15.501 0.500977s-15.166 1.83301 -26.499 4.5c-10 0 -17.167 1.16699 -21.5 3.5s-7.83301 5.83301 -10.5 10.5c-9.33301 10 -10.166 18 -2.49902 24s26.5 9.66699 56.5 11c26 5.33301 53.667 9 83 11s59.333 3 90 3
c20.667 0 34.667 -1 42 -3s14.666 -6.66699 21.999 -14c12 -10 16.333 -20 13 -30s-13 -13.667 -29 -11c-6.66699 -0.666992 -17.667 -1.33398 -33 -2.00098s-30.666 -1.66699 -45.999 -3c-4.66699 0 -13.834 -0.5 -27.501 -1.5s-29 -1.83301 -46 -2.5s-33.167 -1 -48.5 -1z
M185.999 130.001c-4 0 -9.16699 0.166992 -15.5 0.5s-14.833 1.83301 -25.5 4.5c-10.667 0 -18 1.16699 -22 3.5s-7.33301 5.83301 -10 10.5c-9.33301 10 -10.333 18 -3 24s26 9.66699 56 11c26 5.33301 53.667 9 83 11s59.333 3 90 3c20.667 0 34.834 -1.16699 42.501 -3.5
s15.167 -7.16602 22.5 -14.499c11.333 -10 15.333 -19.833 12 -29.5s-12.666 -13.167 -27.999 -10.5c-6.66699 -0.666992 -19 -1.33398 -37 -2.00098s-34.667 -1.66699 -50 -3c-4.66699 0 -13.334 -0.5 -26.001 -1.5s-26.834 -1.83301 -42.501 -2.5s-31.167 -1 -46.5 -1z
" />
    <glyph glyph-name="greater" unicode="&#x3e;" horiz-adv-x="446" 
d="M190 35c-4 -0.666992 -8 0.667969 -12 4.00098s-7.33301 6.33301 -10 9c-6 6 -12 10.167 -18 12.5s-8.33301 5.83301 -7 10.5l3.5 7.5c2.33301 5 5.83301 9.5 10.5 13.5c10.667 6.66699 22.334 12.667 35.001 18s28.667 12.5 48 21.5s44 21.5 74 37.5
c18.667 10.667 34.167 18.667 46.5 24s21.5 10.666 27.5 15.999s8.33301 12.333 7 21c-7.33301 13.333 -25.166 28.5 -53.499 45.5s-67.833 34.167 -118.5 51.5c-19.333 6.66699 -35.5 13.667 -48.5 21s-21.333 14.5 -25 21.5s-2.16699 13.5 4.5 19.5
c4 2.66699 10.5 5 19.5 7s20 2.83301 33 2.5s26.5 -3.16602 40.5 -8.49902l55 -17.5c13.333 -4.33301 27.333 -12.5 42 -24.5c23.333 -10.667 42.166 -21.667 56.499 -33s28.166 -26.333 41.499 -45l34 -44l7 -37c-5.33301 -0.666992 -12.333 -3.33398 -21 -8.00098
s-13.667 -7.33398 -15 -8.00098c-7.33301 -5.33301 -15.833 -10.666 -25.5 -15.999l-37.5 -20.5l-63 -33.5c-30 -12 -52.333 -22.667 -67 -32l-35 -22c-4 -4 -9 -7.33301 -15 -10s-10.667 -4 -14 -4z" />
    <glyph glyph-name="question" unicode="?" horiz-adv-x="374" 
d="M249 188c-10.667 1.33301 -18.333 5.83398 -23 13.501s-7 15.5 -7 23.5c0 1.33301 -0.166992 4.5 -0.5 9.5s0.166992 10.167 1.5 15.5c0 4 2 10.333 6 19s8.33301 19 13 31c7.33301 13.333 18.666 28.333 33.999 45s28.333 29 39 37c6 4.66699 10.333 7.83398 13 9.50098
l4 2.5c0 2.66699 4.66699 7.83398 14 15.501s17.333 12.834 24 15.501l13 9c8.66699 6 15.334 11.333 20.001 16c15.333 15.333 26.666 29.5 33.999 42.5s13 27.833 17 44.5s8.33301 37.334 13 62.001c0.666992 23.333 0.5 38.666 -0.5 45.999s-5.5 14 -13.5 20
c-14.667 6 -31.5 6.5 -50.5 1.5s-37 -14.833 -54 -29.5s-30.5 -33.334 -40.5 -56.001c-4 -11.333 -6.16699 -19 -6.5 -23s0.5 -9.33301 2.5 -16c0 -5.33301 0.833008 -10.833 2.5 -16.5s2.5 -10.167 2.5 -13.5c-2.66699 -0.666992 -7.66699 -1.33398 -15 -2.00098
s-14.833 -0.666992 -22.5 0s-14.5 2.66699 -20.5 6l-5.5 7.5c-3.66699 5 -6.16699 8.83301 -7.5 11.5c-4 5.33301 -5.83301 10.5 -5.5 15.5s0.5 12.5 0.5 22.5c4.66699 13.333 11 28 19 44s18.333 31.167 31 45.5s27.334 25.833 44.001 34.5c14 6 26.333 11.833 37 17.5
l16 8.5l7.5 0.5c5 0.333008 13.5 1.16602 25.5 2.49902c4 -0.666992 8.5 -0.666992 13.5 0s7.5 -0.666016 7.5 -3.99902h12h17c8 -2 16.833 -5.5 26.5 -10.5s18.667 -10.333 27 -16s14.833 -11.167 19.5 -16.5c4.66699 -14.667 6.66699 -32.834 6 -54.501
s-4 -44.5 -10 -68.5s-13.833 -46.833 -23.5 -68.5s-21.167 -39.834 -34.5 -54.501c-4 -4 -11.333 -10.667 -22 -20l-33.5 -30.5c-11.667 -11 -21.167 -20.5 -28.5 -28.5c-22.667 -12.667 -42.667 -31.667 -60 -57s-30.333 -50 -39 -74
c-7.33301 -16 -13.333 -25.833 -18 -29.5s-11.667 -5.5 -21 -5.5zM223.001 9.00098c-13.333 -5.33301 -24.335 -7.83496 -33.002 -7.50195s-18.334 4.5 -29.001 12.5c-12.667 12.667 -16.834 25.334 -12.501 38.001s15.5 25 33.5 37c12.667 8 21.834 12.333 27.501 13
s14.834 -1.66602 27.501 -6.99902c20.667 -13.333 29.834 -28 27.501 -44s-16.166 -30 -41.499 -42z" />
    <glyph glyph-name="at" unicode="@" horiz-adv-x="643" 
d="M307 -130c-22.667 0 -46.0029 4.83203 -70.0029 14.499s-46.667 22.834 -68 39.501c-11.333 10.667 -22 22.167 -32 34.5s-19 25.5 -27 39.5c-5.33301 7.33301 -9.83301 17.166 -13.5 29.499s-5.83398 24.833 -6.50098 37.5c-0.666992 11.333 0 25.333 2 42s5 33 9 49
s8.33301 28.667 13 38c0 2 0.5 4.16699 1.5 6.5s1.83301 5.5 2.5 9.5c0 4 2.5 10.833 7.5 20.5s10.167 18.5 15.5 26.5l57.5 75.5c15.667 20.333 32 38.833 49 55.5s38.5 34.334 64.5 53.001c12.667 10 27.834 19.5 45.501 28.5s35.834 16.833 54.501 23.5s35.667 11 51 13
c2.66699 0.666992 6.83398 1 12.501 1s15.834 -0.666992 30.501 -2c20.667 -2 40.667 -7 60 -15s36 -18.667 50 -32c26.667 -20.667 46 -42.834 58 -66.501s20 -44.167 24 -61.5c2.66699 -9.33301 4 -22.666 4 -39.999s-1 -34.5 -3 -51.5s-5 -29.833 -9 -38.5
c-7.33301 -16 -16.833 -32.167 -28.5 -48.5s-23.834 -31.666 -36.501 -45.999s-24.667 -26.333 -36 -36s-20.666 -15.5 -27.999 -17.5c-10 0 -23.167 2.33301 -39.5 7s-28.5 10.334 -36.5 17.001c1.33301 0 -5 4 -19 12l-7 -7.5c-4.66699 -5 -10.667 -10.5 -18 -16.5
c-9.33301 -8.66699 -20.166 -16.5 -32.499 -23.5s-24 -12.167 -35 -15.5s-19.167 -4.33301 -24.5 -3c-12.667 3.33301 -22.667 6.33301 -30 9s-14.166 6.83398 -20.499 12.501s-14.166 14.834 -23.499 27.501c-2.66699 6.66699 -5.16699 14 -7.5 22s-3.5 14.333 -3.5 19
c0 6.66699 1 14 3 22l7 27c4 18 9.5 33.667 16.5 47s16.167 28 27.5 44c10.667 15.333 23.334 29 38.001 41s31.667 22 51 30c8 4 20 6 36 6c6 0 12 -0.666992 18 -2s12 -4 18 -8c4.66699 -0.666992 10.167 -4 16.5 -10s12.166 -13 17.499 -21s9.33301 -15.333 12 -22
c2 -10 3 -17.333 3 -22s-1 -12.667 -3 -24c-0.666992 -2.66699 -1.33398 -6 -2.00098 -10s-1.66699 -8 -3 -12c-0.666992 -5.33301 -1.66699 -11.333 -3 -18s-2.66602 -11.667 -3.99902 -15l-5 -15.5c-1.33301 -4.33301 -1 -9.16602 1 -14.499
c-0.666992 -2.66699 1.16602 -5.33398 5.49902 -8.00098s9.33301 -4.83398 15 -6.50098s9.83398 -2.5 12.501 -2.5c3.33301 0 8.33301 2 15 6s13.334 10 20.001 18l27 29c7.33301 8 13.666 16.333 18.999 25s10 19.667 14 33c0.666992 4 1.16699 9 1.5 15s0.5 12.333 0.5 19
c0 33.333 -7.5 65 -22.5 95s-40.167 52.333 -75.5 67c-7.33301 3.33301 -15.833 5.5 -25.5 6.5s-19.5 1.5 -29.5 1.5c-14.667 0 -29.334 -1.16699 -44.001 -3.5s-29 -6.5 -43 -12.5c-8.66699 -2.66699 -19.5 -8.33398 -32.5 -17.001s-26.667 -18.834 -41 -30.501
s-27.833 -23.5 -40.5 -35.5s-23 -22.667 -31 -32c-28.667 -34 -51 -68.5 -67 -103.5s-26.333 -69.167 -31 -102.5c-2.66699 -20 -2.5 -35 0.5 -45s5.5 -17 7.5 -21c7.33301 -14.667 17 -27.834 29 -39.501s25.333 -22.167 40 -31.5c15.333 -6 33.166 -10.667 53.499 -14
s43.166 -4.33301 68.499 -3c5.33301 -1.33301 8.83301 -2.83301 10.5 -4.5s2.16699 -5.5 1.5 -11.5c0 -0.666992 0.5 -2.66699 1.5 -6s3.16699 -8.66602 6.5 -15.999c0 -6 -0.833008 -10.833 -2.5 -14.5s-5.16699 -6.83398 -10.5 -9.50098
c-4 -1.33301 -9.16699 -2.83301 -15.5 -4.5s-13 -3 -20 -4s-13.5 -1.5 -19.5 -1.5zM372.997 89.999c6.66699 3.33301 13.8301 8.33301 21.4971 15s14.834 13.667 21.501 21s11 13.333 13 18l8 15c4.66699 7.33301 9.33398 16.333 14.001 27s8 21.334 10 32.001
c1.33301 2 2.33301 4.33301 3 7s2.33398 7.33398 5.00098 14.001c0 4 -0.5 7.16699 -1.5 9.5s-4.16699 5.16602 -9.5 8.49902h1c-7.33301 2 -16.166 3.5 -26.499 4.5s-19.5 -0.5 -27.5 -4.5c-9.33301 -4 -18.833 -11.833 -28.5 -23.5s-18.5 -25.334 -26.5 -41.001
s-14.333 -31 -19 -46s-6.33398 -27.833 -5.00098 -38.5c4.66699 -9.33301 11.167 -15.833 19.5 -19.5s17.5 -3.16699 27.5 1.5z" />
    <glyph glyph-name="A" unicode="A" horiz-adv-x="505" 
d="M66 -33c-12 6.66699 -18.5 13.9932 -19.5 21.9932s3.5 22 13.5 42l47 93c16 30 27.833 53.5 35.5 70.5s12.5 29.167 14.5 36.5s3 12 3 14c-1.33301 6 -0.666016 10.833 2.00098 14.5s7 6.83398 13 9.50098c3.33301 3.33301 9.66602 9.33301 18.999 18s17.333 19 24 31
c6 14 12.833 28.333 20.5 43s18.167 33.167 31.5 55.5l52 87.5c13.333 23.333 28.333 48 45 74s34 51 52 75c7.33301 9.33301 14.333 16.833 21 22.5s13 8.16699 19 7.5c10 0 21 -3 33 -9s22.667 -13.833 32 -23.5s16 -19.5 20 -29.5
c3.33301 -5.33301 4.66602 -16.666 3.99902 -33.999s-2 -38.333 -4 -63s-4.33301 -51 -7 -79c-2 -27.333 -5 -59.666 -9 -96.999s-7.83301 -76.333 -11.5 -117s-6.5 -79.834 -8.5 -117.501s-2 -70.5 0 -98.5c0.666992 -6 0.666992 -11.667 0 -17s-1 -9.66602 -1 -12.999
c-4 -4 -11.167 -5.83301 -21.5 -5.5s-20.333 2.5 -30 6.5s-15.167 9 -16.5 15c-2 2 -3.33301 4.5 -4 7.5s-0.666992 10.333 0 22s1.66699 31.5 3 59.5l5 159l-13 -1c-6 0 -17.167 -0.666992 -33.5 -2s-34 -3.16602 -53 -5.49902s-36.5 -4.66602 -52.5 -6.99902
s-27 -4.5 -33 -6.5c-6 0 -13.167 -4 -21.5 -12s-16.166 -18.333 -23.499 -31c-2.66699 -9.33301 -7.5 -19.166 -14.5 -29.499s-10.5 -17.166 -10.5 -20.499c-4.66699 -3.33301 -8.5 -7.33301 -11.5 -12l-4.5 -7c0 -4 -3.16699 -13.833 -9.5 -29.5s-14 -33 -23 -52
s-18.167 -35.5 -27.5 -49.5l-23 -34zM284 295.993l10.4961 2c7 1.33301 15.5 2.83301 25.5 4.5s19 2.5 27 2.5c24 6 41.833 10.167 53.5 12.5s20.334 3.5 26.001 3.5s10.5 -1 14.5 -3c2.66699 -3.33301 5.16699 -5.33301 7.5 -6l3.5 -1
c0.666992 1.33301 1.83398 8.83301 3.50098 22.5l6 50.5l7 62.5c2.33301 21.667 4.33301 41.667 6 60s2.83398 32.5 3.50098 42.5c0.666992 12.667 1 24.167 1 34.5v15.5c-4 0 -12.167 -7.16699 -24.5 -21.5s-26.166 -33.5 -41.499 -57.5s-30 -49.667 -44 -77
c-6.66699 -12.667 -13 -23.5 -19 -32.5s-10.667 -13.5 -14 -13.5c-1.33301 -1.33301 -5 -7 -11 -17l-19.5 -33.5c-7 -12.333 -12.833 -23.5 -17.5 -33.5s-6 -15.667 -4 -17z" />
    <glyph glyph-name="B" unicode="B" horiz-adv-x="521" 
d="M204 -62c-28.667 18.667 -47.165 35.666 -55.498 50.999s-3.5 28.666 14.5 39.999c4 2.66699 11 1.33398 21 -3.99902s18 -11 24 -17c13.333 -12 29.333 -19.5 48 -22.5s40.334 -1.16699 65.001 5.5c28 8.66699 51.5 20.334 70.5 35.001s37.833 33.334 56.5 56.001
c14 18 23.833 37 29.5 57s8 38.333 7 55s-4.83301 28.667 -11.5 36c-16.667 23.333 -39 39.5 -67 48.5s-62 8.16699 -102 -2.5c-4.66699 -0.666992 -11.667 -2 -21 -4l-25 -5.5c-7.33301 -1.66699 -11.333 -2.5 -12 -2.5c-4.66699 -1.33301 -8.33398 -2.5 -11.001 -3.5
s-5.83398 -5.33301 -9.50098 -13s-9.16699 -21.834 -16.5 -42.501l-33 -92c-14 -40.667 -25.333 -69.5 -34 -86.5s-16.334 -24.667 -23.001 -23s-14.667 8.83398 -24 21.501c-5.33301 9.33301 -9.5 18.833 -12.5 28.5s-1.16699 20.5 5.5 32.5c3.33301 6 6 11.5 8 16.5
s4.66699 13.833 8 26.5c3.33301 10 9.83301 27.5 19.5 52.5l34.5 88l42 104.5l42.5 102l34.5 81c9.33301 20.667 15 35.667 17 45s1.33301 14.333 -2 15c0 3.33301 -1 6.5 -3 9.5s-2.66699 5.83301 -2 8.5c0 2.66699 5 6.33398 15 11.001s20.833 9 32.5 13
s20.5 5.33301 26.5 4c3.33301 0 7.33301 0.166992 12 0.5s7 1.83301 7 4.5c2 0 8.33301 0.666992 19 2s22.334 1.33301 35.001 0c44.667 -4 80 -16.833 106 -38.5s38.667 -52.834 38 -93.501c-0.666992 -11.333 -6.16699 -26.333 -16.5 -45s-22.833 -37.5 -37.5 -56.5
s-29.334 -35.167 -44.001 -48.5l-27.5 -22.5c-9.66699 -7.66699 -18 -14 -25 -19l-10.5 -7.5l8 -3c5.33301 -2 11 -4 17 -6c30.667 -11.333 55.667 -25.666 75 -42.999s32.666 -41.333 39.999 -72c2.66699 -10 2.83398 -22.333 0.500977 -37s-5.5 -29.167 -9.5 -43.5
s-8.33301 -26.5 -13 -36.5c-4.66699 -4.66699 -8.33398 -9.5 -11.001 -14.5l-4 -7.5c0 -1.33301 -2.66699 -6.5 -8 -15.5s-11.666 -18.833 -18.999 -29.5s-14.333 -20 -21 -28l-25.5 -20c-10.333 -8 -21.5 -15.833 -33.5 -23.5s-24.333 -13.834 -37 -18.501
c-18.667 -8 -39 -13.5 -61 -16.5s-43 -3.33301 -63 -1s-36 7.16602 -48 14.499zM261.002 332.999l18.0049 3.49707c12 2.33301 25 5 39 8s24.333 5.83301 31 8.5c3.33301 2 8.16602 4.66699 14.499 8s12.833 8.33301 19.5 15c9.33301 8.66699 20.666 20.334 33.999 35.001
s26.333 30.167 39 46.5s22.667 31.833 30 46.5c15.333 24 23.666 41.667 24.999 53s-2.33398 21.333 -11.001 30c-6 7.33301 -15.5 12.333 -28.5 15s-27 3.83398 -42 3.50098s-28.167 -2.16602 -39.5 -5.49902c-8.66699 -2.66699 -15.334 -5.83398 -20.001 -9.50098
s-7 -9.16699 -7 -16.5c0 -6 -1.83301 -12 -5.5 -18s-7.16699 -10.667 -10.5 -14c-0.666992 -4.66699 -2.5 -9 -5.5 -13l-4.5 -6c0 -2.66699 -4.5 -12.667 -13.5 -30s-18.167 -38.666 -27.5 -63.999c-12 -28.667 -20.833 -51 -26.5 -67s-8.5 -25.667 -8.5 -29z" />
    <glyph glyph-name="C" unicode="C" horiz-adv-x="474" 
d="M216 -59c-10 4 -20.6719 8.66211 -32.0049 13.9951s-22 12.833 -32 22.5s-18.333 22.5 -25 38.5c-6.66699 19.333 -11.167 38.333 -13.5 57s-3.16602 40.334 -2.49902 65.001c0 34.667 2.5 64.834 7.5 90.501s12.833 51.834 23.5 78.501
c1.33301 2 3.83301 7.83301 7.5 17.5s8 20.167 13 31.5l11.5 26c5.33301 11.333 13.5 26.5 24.5 45.5s22.833 37.5 35.5 55.5c19.333 28.667 35.5 51.667 48.5 69s25.333 31.833 37 43.5s24.834 23 39.501 34s33.334 24.167 56.001 39.5c14.667 10.667 31.667 16.667 51 18
s37.833 -2.33398 55.5 -11.001s30.5 -23 38.5 -43c7.33301 -14 11 -31 11 -51s-3.33301 -41.167 -10 -63.5s-15.334 -43.333 -26.001 -63s-23 -35.834 -37 -48.501c-8.66699 -8 -17.834 -10.5 -27.501 -7.5s-19.167 8.83301 -28.5 17.5c-6 11.333 -9.16699 18 -9.5 20
s0.833984 3.33301 3.50098 4c4 4.66699 9.33301 12.667 16 24s13.334 23.5 20.001 36.5s11.334 23.5 14.001 31.5l11 58c2 10.667 0 19 -6 25c-2.66699 2.66699 -6.5 3.66699 -11.5 3s-13.167 -4 -24.5 -10c-15.333 -6.66699 -34.666 -21 -57.999 -43s-45.333 -47 -66 -75
c-26.667 -35.333 -49 -66.666 -67 -93.999s-31.667 -55.333 -41 -84c-1.33301 -2.66699 -3.5 -7.66699 -6.5 -15l-4.5 -11c0.666992 -2.66699 -0.333008 -9.16699 -3 -19.5s-5.66699 -19.166 -9 -26.499c-7.33301 -30.667 -11.666 -61.667 -12.999 -93s0.5 -59 5.5 -83
s12.5 -41 22.5 -51c8.66699 -6 20.167 -8 34.5 -6s30.833 6.66699 49.5 14s38 15.333 58 24c16 6.66699 30.667 14 44 22s23.333 15 30 21c5.33301 4 12.166 8.16699 20.499 12.5s15.5 6.5 21.5 6.5c9.33301 3.33301 15.333 3.33301 18 0s4 -9 4 -17
c0 -9.33301 -5.66699 -20 -17 -32s-25 -22.667 -41 -32c-5.33301 -5.33301 -12.5 -10.666 -21.5 -15.999s-18.167 -9.66602 -27.5 -12.999c-14 -10.667 -31.333 -21 -52 -31s-41.5 -17.667 -62.5 -23s-40.167 -6.33301 -57.5 -3z" />
    <glyph glyph-name="D" unicode="D" horiz-adv-x="581" 
d="M221 -99c-12.667 -2 -25.6699 -2.66699 -39.0029 -2s-30.333 3.66699 -51 9c-10.667 3.33301 -18.167 7.33301 -22.5 12s-11.5 13.334 -21.5 26.001c-6.66699 10.667 -11.334 21 -14.001 31s-2.5 18.333 0.5 25s8.83301 9.66699 17.5 9
c2.66699 0 6.83398 -1.83301 12.501 -5.5s11.167 -8.16699 16.5 -13.5c10.667 -9.33301 23.167 -16.5 37.5 -21.5s31.166 -6.16699 50.499 -3.5l33.5 7c13 2.66699 25.833 6 38.5 10s22.667 8.66699 30 14l83 57.5l30 21.5c1.33301 2.66699 3.83301 4.83398 7.5 6.50098
s8.16699 3.5 13.5 5.5l19.5 19l26 26c8.33301 8.66699 13.5 13.667 15.5 15c1.33301 6 2.66602 10.833 3.99902 14.5s2 7.5 2 11.5c5.33301 5.33301 12.5 16.5 21.5 33.5s18.167 36 27.5 57s16 40.167 20 57.5c8.66699 43.333 11 80.666 7 111.999
s-12.833 58.666 -26.5 81.999s-31.167 44 -52.5 62c-7.33301 6 -17.5 12.5 -30.5 19.5s-26.333 13.333 -40 19s-25.667 10.167 -36 13.5s-16.5 4.66602 -18.5 3.99902c-2.66699 -0.666992 -8 -11 -16 -31s-17.667 -45.667 -29 -77l-36 -99.5l-36 -99.5l-13 -40l-12 -36.5
c-3.33301 -10.333 -5 -17.166 -5 -20.499c-7.33301 -11.333 -13.833 -27.166 -19.5 -47.499s-11.167 -52.166 -16.5 -95.499c-6 -22.667 -10.333 -40.334 -13 -53.001s-5.33398 -18.667 -8.00098 -18l-0.5 -3.5c-0.333008 -2.33301 -1.5 -4.5 -3.5 -6.5
c0 -4 -3.16699 -6.33301 -9.5 -7s-13.666 0.833008 -21.999 4.5s-15.166 9.16699 -20.499 16.5c-2 7.33301 -3.33301 15.5 -4 24.5s1.66602 23.167 6.99902 42.5l13 47.5c5.33301 19 11.166 38.667 17.499 59l18 56c5.66699 17 9.83398 29.833 12.501 38.5
c4.66699 11.333 11.334 32.666 20.001 63.999l16.5 52c5.66699 17.333 11.167 32.833 16.5 46.5s9 22.5 11 26.5c3.33301 8.66699 8.16602 23.167 14.499 43.5s14.833 43.166 25.5 68.499l7 33l-11 5c-8 -2.66699 -14.167 -3.5 -18.5 -2.5s-7.16602 1.83301 -8.49902 2.5
c-4 -1.33301 -9.5 -0.333008 -16.5 3s-13.333 7.83301 -19 13.5s-9.16699 10.5 -10.5 14.5c-1.33301 2.66699 -2.16602 6.16699 -2.49902 10.5l-0.5 6.5c0.666992 4 6 8 16 12s22.833 7.5 38.5 10.5s32.5 5.16699 50.5 6.5s35.333 1.33301 52 0
c17.333 -1.33301 35.333 -5.16602 54 -11.499l55 -19.5c21.333 -8 44 -21.667 68 -41s46 -42.333 66 -69s33.333 -54.667 40 -84c2 -8 4 -19.333 6 -34s3.16699 -28.834 3.5 -42.501s-1.16699 -22.5 -4.5 -26.5c-1.33301 -2.66699 -2.16602 -5.83398 -2.49902 -9.50098
s0.833984 -6.16699 3.50098 -7.5c-0.666992 -2 -3 -9.5 -7 -22.5s-7.66699 -24.167 -11 -33.5c-1.33301 -17.333 -5.5 -36 -12.5 -56s-14.667 -38.833 -23 -56.5s-15.833 -32.167 -22.5 -43.5c-2.66699 0 -5.16699 -0.5 -7.5 -1.5s-2.16602 -1.83301 0.500977 -2.5
c0 -3.33301 -3.66699 -9.66602 -11 -18.999c-2.66699 -2 -6.83398 -6.83301 -12.501 -14.5s-10.167 -12.834 -13.5 -15.501c-0.666992 -4.66699 -2.66699 -8.5 -6 -11.5s-6.33301 -4.5 -9 -4.5h-1.5c-1 0 -1.5 -1.33301 -1.5 -4c-5.33301 -8 -13.833 -17.833 -25.5 -29.5
s-25 -23.667 -40 -36s-30.167 -23.666 -45.5 -33.999s-29.666 -18.166 -42.999 -23.499c-6.66699 -4.66699 -13.667 -8.5 -21 -11.5s-14.333 -6.16699 -21 -9.5c-3.33301 -2.66699 -11.5 -6 -24.5 -10s-26.667 -7.83301 -41 -11.5s-26.5 -6.5 -36.5 -8.5z" />
    <glyph glyph-name="E" unicode="E" horiz-adv-x="531" 
d="M234 -29c-20.667 1.33301 -39.668 8.00488 -57.001 20.0049l-52 36c-11.333 11.333 -20.333 23.5 -27 36.5s-12 30.167 -16 51.5c-2.66699 12.667 -2.66699 29 0 49s7 40 13 60s11.667 36 17 48c8 18.667 18.167 38.834 30.5 60.501l37 62l29.5 47.5
c4.66699 4.66699 6.83398 7.16699 6.50098 7.5l-0.5 0.5c0 3.33301 3.5 11.833 10.5 25.5l18.5 36.5c10 10.667 15.667 19.334 17 26.001s0.333008 12 -3 16c-1.33301 2.66699 1.16699 7.66699 7.5 15s15.666 15.666 27.999 24.999s26.166 18.333 41.499 27
c16 12.667 31.5 19.5 46.5 20.5s23.833 -2.16699 26.5 -9.5c0 -2 3.83301 -2.5 11.5 -1.5s16.667 2.66699 27 5s19.5 4.16602 27.5 5.49902c3.33301 4 11.166 7.16699 23.499 9.5s26.833 4.5 43.5 6.5c8.66699 -0.666992 17.5 -0.833984 26.5 -0.500977
s16.833 0.833008 23.5 1.5l10 1c4.66699 1.33301 10.667 0 18 -4s13.666 -12 18.999 -24c4.66699 -12 2.33398 -21.5 -6.99902 -28.5s-27.666 -12.167 -54.999 -15.5c-20 -2.66699 -36.833 -4.83398 -50.5 -6.50098s-27.834 -3.66699 -42.501 -6
s-33.667 -6.16602 -57 -11.499c-16.667 -3.33301 -30.5 -6.66602 -41.5 -9.99902s-20.5 -8.83301 -28.5 -16.5s-17 -19.167 -27 -34.5c-4.66699 -3.33301 -10.667 -12 -18 -26l-22 -42l-46 -64c-12 -16.667 -16.667 -26.667 -14 -30l12 -3c8 -2 13.333 -3 16 -3
c6.66699 3.33301 14.834 5.66602 24.501 6.99902s17.5 2.66602 23.5 3.99902l95.5 24.5l50 12.5c11 2.66699 19.833 4.33398 26.5 5.00098c9.33301 7.33301 18.5 8 27.5 2s16.167 -14.333 21.5 -25c3.33301 -9.33301 3.33301 -17 0 -23s-12.166 -11.5 -26.499 -16.5
s-35.166 -11 -62.499 -18l-106 -28.5c-36.667 -10.667 -67.5 -17 -92.5 -19s-36.833 3.66699 -35.5 17c-4.66699 2.66699 -9.83398 -0.333008 -15.501 -9s-11 -20.334 -16 -35.001s-9.33301 -30.334 -13 -47.001s-6 -32.167 -7 -46.5s-0.166992 -25.166 2.5 -32.499
c5.33301 -15.333 12.833 -27.833 22.5 -37.5s25.834 -17.834 48.501 -24.501c13.333 -0.666992 26.333 -1.66699 39 -3s27 1.33398 43 8.00098c39.333 6.66699 69.166 13.667 89.499 21s32.166 12.333 35.499 15c5.33301 2.66699 8.83301 4.5 10.5 5.5s4.16699 1.5 7.5 1.5
c-2 -3.33301 -1.33301 -3.33301 2 0s8.66602 8 15.999 14c9.33301 8.66699 20.333 15.5 33 20.5s23.834 8.16699 33.501 9.5s14.834 0.333008 15.501 -3c4 -6.66699 2.83301 -16.334 -3.5 -29.001s-16.833 -26.167 -31.5 -40.5s-33 -27.833 -55 -40.5
c-35.333 -18.667 -73.666 -31.834 -114.999 -39.501s-78.333 -11.834 -111 -12.501z" />
    <glyph glyph-name="F" unicode="F" horiz-adv-x="458" 
d="M514 311c-2.66699 -4 -10.4961 -7.50879 -23.4961 -10.5088s-34.167 -6.16699 -63.5 -9.5c-8.66699 -0.666992 -21.334 -1.33398 -38.001 -2.00098s-34.667 -1.33398 -54 -2.00098s-36.833 -0.833984 -52.5 -0.500977s-26.5 1.16602 -32.5 2.49902l-4.5 -5
c-3 -3.33301 -4.5 -7.66602 -4.5 -12.999c-4.66699 -8 -10.334 -20.167 -17.001 -36.5l-22.5 -54c-8.33301 -19.667 -15.833 -39.167 -22.5 -58.5l-17 -50.5c-4.66699 -14.333 -7 -24.166 -7 -29.499c-6 -16 -9.66699 -29.667 -11 -41s-3.66602 -18 -6.99902 -20
c-1.33301 -5.33301 -6.33301 -7.5 -15 -6.5s-15.667 4.5 -21 10.5c-10 6.66699 -16.333 13.5 -19 20.5s-1.66699 17.833 3 32.5c2 8.66699 5.5 21.5 10.5 38.5l17 56.5c6.33301 20.667 13 40.834 20 60.501s13.833 35.834 20.5 48.501c7.33301 12.667 12 24.167 14 34.5
s4.66699 19.833 8 28.5c-0.666992 7.33301 -0.666992 12.333 0 15s3.33398 6.66699 8.00098 12c3.33301 2.66699 7.5 7.5 12.5 14.5s10.833 17.833 17.5 32.5c2 6.66699 5.16699 15.834 9.5 27.501s8.5 23.667 12.5 36s7.66699 22.833 11 31.5s5 13.334 5 14.001
c1.33301 2.66699 3.33301 7.83398 6 15.501s4.66699 13.834 6 18.501l6.5 23c1.66699 6 1.16699 9 -1.5 9c-5.33301 -1.33301 -16 -2.33301 -32 -3c-8 -1.33301 -13.833 -2.16602 -17.5 -2.49902s-6.83398 -0.833008 -9.50098 -1.5c-6.66699 -0.666992 -12.667 0 -18 2
s-8 6 -8 12c1.33301 10.667 5.16602 20.334 11.499 29.001s14.5 13.334 24.5 14.001c4.66699 1.33301 9.83398 2.5 15.501 3.5s13.5 2.83301 23.5 5.5c12.667 2.66699 23 4.33398 31 5.00098s14 0.333984 18 -0.999023c3.33301 2 6.33301 4.16699 9 6.5s4 4.83301 4 7.5
c1.33301 6 4.33301 10.667 9 14s10 5.16602 16 5.49902s11.5 -0.833984 16.5 -3.50098s7.5 -7.33398 7.5 -14.001c1.33301 -2 3.66602 -3.66699 6.99902 -5s10.666 -1.16602 21.999 0.500977s28.333 4.83398 51 9.50098c12 1.33301 27.167 2.66602 45.5 3.99902
s32.833 0.333008 43.5 -3c11.333 2 21.5 2.83301 30.5 2.5s15.167 0.833984 18.5 3.50098c14 -2.66699 24.167 -4.5 30.5 -5.5s11.5 -3.16699 15.5 -6.5c2.66699 -2.66699 3.5 -5.16699 2.5 -7.5l-1.5 -3.5c-2.66699 1.33301 -2.5 1.33301 0.5 0s5.5 -3 7.5 -5
c4.66699 -2 7.5 -5 8.5 -9s1.33301 -8 1 -12s-0.833008 -7 -1.5 -9c-0.666992 -6 -4 -9.5 -10 -10.5s-21 -1.16699 -45 -0.5c-28.667 4 -56.334 5.5 -83.001 4.5s-58.334 -4.16699 -95.001 -9.5c-13.333 -0.666992 -25.166 -2.5 -35.499 -5.5s-16.166 -4.5 -17.499 -4.5
c-2.66699 0 -7.33398 -4.5 -14.001 -13.5s-13 -22.167 -19 -39.5c-2.66699 -4.66699 -7.16699 -15 -13.5 -31l-20.5 -52l-19.5 -49c-5.66699 -14 -9.16699 -21.667 -10.5 -23c9.33301 -2.66699 24.333 -4 45 -4s43.5 0.833008 68.5 2.5s48.167 3.5 69.5 5.5
c10 2 20.5 3.83301 31.5 5.5s18.167 1.83398 21.5 0.500977c4.66699 -1.33301 8.66699 -5.5 12 -12.5s5 -14.333 5 -22s-2 -13.5 -6 -17.5z" />
    <glyph glyph-name="G" unicode="G" horiz-adv-x="489" 
d="M167 -36c-18 12 -32.0049 29.168 -42.0049 51.501s-14.667 44.166 -14 65.499c-0.666992 41.333 2.83301 83.5 10.5 126.5s17.834 84.167 30.501 123.5c8.66699 24 18.167 48.667 28.5 74s20.833 49.166 31.5 71.499s20.334 40.5 29.001 54.5
c20.667 34.667 42.334 63 65.001 85s39.667 36.333 51 43c12 6.66699 30 12.667 54 18s48.333 5 73 -1c17.333 -4.66699 33.833 -10.667 49.5 -18s27.167 -14.666 34.5 -21.999c6 -7.33301 11.167 -14.166 15.5 -20.499s6.5 -13.5 6.5 -21.5
c0.666992 -6.66699 -2 -14.167 -8 -22.5s-13 -14.166 -21 -17.499s-15 -1.66602 -21 5.00098c-8.66699 13.333 -17.5 22.833 -26.5 28.5s-18.5 10.834 -28.5 15.501c-7.33301 4.66699 -17.333 7.16699 -30 7.5s-25.667 -1.33398 -39 -5.00098
s-25.666 -9.83398 -36.999 -18.501c-6 -5.33301 -13.833 -13.166 -23.5 -23.499s-19.334 -21.833 -29.001 -34.5s-17.834 -25.667 -24.501 -39c-18.667 -30.667 -34.834 -61.834 -48.501 -93.501s-25.5 -66.167 -35.5 -103.5c-3.33301 -11.333 -7.33301 -26.833 -12 -46.5
l-13.5 -58.5c-4.33301 -19.333 -7.16602 -35.333 -8.49902 -48c-3.33301 -30 -4 -55.333 -2 -76s10 -34.834 24 -42.501s36 -6.83398 66 2.49902c16 2.66699 32.833 9.33398 50.5 20.001s34.834 24.167 51.501 40.5s31.334 34.5 44.001 54.5c11.333 22 21.333 43 30 63
s13.334 36.167 14.001 48.5s-5.66602 18.166 -18.999 17.499c-25.333 2 -45.833 3 -61.5 3s-28.5 3.66699 -38.5 11c-6 5.33301 -8.83301 12.666 -8.5 21.999s5.16602 17.666 14.499 24.999c8.66699 4 22 6.66699 40 8s37.167 0.833008 57.5 -1.5
s37.833 -7.16602 52.5 -14.499c12.667 -6 21.5 -14.833 26.5 -26.5s7.5 -24.667 7.5 -39s-1.33301 -28.5 -4 -42.5c-4 -17.333 -11.5 -36.5 -22.5 -57.5s-24.5 -42.833 -40.5 -65.5c-10 -14 -23.667 -29.167 -41 -45.5s-35.333 -31 -54 -44s-35 -22.167 -49 -27.5
c-26.667 -12 -54.167 -20.167 -82.5 -24.5s-52.5 0.833984 -72.5 15.501z" />
    <glyph glyph-name="H" unicode="H" horiz-adv-x="567" 
d="M138 -86l-5.50195 2.50293c-3.66699 1.66699 -7.83398 3 -12.501 4s-9 1.5 -13 1.5c-10.667 2.66699 -18.334 8.5 -23.001 17.5s-5.66699 18.833 -3 29.5c2.66699 2.66699 4.66699 8.33398 6 17.001s2 15.667 2 21c2.66699 5.33301 4.33398 9.16602 5.00098 11.499
s2.33398 8.83301 5.00098 19.5c2 11.333 5.5 27.166 10.5 47.499s10.667 42.166 17 65.499l18.5 67c6 21.333 11.5 39.333 16.5 54s8.5 23 10.5 25v3.5v7.5l1.5 9.5c1 6.33301 4.16699 13.5 9.5 21.5c2.66699 7.33301 5 15.333 7 24s3 14.334 3 17.001
c2.66699 3.33301 6.5 11.5 11.5 24.5l14.5 38.5c4 10.667 8.5 22 13.5 34l13 31l5.5 13v4.5v0.5c2.66699 2.66699 9.16699 16.167 19.5 40.5s24.5 55.833 42.5 94.5c2.66699 5.33301 6.33398 12.166 11.001 20.499s7 13.833 7 16.5c5.33301 6.66699 11.666 9.5 18.999 8.5
s14.333 -4.33301 21 -10s11.667 -12.167 15 -19.5l10 -16l-36 -72c-10.667 -18.667 -19.667 -35.667 -27 -51s-11 -24.333 -11 -27l-5.5 -14.5l-13 -35.5l-13.5 -39c-7.33301 -20.667 -14.166 -37.667 -20.499 -51s-9.5 -21.333 -9.5 -24c0 1.33301 7.16699 2.33301 21.5 3
s32.5 1 54.5 1s44.5 0.166992 67.5 0.5s43.5 0.666016 61.5 0.999023s30.333 1.16602 37 2.49902l52 5l32 98c5.33301 18.667 12.333 41.334 21 68.001s16.334 49.334 23.001 68.001c10.667 30.667 20 50.5 28 59.5s16 13.5 24 13.5c2 0 5.16699 -1 9.5 -3
s8.66602 -4.5 12.999 -7.5s7.16602 -6.5 8.49902 -10.5c8 -7.33301 11.833 -15.666 11.5 -24.999s-5.83301 -21.666 -16.5 -36.999c-10.667 -18 -19.5 -37.5 -26.5 -58.5s-13.167 -38.167 -18.5 -51.5c0 -8 -1 -14.5 -3 -19.5s-4.33301 -8.83301 -7 -11.5
c-1.33301 -1.33301 -4 -6.33301 -8 -15s-7.66699 -17.334 -11 -26.001s-5 -14 -5 -16c0 -4.66699 -1 -10.334 -3 -17.001s-4.33301 -11.334 -7 -14.001c-1.33301 -4 -4.33301 -14 -9 -30l-16 -56.5c-6 -21.667 -12.333 -42.667 -19 -63s-12.667 -37.166 -18 -50.499
c0 -4.66699 -1.66699 -10.5 -5 -17.5s-5 -13.167 -5 -18.5l-10 -30c-4 -12 -6 -19.667 -6 -23l-10.5 -49c-3.66699 -17.333 -6.66699 -32.5 -9 -45.5s-3.5 -20.5 -3.5 -22.5c-7.33301 -2 -14.166 -1.33301 -20.499 2s-13.166 6.33301 -20.499 9
c-12.667 7.33301 -20.167 15.666 -22.5 24.999s0.166992 21.666 7.5 36.999c3.33301 5.33301 7.5 18.5 12.5 39.5l15.5 62.5c4 10 8.33301 23.167 13 39.5s9.16699 33 13.5 50s8.16602 31.333 11.499 43s5.66602 18.167 6.99902 19.5v7v3c-1.33301 1.33301 -9 2.5 -23 3.5
s-31.667 1.33301 -53 1s-43.666 -1 -66.999 -2s-44.666 -2.83301 -63.999 -5.5h-27h-24h-18.5h-7.5c-1.33301 -2 -3.83301 -8.83301 -7.5 -20.5l-13.5 -42.5l-16 -51c-5.33301 -17.333 -9.83301 -33.166 -13.5 -47.499s-6.16699 -24.5 -7.5 -30.5l-10.5 -45l-14 -55.5
l-13 -49.5c-3.66699 -14 -6.16699 -23 -7.5 -27z" />
    <glyph glyph-name="I" unicode="I" horiz-adv-x="403" 
d="M188 -34c-4.66699 7.33301 -14.3262 12 -28.9932 14s-33.667 2.33301 -57 1c-9.33301 -1.33301 -18.5 -0.833008 -27.5 1.5s-16.167 6 -21.5 11s-7.33301 10.167 -6 15.5c0.666992 8 8.33398 15.167 23.001 21.5s36.334 9.83301 65.001 10.5l49 1l10 20
c2.66699 7.33301 5.66699 16.833 9 28.5l12 40.5c2.66699 9.33301 6.66699 22.166 12 38.499l17 52l16 49.5c4.66699 14.667 7.66699 25 9 31c2.66699 6 6.33398 16.167 11.001 30.5s9.16699 29 13.5 44s7.16602 25.833 8.49902 32.5c17.333 52.667 28.666 90 33.999 112
s6.66602 33.333 3.99902 34c-2.66699 0 -9.16699 -0.333008 -19.5 -1s-21.5 -1.5 -33.5 -2.5s-22.833 -2.16699 -32.5 -3.5s-15.5 -2.66602 -17.5 -3.99902c-3.33301 -4.66699 -9 -5.16699 -17 -1.5s-13 8.83398 -15 15.501c-0.666992 6 -0.833984 11 -0.500977 15
s2.16602 7 5.49902 9c4.66699 4 14 8.5 28 13.5s29.667 9.5 47 13.5s33.666 7 48.999 9c11.333 1.33301 22.666 3.83301 33.999 7.5s20.333 8.16699 27 13.5c6 2 11.833 3.66699 17.5 5s11.5 1.66602 17.5 0.999023c5.33301 -3.33301 14.5 -5 27.5 -5
s26.833 0.333008 41.5 1c37.333 3.33301 62.833 3.66602 76.5 0.999023s22.834 -8.66699 27.501 -18c3.33301 -12.667 3.5 -22.667 0.5 -30s-10.167 -10.666 -21.5 -9.99902c-6 -1.33301 -16 -2.5 -30 -3.5s-29.667 -1.83301 -47 -2.5c-46 -4 -70.667 -8.66699 -74 -14
c-2.66699 -2.66699 -4.83398 -5.33398 -6.50098 -8.00098s-3.83398 -5.66699 -6.50098 -9c0.666992 -2.66699 -0.833008 -11 -4.5 -25s-8.16699 -28.333 -13.5 -43c-2.66699 -8.66699 -6.66699 -21 -12 -37l-16.5 -49.5l-15.5 -46c-4.66699 -13.667 -8 -22.834 -10 -27.501
c-2.66699 -6 -4.83398 -12.5 -6.50098 -19.5s-2.83398 -12.167 -3.50098 -15.5l-24 -82.5l-18 -59l-15 -48.5l-15 -51l16 1.5c10.667 1 24.667 2.16699 42 3.5c31.333 3.33301 53.5 5.33301 66.5 6s21.333 -0.166016 25 -2.49902s6.5 -6.5 8.5 -12.5
c13.333 -18 14.166 -31.167 2.49902 -39.5s-36.167 -12.166 -73.5 -11.499c-34.667 -1.33301 -60.834 -2.5 -78.501 -3.5s-29.5 -2.5 -35.5 -4.5s-9.66699 -5.33301 -11 -10c0.666992 -7.33301 -3.16602 -11.333 -11.499 -12s-17.166 2 -26.499 8z" />
    <glyph glyph-name="J" unicode="J" horiz-adv-x="309" 
d="M90 -189c-12.667 -6 -26.833 -8.66406 -42.5 -7.99707s-30.834 4.66699 -45.501 12s-27.334 16.666 -38.001 27.999c-4.66699 5.33301 -7.33398 12 -8.00098 20s0.333008 16.333 3 25c3.33301 12 7.66602 18 12.999 18c7.33301 0 15.666 -6.33301 24.999 -19
c18.667 -16.667 37.167 -21.334 55.5 -14.001s37.833 27 58.5 59c4 10 10.333 24.333 19 43l27.5 60l26.5 59.5c8 18.333 13.333 31.5 16 39.5l0.5 3.5c0.333008 2.33301 1.83301 4.83301 4.5 7.5c0.666992 2.66699 2.33398 8 5.00098 16s5.33398 17.333 8.00098 28l11.5 33
l16 46l14.5 40c3.33301 14 7.5 29.167 12.5 45.5s9.16699 28.833 12.5 37.5c2.66699 5.33301 6.66699 16.166 12 32.499l18 53.5l22.5 71c7 21.333 12.5 38.666 16.5 51.999s5.33301 21 4 23l-17.5 -3c-11.667 -2 -24.5 -4.33301 -38.5 -7
c-11.333 -4.66699 -22.666 -6.66699 -33.999 -6s-16.333 3.33398 -15 8.00098v5.5v1.5c-2 -1.33301 -4.66699 -0.5 -8 2.5s-6.33301 7 -9 12s-4 9.16699 -4 12.5c0 5.33301 7 10.666 21 15.999s31.333 9.33301 52 12c13.333 2 27.5 3.83301 42.5 5.5
s26.833 3.16699 35.5 4.5c2.66699 2 8 1.66699 16 -1s16.167 -5.83398 24.5 -9.50098s14.166 -7.5 17.499 -11.5c4 -5.33301 6.5 -11 7.5 -17s0.166992 -14.333 -2.5 -25s-7.5 -25.834 -14.5 -45.501l-29.5 -80.5l-39 -112.5c-11.333 -33.667 -21.666 -61.5 -30.999 -83.5
c-2 -7.33301 -5.5 -18 -10.5 -32l-14.5 -42.5c-4.66699 -14.333 -8.33398 -26.166 -11.001 -35.499c-5.33301 -12.667 -10.333 -26.334 -15 -41.001l-11 -35c0 -5.33301 -1.33301 -11.333 -4 -18s-5.66699 -11.667 -9 -15l-7 -17.5l-17 -41.5l-17.5 -44.5
c-6.33301 -16.333 -12.166 -28.833 -17.499 -37.5c-3.33301 -8 -7.33301 -15.5 -12 -22.5s-7 -11.833 -7 -14.5l-0.5 -3c-0.333008 -2 -1.83301 -3 -4.5 -3l-3 -2.5c-2 -1.66699 -3 -4.16699 -3 -7.5c-1.33301 -4 -5.16602 -9.66699 -11.499 -17
s-13.5 -15.166 -21.5 -23.499s-16.167 -15.666 -24.5 -21.999s-15.166 -11.166 -20.499 -14.499z" />
    <glyph glyph-name="K" unicode="K" horiz-adv-x="501" 
d="M100 -40c-8.66699 5.33301 -14.5 10.8301 -17.5 16.4971s-2.5 15.5 1.5 29.5c-0.666992 8.66699 -0.166992 16.667 1.5 24s2.83398 12.333 3.50098 15c3.33301 0 5.33301 2 6 6s1 7.33301 1 10c0 5.33301 2.16699 14.333 6.5 27s8.16602 25.667 11.499 39l15.5 37
c5 12 7.5 19.333 7.5 22c0 5.33301 1.33301 10.833 4 16.5s5.66699 11.167 9 16.5c3.33301 8 5.83301 16.833 7.5 26.5s2.5 17.167 2.5 22.5l13 28c4.66699 10 8.33398 20.333 11.001 31l18 50l25 67c6 12.667 11.833 25.834 17.5 39.501s10.834 25.5 15.501 35.5
s8 15 10 15v3.5v7.5c0 3.33301 2.66699 9.83301 8 19.5s10.333 19.834 15 30.501c6.66699 10 11.334 19.5 14.001 28.5l4 13.5l4 6c2.66699 4 5.33398 7.33301 8.00098 10c11.333 7.33301 21.666 10.5 30.999 9.5s16.333 -7.83301 21 -20.5
c5.33301 -12 7.66602 -21.333 6.99902 -28s-3.33398 -14 -8.00098 -22l-21 -45.5l-27.5 -58.5l-27 -59.5c-8.33301 -19 -15 -35.333 -20 -49s-7.5 -22.167 -7.5 -25.5l-41 -102c-0.666992 -2 -2.83398 -8 -6.50098 -18s-8 -23 -13 -39l-17 -54.5l-21.5 -66.5l-24 -75.5
c-6 -18.333 -11 -31.166 -15 -38.499s-8.33301 -11 -13 -11c-2.66699 0 -5.5 1 -8.5 3zM453 -45.0029c-6 -0.666992 -14.165 2.16602 -24.498 8.49902s-21.333 14.166 -33 23.499s-22.667 19 -33 29s-18.5 18.667 -24.5 26c-10.667 15.333 -24 35.666 -40 60.999
s-28 52.333 -36 81c-4.66699 21.333 -9.33398 38.333 -14.001 51s-7.66699 23.334 -9 32.001l1 67l59 -9c3.33301 -36 8.5 -65.833 15.5 -89.5s15.5 -44.5 25.5 -62.5c8 -17.333 17 -34.5 27 -51.5s20.667 -31.167 32 -42.5c15.333 -16.667 29 -29 41 -37s21 -12 27 -12
c6.66699 -2.66699 13 -6.16699 19 -10.5s11.333 -8.66602 16 -12.999s7 -8.16602 7 -11.499c0.666992 -2 0.833984 -5.66699 0.500977 -11s-1.33301 -10.333 -3 -15s-3.83398 -8 -6.50098 -10c-2.66699 -4.66699 -6.83398 -8.5 -12.501 -11.5s-17.167 -0.5 -34.5 7.5z
M227.002 329.997l73.001 52.9971c2 2 8.66699 8.33301 20 19s31.333 26.667 60 48l126 102c16.667 8.66699 33.167 19.167 49.5 31.5s29.166 21.5 38.499 27.5l31.5 22.5c9.66699 7 15.834 10.167 18.501 9.5c5.33301 2.66699 11.166 1.33398 17.499 -3.99902
s11.5 -12.166 15.5 -20.499s5.66699 -15.166 5 -20.499c1.33301 -6.66699 0.166016 -12.334 -3.50098 -17.001s-12.834 -11 -27.501 -19c-14 -6.66699 -25.833 -13.167 -35.5 -19.5s-15.5 -11.166 -17.5 -14.499l-19.5 -15c-13 -10 -29.167 -21.667 -48.5 -35
c-26.667 -18 -49.167 -34.333 -67.5 -49s-30.166 -26 -35.499 -34c-2.66699 0 -5.16699 -1 -7.5 -3s-4.83301 -2.66699 -7.5 -2l-7.5 -5c-5 -3.33301 -8.83301 -7 -11.5 -11c-1.33301 -3.33301 -4.16602 -7.83301 -8.49902 -13.5s-9.83301 -8.16699 -16.5 -7.5
c-4.66699 -2.66699 -13 -8.16699 -25 -16.5s-24.5 -17.5 -37.5 -27.5s-24.167 -19 -33.5 -27s-14.333 -12.667 -15 -14z" />
    <glyph glyph-name="L" unicode="L" horiz-adv-x="426" 
d="M209 -46c-26.667 6.66699 -49.6689 20.1709 -69.002 40.5039s-32.666 42.5 -39.999 66.5c-0.666992 8.66699 -1.33398 20.334 -2.00098 35.001s-0.666992 28.167 0 40.5s1.66699 19.5 3 21.5c2 1.33301 3 5.33301 3 12c-0.666992 2.66699 -0.166992 7.16699 1.5 13.5
s3.5 12.833 5.5 19.5c3.33301 8 5 14.5 5 19.5s-0.333008 8.83301 -1 11.5l3 6.5c2 4.33301 4.33301 7.83301 7 10.5c4 4 5.83301 8 5.5 12l-0.5 6c-0.666992 2.66699 0 6.33398 2 11.001s4 8.33398 6 11.001c1.33301 1.33301 3.16602 4.16602 5.49902 8.49902l3.5 6.5
c0 2 1.5 7.33301 4.5 16s6.5 18.167 10.5 28.5l11.5 28.5c3.66699 8.66699 6.5 14.334 8.5 17.001v2c2.66699 6.66699 6.33398 13.667 11.001 21c0.666992 3.33301 2.33398 8.83301 5.00098 16.5s5.66699 15.167 9 22.5c7.33301 16 16.5 34.167 27.5 54.5
s22.833 40.666 35.5 60.999s24.834 38.666 36.501 54.999s21.834 28.5 30.501 36.5c11.333 12.667 21.166 20.167 29.499 22.5s17.5 -1.5 27.5 -11.5c4.66699 -4.66699 8.33398 -10.667 11.001 -18s3.83398 -14 3.50098 -20s-2.5 -9.33301 -6.5 -10
c-4.66699 -2.66699 -11.334 -10.167 -20.001 -22.5l-29.5 -43.5l-32.5 -51.5l-28 -47.5c-8.66699 -19.333 -16.667 -36.166 -24 -50.499l-11 -21.5c-0.666992 -2 -1.33398 -3.66699 -2.00098 -5l-2 -4c-10 -20.667 -18.333 -39.5 -25 -56.5l-20 -53.5
c-4 -4.66699 -6.33301 -9.33398 -7 -14.001l-1 -7c-1.33301 0.666992 -2.33301 -0.833008 -3 -4.5s-2 -7.83398 -4 -12.501c-3.33301 -2.66699 -5.33301 -6.83398 -6 -12.501s-1 -11.167 -1 -16.5c-4.66699 -12 -9 -26.5 -13 -43.5s-6.83301 -33.333 -8.5 -49
s-2.16699 -27.834 -1.5 -36.501c1.33301 -11.333 6.33301 -21.333 15 -30s19.334 -15.667 32.001 -21l19.5 -7c5.66699 -2 10.834 -3 15.501 -3c5.33301 -0.666992 12.166 -0.5 20.499 0.5s19.833 2.83301 34.5 5.5h-1c8.66699 1.33301 17.834 3.16602 27.501 5.49902
l27.5 6.5c8 1.33301 15.667 2.83301 23 4.5s13 3.16699 17 4.5l33 9c7.33301 2 12.666 1.66699 15.999 -1s6.16602 -6.5 8.49902 -11.5s2.5 -10.5 0.5 -16.5c-1.33301 -3.33301 -7.16602 -8.83301 -17.499 -16.5s-22.333 -15.167 -36 -22.5s-26.834 -13 -39.501 -17
c-13.333 -6 -29.833 -10.5 -49.5 -13.5s-38.667 -4.33301 -57 -4s-32.833 2.16602 -43.5 5.49902z" />
    <glyph glyph-name="M" unicode="M" horiz-adv-x="723" 
d="M666 -48c-1.33301 -3.33301 -6.00293 -4.32812 -14.0029 -2.99512s-15 6 -21 14c-4.66699 12 -7.16699 23.5 -7.5 34.5s-0.166016 27.167 0.500977 48.5c4 23.333 9.83301 53.833 17.5 91.5l27 127l33.5 146.5c7.33301 26 13.166 49 17.499 69
s7.66602 36.167 9.99902 48.5l3.5 18.5c0 0.666992 -1.33301 -0.5 -4 -3.5s-5.33398 -6.16699 -8.00098 -9.5s-3.66699 -6.33301 -3 -9l-6 -9l-17 -26c-6 -6.66699 -13 -18.5 -21 -35.5s-17.667 -34.167 -29 -51.5l-34.5 -66c-12.333 -24 -23.166 -43.667 -32.499 -59
c-5.33301 -8 -10.666 -16.667 -15.999 -26s-8.66602 -15.666 -9.99902 -18.999c-2.66699 -7.33301 -7.16699 -16.333 -13.5 -27s-13.5 -21 -21.5 -31c-4 -6 -8.5 -12.333 -13.5 -19s-9 -12.5 -12 -17.5l-4.5 -7.5c-0.666992 -2.66699 -4.33398 -8.83398 -11.001 -18.501
s-14.667 -20.167 -24 -31.5s-18.333 -21.333 -27 -30c-23.333 -22.667 -42.166 -36.334 -56.499 -41.001s-30.5 1 -48.5 17c-8.66699 10.667 -15.334 22.5 -20.001 35.5s-6.66699 29.5 -6 49.5s3.33398 46 8.00098 78l14 70l13.5 68.5
c4.33301 21.667 8.33301 40.167 12 55.5s6.5 25.666 8.5 30.999c1.33301 14.667 1.16602 22.667 -0.500977 24s-5.5 -2.66699 -11.5 -12c-3.33301 -5.33301 -10.833 -18 -22.5 -38l-40.5 -72.5c-15.333 -28.333 -30.333 -58.166 -45 -89.499l-68 -126l-43 -79.5l-24 -44
c-5.33301 -9.66699 -9.16602 -16.334 -11.499 -20.001s-4.16602 -6.16699 -5.49902 -7.5c-7.33301 0 -14.333 3.16699 -21 9.5s-13 13.833 -19 22.5c-2 5.33301 -3 10.666 -3 15.999s1.83301 12.5 5.5 21.5l15.5 37.5c8.66699 17.333 16.834 32.333 24.501 45
s13.167 20.334 16.5 23.001c3.33301 5.33301 6.16602 10.666 8.49902 15.999s3.83301 11.333 4.5 18c3.33301 4 8.5 12.167 15.5 24.5s14.167 25.833 21.5 40.5l21 35l28 48c10 17.333 18.667 33.666 26 48.999l75 131c20 34.667 35 57 45 67
c3.33301 3.33301 6.83301 8.5 10.5 15.5s6.16699 12.833 7.5 17.5c2.66699 16 7.5 29.833 14.5 41.5s13.833 17.167 20.5 16.5c6 0 12.167 -1.16699 18.5 -3.5s12.833 -7.16602 19.5 -14.499c6 -8 11.5 -17 16.5 -27s5.16699 -27 0.5 -51c0 -10 -1.16699 -21.333 -3.5 -34
l-6.5 -36c-2 -11.333 -3.66699 -20.333 -5 -27c-7.33301 -27.333 -14.5 -56.333 -21.5 -87s-13.5 -60.834 -19.5 -90.501s-10.833 -56.667 -14.5 -81s-6 -44.5 -7 -60.5s-0.166992 -25.333 2.5 -28c3.33301 -2 6.83301 -2 10.5 0s8.5 8.66699 14.5 20
c4 7.33301 9.33301 15.666 16 24.999l21 28l28 44.5l43 70l62 104.5l85 147l43.5 69c13.667 22.667 25.167 38.334 34.5 47.001c10 9.33301 20.833 12 32.5 8s22.167 -12.667 31.5 -26s14.333 -30 15 -50c0.666992 -9.33301 -0.666016 -24.833 -3.99902 -46.5
s-8.33301 -46.167 -15 -73.5s-14.667 -55 -24 -83c-2 -11.333 -5.16699 -25.833 -9.5 -43.5s-9.16602 -35.667 -14.499 -54s-10.666 -35.5 -15.999 -51.5c-3.33301 -22 -7 -42.333 -11 -61s-5.66699 -33.334 -5 -44.001c-6 -10.667 -10 -26 -12 -46s-3 -40.667 -3 -62
c-2.66699 -26 -5.83398 -44.333 -9.50098 -55s-6.83398 -15.667 -9.50098 -15c-8 2.66699 -12.333 1 -13 -5z" />
    <glyph glyph-name="N" unicode="N" horiz-adv-x="606" 
d="M101 -70c-8.66699 7.33301 -14.4961 14.3369 -17.4961 21.0039s-3.66699 14.334 -2 23.001s4.16699 19.334 7.5 32.001c5.33301 21.333 11.166 39.166 17.499 53.499l19 45c6.33301 15.667 11.833 35.834 16.5 60.501c10.667 24.667 20.167 48 28.5 70s14.833 40 19.5 54
l7 21c0.666992 2.66699 3.5 9.66699 8.5 21s11.667 25.166 20 41.499s16.166 32.833 23.499 49.5l29 82.5c8 23 16.167 43.667 24.5 62s18.5 36.5 30.5 54.5c8 14 18 22.833 30 26.5s23.333 3 34 -2s18 -14.167 22 -27.5c3.33301 -6.66699 6.16602 -14.5 8.49902 -23.5
s4.66602 -22.167 6.99902 -39.5s3.83301 -42 4.5 -74c1.33301 -38 1.83301 -74.667 1.5 -110s0.166992 -67.833 1.5 -97.5s5 -55.5 11 -77.5l7.5 -43.5c3 -17 6.33301 -33.833 10 -50.5s7.5 -30.667 11.5 -42s7.33301 -17 10 -17c3.33301 0 7.5 3.83301 12.5 11.5
s11.833 22.167 20.5 43.5s19 52.333 31 93s26 93.667 42 159c3.33301 11.333 7.83301 29.666 13.5 54.999s9.83398 51 12.501 77c4.66699 16.667 9.33398 35 14.001 55l12.5 53c3.66699 15.333 5.5 24 5.5 26c0 4.66699 0.166992 8.66699 0.5 12
s0.166016 6.66602 -0.500977 9.99902c3.33301 0 6.33301 4.5 9 13.5s4 16.833 4 23.5c0 11.333 1.5 20.5 4.5 27.5s6.16699 12.167 9.5 15.5c4 8 10.667 12 20 12s18.333 -2.5 27 -7.5s14 -11.5 16 -19.5c1.33301 -7.33301 -0.5 -23.833 -5.5 -49.5
s-12.5 -60.167 -22.5 -103.5c0 -7.33301 -2 -19.333 -6 -36l-12.5 -53c-4.33301 -18.667 -7.5 -34.667 -9.5 -48c-2.66699 -17.333 -5.66699 -33.5 -9 -48.5s-6.66602 -22.167 -9.99902 -21.5c-17.333 -75.333 -35.5 -139.5 -54.5 -192.5s-35.833 -96.167 -50.5 -129.5
c-16 -36.667 -34.5 -59.334 -55.5 -68.001s-42.167 0.666016 -63.5 27.999c-12.667 17.333 -23 34.5 -31 51.5s-14.333 37 -19 60s-10 51.5 -16 85.5c-8 27.333 -12.833 54.833 -14.5 82.5s-1.83398 56.167 -0.500977 85.5l4 92c-0.666992 34 -2.16699 55.667 -4.5 65
s-6.5 7.83301 -12.5 -4.5s-14.667 -34.5 -26 -66.5c-4.66699 -12.667 -10.667 -27.834 -18 -45.501l-21.5 -52.5l-18.5 -45l-10 -24c-4 -8 -8.66699 -18.5 -14 -31.5s-9.66602 -26.833 -12.999 -41.5c-24 -62.667 -41.833 -114 -53.5 -154s-20.167 -67.333 -25.5 -82
c-6.66699 -18.667 -13.334 -30.667 -20.001 -36s-17.334 -2 -32.001 10z" />
    <glyph glyph-name="O" unicode="O" horiz-adv-x="499" 
d="M179 -25c-24.667 18.667 -41.6641 34 -50.9971 46s-14.666 25.333 -15.999 40c-1.33301 12 -1.16602 28.333 0.500977 49s3.83398 41 6.50098 61s5 35 7 45c3.33301 3.33301 4.83301 7.83301 4.5 13.5l-0.5 8.5c-0.666992 3.33301 1.66602 12.166 6.99902 26.499
s10.333 32.833 15 55.5c13.333 40 26.166 73.5 38.499 100.5s24.5 50.167 36.5 69.5s24 37 36 53c27.333 28 50.666 49.5 69.999 64.5s39.333 27.167 60 36.5c13.333 8 25.666 14.333 36.999 19s20.666 5.33398 27.999 2.00098c37.333 -8 66.5 -23.5 87.5 -46.5
s35.833 -57.833 44.5 -104.5c4.66699 -29.333 7.5 -55.833 8.5 -79.5s-0.833008 -47 -5.5 -70s-13.167 -48.167 -25.5 -75.5s-29.5 -59.333 -51.5 -96c-24.667 -48.667 -52 -90.334 -82 -125.001s-60.5 -61.667 -91.5 -81s-60.833 -30.166 -89.5 -32.499
s-53.334 4.5 -74.001 20.5zM248.003 16c15.333 2 29.3311 6.16797 41.998 12.501s25.834 16.166 39.501 29.499s30.167 31 49.5 53l43 50.5c11.333 13.667 21 27.667 29 42s15.5 31.5 22.5 51.5s15.167 46 24.5 78c5.33301 20 9.33301 36.167 12 48.5
s4.33398 23.5 5.00098 33.5s0.833984 22 0.500977 36s-0.5 33 -0.5 57c-0.666992 11.333 -3 23.5 -7 36.5s-8.66699 22.5 -14 28.5c-6.66699 7.33301 -16.167 12.833 -28.5 16.5s-25.833 2.16699 -40.5 -4.5c-8 -3.33301 -18.333 -10.5 -31 -21.5s-25.667 -24 -39 -39
s-26 -30.167 -38 -45.5s-21.667 -29 -29 -41s-11 -20.333 -11 -25l-0.5 -5c-0.333008 -3.33301 -1.83301 -6.66602 -4.5 -9.99902c-8.66699 -9.33301 -18 -25.5 -28 -48.5s-19.5 -49.167 -28.5 -78.5s-16.5 -58.5 -22.5 -87.5s-9.66699 -54.5 -11 -76.5
c-0.666992 -15.333 -1 -26.5 -1 -33.5s1.16699 -12.667 3.5 -17s6.16602 -10.833 11.499 -19.5c4 -6.66699 11.167 -12.334 21.5 -17.001s20.5 -6 30.5 -4z" />
    <glyph glyph-name="P" unicode="P" horiz-adv-x="465" 
d="M112 -51c-8 0 -14.6621 4.33008 -19.9951 12.9971c-4 4 -7.16699 9.83301 -9.5 17.5s-1.5 20.834 2.5 39.501s12.333 47 25 85c6.66699 25.333 12 43.833 16 55.5s6 20.167 6 25.5c0 7.33301 0.833008 13.5 2.5 18.5s2.5 9.83301 2.5 14.5c4 0 8 3.66699 12 11
s7.33301 17.333 10 30c2.66699 11.333 5.16699 20.5 7.5 27.5s3.5 11.833 3.5 14.5c3.33301 5.33301 6.83301 13.666 10.5 24.999s9.5 25 17.5 41c5.33301 20 11.333 40.833 18 62.5s13.5 42 20.5 61s12.833 33.833 17.5 44.5c7.33301 20.667 13 35.167 17 43.5
s4 13.833 0 16.5c-4.66699 3.33301 -6 10 -4 20s9 20 21 30c7.33301 8.66699 14.666 14.834 21.999 18.501s16.166 5.5 26.499 5.5s23.5 -0.666992 39.5 -2c12 -0.666992 24.833 -1 38.5 -1h25.5c6 -2.66699 13.333 -5.66699 22 -9l23.5 -9c7 -2.66699 10.5 -5 10.5 -7
c0 -4 1.5 -6.5 4.5 -7.5s6.16699 -1.83301 9.5 -2.5c4.66699 0 11.5 -3.66699 20.5 -11s18.167 -16.5 27.5 -27.5s16.333 -22.167 21 -33.5c5.33301 -11.333 9.66602 -22 12.999 -32s3.33301 -24.333 0 -43c-0.666992 -10 -2.16699 -20 -4.5 -30s-4.83301 -16.667 -7.5 -20
c-4 -2.66699 -7.66699 -6 -11 -10s-5 -7.66699 -5 -11c0 -2.66699 -2.5 -8.16699 -7.5 -16.5s-11.167 -18 -18.5 -29s-15.5 -22 -24.5 -33s-17.5 -20.167 -25.5 -27.5c-8.66699 -10.667 -18.834 -20.667 -30.501 -30s-22.167 -17 -31.5 -23
c-17.333 -8 -36.666 -15.833 -57.999 -23.5s-41.833 -14 -61.5 -19s-35.834 -7.16699 -48.501 -6.5c-19.333 -2.66699 -31.833 -5.16699 -37.5 -7.5s-9.83398 -8.16602 -12.501 -17.499c-3.33301 -8.66699 -6.5 -17.667 -9.5 -27s-4.5 -15.666 -4.5 -18.999
c-1.33301 -2.66699 -4.5 -10.5 -9.5 -23.5s-10.333 -28.167 -16 -45.5s-11 -34.5 -16 -51.5s-8.83301 -31.167 -11.5 -42.5c-2.66699 -9.33301 -6.66699 -15.333 -12 -18s-11 -4 -17 -4zM242.005 266.997c2.66699 -2.66699 12.333 -3.00098 29 -1.00098s35.334 7 56.001 15
c13.333 4.66699 26.833 10.334 40.5 17.001s26.834 14 39.501 22c6.66699 4.66699 15.667 12.167 27 22.5s23.666 23.833 36.999 40.5c2 3.33301 5.5 9.83301 10.5 19.5s9.5 18.834 13.5 27.501c6 9.33301 12 23.166 18 41.499s7.33301 33.5 4 45.5
c-3.33301 17.333 -11.333 33 -24 47s-28 23.667 -46 29c-14.667 2.66699 -26.834 4 -36.501 4s-20.167 -1 -31.5 -3c-10.667 -3.33301 -18.334 -8 -23.001 -14s-11 -18.667 -19 -38l-20 -41c-8.66699 -18 -16 -35.333 -22 -52c-12 -44 -23.333 -79.333 -34 -106
s-17.334 -43.667 -20.001 -51c0.666992 -7.33301 0.333984 -12.5 -0.999023 -15.5s-0.666016 -6.16699 2.00098 -9.5z" />
    <glyph glyph-name="Q" unicode="Q" horiz-adv-x="499" 
d="M232 -76c-10 2 -21.3291 6.5 -33.9961 13.5s-24.5 15.333 -35.5 25s-18.833 19.167 -23.5 28.5c-16.667 34 -25.834 70.167 -27.501 108.5s3.16602 84.833 14.499 139.5l13.5 46c5.66699 19.333 11.834 38.666 18.501 57.999s12.667 35.666 18 48.999
s8.66602 20 9.99902 20c2 2 3 7.66699 3 17c0 3.33301 2.83301 10.5 8.5 21.5s13 23.5 22 37.5s18.333 27.5 28 40.5s18.834 23.167 27.501 30.5c13.333 17.333 28.5 33 45.5 47s33.833 25.333 50.5 34c4 2.66699 10.333 5.66699 19 9s18 6.33301 28 9
s18.667 4.33398 26 5.00098c33.333 2 59.166 -2.5 77.499 -13.5s33.833 -29.5 46.5 -55.5c13.333 -14.667 20.666 -29 21.999 -43s3.33301 -30.667 6 -50c0 -18 -1.83301 -39.167 -5.5 -63.5s-8.5 -48.333 -14.5 -72s-12.667 -43.334 -20 -59.001s-14.333 -23.5 -21 -23.5
l-3 -0.5c-2 -0.333008 -3 -2.16602 -3 -5.49902c1.33301 -4.66699 0 -15.167 -4 -31.5s-11 -34.166 -21 -53.499c-21.333 -60 -46.833 -110.667 -76.5 -152s-61.334 -72 -95.001 -92s-67.167 -28 -100.5 -24zM438.004 -126c-10.667 -0.666992 -21.833 2.66602 -33.5 9.99902
s-18.834 15.333 -21.501 24c-4.66699 4 -7 7.83301 -7 11.5s-0.666992 6.16699 -2 7.5c-2.66699 1.33301 -6.33398 4.83301 -11.001 10.5s-8 12.167 -10 19.5l-20.5 40.5l-28.5 55l-26.5 50c-7.66699 14.333 -12.167 22.5 -13.5 24.5
c-5.33301 5.33301 -4.66602 12 2.00098 20c3.33301 8 8.16602 13.667 14.499 17s15.833 3.33301 28.5 0c15.333 0 29.333 -16 42 -48c0.666992 -3.33301 3.66699 -11.333 9 -24s11.333 -25.167 18 -37.5s12 -20.166 16 -23.499l11 -25c4 -9.33301 8.33301 -17 13 -23
c2 -7.33301 6.33301 -15.333 13 -24s11.334 -17.667 14.001 -27c15.333 -24 22.333 -39.833 21 -47.5s-10.666 -11.167 -27.999 -10.5zM243.005 -9c28 4 55.165 19.665 81.498 46.998s51.5 63.833 75.5 109.5s46 96.834 66 153.501c6 16.667 13.5 35 22.5 55
s16.833 42.333 23.5 67s10 50.667 10 78c4 29.333 3 50.5 -3 63.5s-17 23.167 -33 30.5c-21.333 8 -44.5 6.66699 -69.5 -4s-49.5 -30.167 -73.5 -58.5s-45.667 -65.833 -65 -112.5c-27.333 -58 -48.666 -109.5 -63.999 -154.5s-25.166 -85.333 -29.499 -121
s-3.16602 -68.5 3.50098 -98.5c1.33301 -20.667 6.66602 -36.167 15.999 -46.5s22.333 -13.166 39 -8.49902z" />
    <glyph glyph-name="R" unicode="R" horiz-adv-x="539" 
d="M147 -60c-2.66699 -6.66699 -9.00195 -10.1641 -19.002 -10.4971s-20.667 3.83398 -32 12.501c-8 8 -13.167 14.167 -15.5 18.5s-1.16602 11.666 3.50098 21.999l24 54.5c2.66699 16 7.33398 32.167 14.001 48.5s11.667 27.833 15 34.5
c2.66699 9.33301 8.16699 24.833 16.5 46.5l29 72.5l31.5 75.5c10 23.667 17.333 41.5 22 53.5l35 84c12 29.333 28.333 66.333 49 111c2.66699 6.66699 3.33398 13.667 2.00098 21s-7.66602 11 -18.999 11c-6.66699 7.33301 -10.334 14.833 -11.001 22.5
s2.66602 13.167 9.99902 16.5l66 25c31.333 7.33301 63.5 9.5 96.5 6.5s64.167 -12.167 93.5 -27.5c32 -18.667 54.833 -38.167 68.5 -58.5s20.834 -40.833 21.501 -61.5s-2.66602 -40.334 -9.99902 -59.001c-5.33301 -14 -15.5 -29.333 -30.5 -46
s-32.333 -33.334 -52 -50.001s-40 -31.834 -61 -45.501s-40.5 -24.167 -58.5 -31.5c-16.667 -8 -34.334 -15.333 -53.001 -22s-37.667 -13 -57 -19c-10.667 -2.66699 -23.334 -4 -38.001 -4s-25.667 1.33301 -33 4l-17 -42c-6.66699 -24 -18.167 -59.667 -34.5 -107z
M543.998 -73.9971c-5.33301 -2 -12.5 -2.66602 -21.5 -1.99902s-21.167 6 -36.5 16c-29.333 17.333 -58.666 38.333 -87.999 63s-62.333 58 -99 100c-14 16.667 -25.333 32.5 -34 47.5s-18.334 35.167 -29.001 60.5l-14 54l31 18l38 -36
c10.667 -23.333 24.167 -45.666 40.5 -66.999s31.833 -40.333 46.5 -57c12 -14 28.333 -30.833 49 -50.5s42.667 -38.5 66 -56.5s44.333 -31.667 63 -41c4 -3.33301 5.16699 -8.83301 3.5 -16.5s-4 -14.834 -7 -21.501s-5.83301 -10.334 -8.5 -11.001zM287.998 305.004
c15.333 1.33301 32.8281 5.33203 52.4951 11.999s39.834 14.334 60.501 23.001c19.333 9.33301 39.5 20.166 60.5 32.499s40.333 26 58 41s31.834 30.833 42.501 47.5s15.334 33.667 14.001 51c0 8.66699 -3.16699 17.834 -9.5 27.501s-14 18.5 -23 26.5
s-17.833 13.333 -26.5 16c-26.667 6.66699 -48 10.834 -64 12.501s-28.167 0.166992 -36.5 -4.5s-14.166 -13.667 -17.499 -27c0 -2 -2.66699 -8.5 -8 -19.5l-19.5 -41.5c-7.66699 -16.667 -15.167 -34.334 -22.5 -53.001l-43.5 -88.5
c-9.66699 -19.667 -15.667 -33.167 -18 -40.5s-2.16602 -12.333 0.500977 -15z" />
    <glyph glyph-name="S" unicode="S" horiz-adv-x="489" 
d="M258 -55c-12 3.33301 -21.6631 6.17578 -28.9961 8.50879l-11 3.5c1.33301 3.33301 0.833008 6.33301 -1.5 9s-7.16602 4.33398 -14.499 5.00098c-10 6 -19.5 14 -28.5 24s-16.667 20 -23 30s-10.833 18 -13.5 24c-4.66699 10 -6 16.167 -4 18.5
s6.66699 5.16602 14 8.49902c7.33301 5.33301 13.666 7.83301 18.999 7.5s10.666 -6.16602 15.999 -17.499c8.66699 -15.333 23 -27.5 43 -36.5s42.667 -13.5 68 -13.5s50 5.33301 74 16c22 9.33301 35.333 19.833 40 31.5s1.33398 26.167 -9.99902 43.5
c-2 5.33301 -4.5 9.66602 -7.5 12.999s-7.5 7.66602 -13.5 12.999l-28 26l-27.5 13l-26.5 13c-10.667 5.33301 -23.334 13 -38.001 23s-28.334 21.167 -41.001 33.5s-22 23.833 -28 34.5c-10.667 10 -18.167 23.833 -22.5 41.5s-5.5 36.5 -3.5 56.5s7.33301 38 16 54
c4 9.33301 11 21 21 35s21.333 28.333 34 43s24.834 28 36.501 40s21.167 20.333 28.5 25l17 16.5l9 8.5c0.666992 3.33301 1.83398 5 3.50098 5h2.5c3.33301 2 10.666 5.33301 21.999 10s23.666 13.334 36.999 26.001c44.667 21.333 81.5 36.666 110.5 45.999
s52.5 14 70.5 14v0v0c16.667 -0.666992 32.167 -4.83398 46.5 -12.501s26.5 -17.334 36.5 -29.001s16 -25.5 18 -41.5c4.66699 -16 3 -34.667 -5 -56s-19.333 -41.5 -34 -60.5s-30.334 -33.167 -47.001 -42.5c-18.667 -8 -32.334 -10.667 -41.001 -8
s-12.667 10.334 -12 23.001c0 5.33301 1.83301 11.666 5.5 18.999s13.834 20.333 30.501 39c21.333 31.333 33.833 55.5 37.5 72.5s-1.16602 26.5 -14.499 28.5c-4 1.33301 -11.333 1.16602 -22 -0.500977s-22.334 -3.66699 -35.001 -6s-23.5 -4.83301 -32.5 -7.5
s-13.5 -4.66699 -13.5 -6v-3c0 -2 -1.33301 -2.66699 -4 -2c-1.33301 0 -6.5 -2.5 -15.5 -7.5s-20 -11.5 -33 -19.5l-38.5 -24.5l-32.5 -21.5c-9 -6 -13.833 -9.66699 -14.5 -11c-1.33301 -7.33301 -9 -14 -23 -20c-13.333 -8 -25.333 -19.5 -36 -34.5
s-22.667 -33.833 -36 -56.5c-11.333 -15.333 -19.333 -31.833 -24 -49.5s-4.66699 -31.834 0 -42.501c3.33301 -10.667 13.333 -23.334 30 -38.001s38 -29.667 64 -45c22.667 -12.667 43.334 -25.334 62.001 -38.001s34.167 -25 46.5 -37s20.5 -22.333 24.5 -31
c8 -11.333 13.5 -23.333 16.5 -36s4.33301 -24.834 4 -36.501s-1.83301 -21.834 -4.5 -30.501c-4.66699 -10.667 -12.5 -21.834 -23.5 -33.501s-20.5 -17.167 -28.5 -16.5c-7.33301 -2 -12.833 -4.33301 -16.5 -7s-7.83398 -5 -12.501 -7
c-4.66699 -2.66699 -14.834 -5.5 -30.501 -8.5s-33 -5.16699 -52 -6.5s-36.167 -1.66602 -51.5 -0.999023z" />
    <glyph glyph-name="T" unicode="T" horiz-adv-x="458" 
d="M218 -47c-7.33301 0 -14.6709 4.83301 -22.0039 14.5s-10.666 18.5 -9.99902 26.5c0.666992 10.667 3.66699 26 9 46s11.333 40.333 18 61s12.667 37 18 49c2.66699 10.667 5.16699 20.167 7.5 28.5s3.83301 13.833 4.5 16.5c2 2.66699 5.16699 9.66699 9.5 21
s7.83301 22.333 10.5 33c1.33301 5.33301 4.16602 15.5 8.49902 30.5s9.66602 32.5 15.999 52.5l19 59l16.5 51c4.66699 14.667 7.66699 24.334 9 29.001c5.33301 8 9.33301 15.667 12 23s4.33398 12.333 5.00098 15c4 2.66699 6.33301 6.16699 7 10.5s1 7.83301 1 10.5
c0 3.33301 1.16699 6 3.5 8s3.5 4.33301 3.5 7c2.66699 2 4.33398 4.16699 5.00098 6.5s2.66699 5.16602 6 8.49902l5 23l69 1c-1.33301 -8 -3.33301 -17.833 -6 -29.5s-9 -27.167 -19 -46.5c-3.33301 -13.333 -7.16602 -25.333 -11.499 -36s-6.16602 -17.667 -5.49902 -21
c-1.33301 -1.33301 -4.16602 -8 -8.49902 -20s-9.33301 -26.667 -15 -44l-17 -52l-15 -45.5c-4.33301 -13 -7.16602 -21.167 -8.49902 -24.5c-5.33301 -10.667 -11.333 -26.334 -18 -47.001s-16.667 -48.667 -30 -84c-5.33301 -10.667 -11.833 -26.667 -19.5 -48
s-13.834 -40.666 -18.501 -57.999c-7.33301 -26 -12.833 -44.333 -16.5 -55s-7 -16.667 -10 -18s-7.16699 -2 -12.5 -2zM225.995 546c-21.333 -1.33301 -36.6699 0.5 -46.0029 5.5s-12.666 12.833 -9.99902 23.5c2 8 6.5 14.333 13.5 19s18.167 8.33398 33.5 11.001l28.5 5
l33.5 6c22 2.66699 40.167 5 54.5 7s29.166 3.66699 44.499 5s34.666 2.66602 57.999 3.99902l49.5 3.5l20.5 1.5c2 0 9 -0.666992 21 -2s25 -3 39 -5s24.333 -4.33301 31 -7c15.333 -3.33301 27 -8.5 35 -15.5s13.333 -16.167 16 -27.5c2 -8 2 -13.333 0 -16
s-5.66699 -5.33398 -11 -8.00098c-15.333 -4.66699 -27.166 -7.5 -35.499 -8.5s-17.166 0.166992 -26.499 3.5c-3.33301 3.33301 -7.16602 6.33301 -11.499 9s-11.666 4.83398 -21.999 6.50098s-26.5 3.16699 -48.5 4.5c-18.667 -2 -35 -3 -49 -3s-21 -1.66699 -21 -5
l-59 -3l-49 -5c-6.66699 -0.666992 -16 -1.5 -28 -2.5l-35 -3c-11.333 -1 -20 -2.16699 -26 -3.5z" />
    <glyph glyph-name="U" unicode="U" horiz-adv-x="482" 
d="M223 -55c-32 10.667 -56.4971 28.498 -73.4971 53.498s-26.167 60 -27.5 105s5.33398 102.167 20.001 171.5c4.66699 23.333 11.334 50 20.001 80s18.834 60.833 30.501 92.5s24 62.334 37 92.001s25.833 55.834 38.5 78.501c15.333 27.333 27.666 44.833 36.999 52.5
s18 10.834 26 9.50098c14 -2.66699 24.167 -8.83398 30.5 -18.501s9 -19.834 8 -30.501s-7.16699 -19.667 -18.5 -27c-7.33301 -8.66699 -16.833 -24.5 -28.5 -47.5s-23.5 -45.167 -35.5 -66.5l-35 -102.5c-10 -29.667 -18.333 -57.5 -25 -83.5s-12.667 -53.333 -18 -82
c-6 -28 -10.667 -50.5 -14 -67.5s-5.5 -30.667 -6.5 -41s-1.5 -19.333 -1.5 -27v-25.5c5.33301 -8.66699 9.66602 -16.334 12.999 -23.001s7.66602 -10.667 12.999 -12c11.333 -5.33301 23.666 -7.16602 36.999 -5.49902s27 6.5 41 14.5
c3.33301 6.66699 7.66602 11.334 12.999 14.001l8 4c1.33301 -3.33301 2.83301 -4.16602 4.5 -2.49902s2.83398 3.83398 3.50098 6.50098c-0.666992 2.66699 0 5.16699 2 7.5s4.33301 4.83301 7 7.5c5.33301 2 12.833 8.5 22.5 19.5s19.5 23.333 29.5 37
s18.5 26.167 25.5 37.5s10.5 18.333 10.5 21c0 3.33301 1.33301 6.33301 4 9s5.66699 6 9 10c3.33301 3.33301 10.166 14.166 20.499 32.499s21.666 39.833 33.999 64.5l33.5 68c2 7.33301 5.66699 19.166 11 35.499s11.166 35.166 17.499 56.499l18.5 64.5l16.5 58
c5 17 8.16699 29.5 9.5 37.5c1.33301 8.66699 3.33301 15.834 6 21.501s4.33398 9.83398 5.00098 12.501c4.66699 2.66699 10.167 3 16.5 1s12.5 -4.83301 18.5 -8.5s11 -6.5 15 -8.5c4 -5.33301 5.66699 -12 5 -20s-2.83398 -20.167 -6.50098 -36.5l-15.5 -70.5
c-14 -54.667 -30.833 -105 -50.5 -151l-63.5 -146v-0.5v-5.5c-8 -4.66699 -14.333 -11.667 -19 -21l-8.5 -15.5c-2.33301 -4.33301 -5.16602 -7.5 -8.49902 -9.5c-2 -6 -4 -11.333 -6 -16l-3 -7c-0.666992 -3.33301 -3 -6.33301 -7 -9l-12 -8
c-3.33301 -1.33301 -5.33301 -4 -6 -8s-2 -7.33301 -4 -10c-14.667 -22 -31.667 -43.833 -51 -65.5s-39.333 -40.5 -60 -56.5s-40 -27.333 -58 -34c-12 -4.66699 -21.833 -7.33398 -29.5 -8.00098s-16.167 0 -25.5 2z" />
    <glyph glyph-name="V" unicode="V" horiz-adv-x="490" 
d="M261 -59c-3.33301 1.33301 -5.66797 3.33105 -7.00098 5.99805s-2.66602 8 -3.99902 16c0 7.33301 -2 12.666 -6 15.999s-11.667 6.33301 -23 9c-7.33301 7.33301 -12.833 15.833 -16.5 25.5s-6.5 25.167 -8.5 46.5s-4.33301 53.333 -7 96c1.33301 23.333 2.5 43 3.5 59
s2.16699 31 3.5 45l4.5 45c1.66699 16 4.16699 36 7.5 60c-1.33301 15.333 -0.5 32 2.5 50s3.5 32.333 1.5 43c4.66699 14.667 7.66699 31.5 9 50.5s4.33301 35.833 9 50.5c1.33301 11.333 2.83301 22 4.5 32s2.5 18.333 2.5 25c-1.33301 13.333 -0.333008 26.166 3 38.499
s10 20.833 20 25.5c4 1.33301 9.66699 2.16602 17 2.49902s12.666 -0.5 15.999 -2.5c7.33301 -3.33301 11.833 -8.66602 13.5 -15.999s2.16699 -14.666 1.5 -21.999c1.33301 -7.33301 1.83301 -20 1.5 -38s-1.66602 -37.833 -3.99902 -59.5s-5.83301 -42.834 -10.5 -63.501
c-5.33301 -27.333 -9.5 -55.166 -12.5 -83.499s-5.16699 -56.166 -6.5 -83.499c-2.66699 -54.667 -5.33398 -100 -8.00098 -136s-3 -62 -1 -78c0 -2 0.5 -6.5 1.5 -13.5s2.33301 -13.5 4 -19.5s3.5 -9 5.5 -9c4.66699 0.666992 8.83398 4.5 12.501 11.5
s7.33398 15.5 11.001 25.5s7.5 19.333 11.5 28c8.66699 16.667 17.5 34.834 26.5 54.501s16.833 38.5 23.5 56.5c12 28 24 52 36 72s23.333 42.333 34 67c4 10.667 11.167 26.167 21.5 46.5l29.5 56.5l32.5 50c10.333 16 22.5 37.333 36.5 64c19.333 32 35 54.5 47 67.5
s23.333 19.5 34 19.5c7.33301 1.33301 12.333 1.5 15 0.5s6.33398 -4.83301 11.001 -11.5c5.33301 -7.33301 8.33301 -15.166 9 -23.499s-2.33301 -19.333 -9 -33s-18.667 -32.834 -36 -57.501l-44.5 -70l-45 -75.5c-13.667 -23.667 -23.5 -41.167 -29.5 -52.5
c-3.33301 -7.33301 -6.33301 -15 -9 -23s-6.66699 -15.333 -12 -22c-6.66699 -6.66699 -15.667 -21 -27 -43l-33 -65l-28.5 -65.5l-17 -38.5l-12.5 -29l-15 -35c-3.33301 -11.333 -7.83301 -22.5 -13.5 -33.5s-8.83398 -18.5 -9.50098 -22.5
c-4.66699 -7.33301 -11.5 -14.166 -20.5 -20.499s-17.833 -11 -26.5 -14s-15.334 -3.5 -20.001 -1.5z" />
    <glyph glyph-name="W" unicode="W" horiz-adv-x="720" 
d="M500 -56c-8.66699 -0.666992 -16.4971 1.16895 -23.4971 5.50195s-11.833 9.83301 -14.5 16.5c-2.66699 3.33301 -6.83398 9.5 -12.501 18.5s-9.16699 17.5 -10.5 25.5c-2 21.333 -3.16699 42 -3.5 62s0.5 48 2.5 84c2 29.333 5.83301 57 11.5 83s11.5 49.167 17.5 69.5
l14 47.5c3.33301 11.333 4 17 2 17c-2.66699 0 -6.33398 -4 -11.001 -12s-9.83398 -18 -15.501 -30l-17.5 -36.5c-6 -12.333 -11.333 -22.833 -16 -31.5c-9.33301 -20.667 -20.166 -42.5 -32.499 -65.5s-24.833 -45.167 -37.5 -66.5l-33 -56
c-6 -6.66699 -13 -16.167 -21 -28.5l-26 -38.5c-9.33301 -13.333 -19 -24.333 -29 -33c-14.667 -14 -29.334 -22 -44.001 -24s-27.334 1 -38.001 9c-4 2 -8 5.33301 -12 10s-7.16699 10.5 -9.5 17.5s-2.5 14.5 -0.5 22.5c-0.666992 9.33301 -0.5 23.833 0.5 43.5
s2.83301 41.334 5.5 65.001s5.5 46.5 8.5 68.5s5.83301 40.333 8.5 55c6 42.667 14.167 86.334 24.5 131.001s19.833 89.667 28.5 135c5.33301 13.333 10.166 28.5 14.499 45.5s8.83301 32.833 13.5 47.5c0.666992 14.667 4.66699 24.334 12 29.001s15.5 6 24.5 4
s15.833 -6.33301 20.5 -13c6.66699 -6.66699 12.334 -17 17.001 -31s2.33398 -31.667 -6.99902 -53c-13.333 -32.667 -26.166 -72.5 -38.499 -119.5s-23.5 -103.833 -33.5 -170.5l-9 -56c-3.33301 -21.333 -6.33301 -41.833 -9 -61.5s-4.5 -36.167 -5.5 -49.5
s-0.833008 -20.333 0.5 -21c5.33301 -1.33301 12.166 2.5 20.499 11.5s16.166 21.5 23.499 37.5l80.5 140l76.5 145c11.333 19.333 22.833 40.5 34.5 63.5l33.5 63.5l31.5 55.5l25 43c7 11.667 12.5 18.167 16.5 19.5c13.333 -0.666992 24 -4 32 -10s14.667 -15.667 20 -29
c1.33301 -3.33301 1.5 -9 0.5 -17s-2.83301 -15 -5.5 -21c-0.666992 -4.66699 -3.5 -14.334 -8.5 -29.001s-9.5 -31 -13.5 -49c-6.66699 -18 -12.5 -35.833 -17.5 -53.5s-8.5 -32.167 -10.5 -43.5c-5.33301 -28.667 -12 -60.167 -20 -94.5s-14.833 -68.333 -20.5 -102
s-8.83398 -63.5 -9.50098 -89.5c-0.666992 -18.667 -0.5 -32.5 0.5 -41.5s2.83301 -16.5 5.5 -22.5c1.33301 -5.33301 5 -8 11 -8s11.333 3 16 9c12 16 22.167 30.167 30.5 42.5s16.166 25.166 23.499 38.499l25 47c16.667 30.667 33.834 64.667 51.501 102l51 111.5
l42.5 97.5l31 86.5c8 21.667 15.333 38 22 49s13.334 18.5 20.001 22.5c3.33301 2.66699 8.83301 4 16.5 4s14.5 -2.66699 20.5 -8c2.66699 -2.66699 5.83398 -6.83398 9.50098 -12.501s5.16699 -12.5 4.5 -20.5c-3.33301 -10.667 -9.33301 -27.834 -18 -51.501l-29.5 -78
l-32 -81c-10.333 -25.667 -19.166 -46.167 -26.499 -61.5c-7.33301 -14 -14.333 -26 -21 -36s-10 -17.667 -10 -23c0 -2.66699 -3.33301 -10.834 -10 -24.501s-15.167 -30.167 -25.5 -49.5l-33.5 -60l-34 -57c-10.667 -17.333 -19.667 -30.666 -27 -39.999
c-16.667 -20.667 -33.334 -37.834 -50.001 -51.501s-31.167 -23.667 -43.5 -30s-20.833 -9.5 -25.5 -9.5z" />
    <glyph glyph-name="X" unicode="X" horiz-adv-x="524" 
d="M633 645c13.333 -0.666992 22.3262 -6.66406 26.9932 -17.9971s4.66699 -26.333 0 -45s-15 -39.334 -31 -62.001c-15.333 -15.333 -24 -28.333 -26 -39c-4.66699 -6 -11.834 -14.5 -21.501 -25.5l-31 -35l-29 -32.5c-8.33301 -9.33301 -13.833 -15 -16.5 -17l-31.5 -28
c-11.667 -10.667 -22 -20.5 -31 -29.5s-14.833 -15.167 -17.5 -18.5c-4.66699 -4.66699 -9 -9.5 -13 -14.5s-7.66699 -8.16699 -11 -9.5c-0.666992 -2.66699 -2.66699 -5.83398 -6 -9.50098s-5.66602 -7.16699 -6.99902 -10.5
c-1.33301 -0.666992 -5.66602 -4.33398 -12.999 -11.001l-24.5 -22.5l-24 -22.5c-7 -6.66699 -10.833 -10.667 -11.5 -12c-7.33301 -6.66699 -18.666 -18.167 -33.999 -34.5l-51 -54.5l-54 -58.5l-43.5 -49c-11.667 -13.667 -18.167 -22.167 -19.5 -25.5
c-2.66699 -5.33301 -6.83398 -8.83301 -12.501 -10.5s-11.167 -1.83398 -16.5 -0.500977c-2.66699 -1.33301 -6.5 -1.83301 -11.5 -1.5s-8.16699 0.833008 -9.5 1.5l-2 5c-1.33301 3.33301 -2.66602 8.66602 -3.99902 15.999c-4 6.66699 -4.83301 14.5 -2.5 23.5
s4.83301 17.167 7.5 24.5c4.66699 8.66699 9.33398 16 14.001 22s12.667 14.167 24 24.5l52 48.5c10.667 10.667 21.5 20.834 32.5 30.501s16.833 15.5 17.5 17.5c0.666992 2.66699 3.33398 6.33398 8.00098 11.001s9.33398 10.334 14.001 17.001
c4.66699 3.33301 12.5 10.166 23.5 20.499l36.5 35l39.5 38.5l32.5 31c4 5.33301 8.83301 10.833 14.5 16.5s11.834 12.5 18.501 20.5c0.666992 1.33301 5.16699 6.16602 13.5 14.499l29.5 30l32.5 34l23.5 25.5l72.5 88.5c21.667 27.667 36.834 50.834 45.501 69.501
c6.66699 14 11.5 22.5 14.5 25.5s7.16699 4.83301 12.5 5.5zM491.993 -27.9971c-12.667 1.33301 -25.8281 8 -39.4951 20s-28.167 31.667 -43.5 59c-24.667 34 -46.334 75.167 -65.001 123.5s-31.667 100.5 -39 156.5c-3.33301 23.333 -7 43.5 -11 60.5
s-6.66699 26.167 -8 27.5c-0.666992 2.66699 -0.166992 4.5 1.5 5.5l2.5 1.5c2 2 2.33301 4.16699 1 6.5s-2.66602 5.16602 -3.99902 8.49902l-5 23c-3.33301 15.333 -6 34.333 -8 57c-2.66699 24 -4.83398 44.833 -6.50098 62.5s-3.16699 29.167 -4.5 34.5
c-2 1.33301 -3 3.33301 -3 6v4c1.33301 4 3.83301 7.83301 7.5 11.5l8.5 8.5c10 7.33301 20.333 9.16602 31 5.49902s19.5 -11.5 26.5 -23.5s10.5 -26.333 10.5 -43c0 -17.333 2 -28 6 -32c-0.666992 -1.33301 -0.833984 -6.33301 -0.500977 -15s1 -18.5 2 -29.5
s2.16699 -21.167 3.5 -30.5s2.33301 -15.666 3 -18.999c-2.66699 -8 -2.66699 -13.667 0 -17c0.666992 -5.33301 1.66699 -12.5 3 -21.5s1.66602 -15.167 0.999023 -18.5s0.166016 -9.16602 2.49902 -17.499s4.5 -16.833 6.5 -25.5l26 -90
c5.33301 -21.333 10.333 -40.166 15 -56.499s10.334 -32.333 17.001 -48s14.667 -33.167 24 -52.5c7.33301 -16 16 -30.833 26 -44.5s19 -22.834 27 -27.501c1.33301 -1.33301 4.83301 -2.16602 10.5 -2.49902s9.16699 0.5 10.5 2.5c7.33301 2 12.666 0.5 15.999 -4.5
s5.66602 -11.167 6.99902 -18.5s2 -14.333 2 -21c1.33301 -4.66699 -1 -9.33398 -7 -14.001s-13.833 -8.16699 -23.5 -10.5s-19.5 -2.83301 -29.5 -1.5z" />
    <glyph glyph-name="Y" unicode="Y" horiz-adv-x="504" 
d="M325 264l-35.0039 43.9971c-13.333 20 -24 38.667 -32 56s-13.667 38.666 -17 63.999c-4.66699 16 -7.66699 31 -9 45s-1.83301 30.167 -1.5 48.5s0.833008 41.166 1.5 68.499c0.666992 25.333 3.83398 44.5 9.50098 57.5s9.83398 22.167 12.501 27.5
c9.33301 9.33301 17.333 10.833 24 4.5s12 -17.166 16 -32.499s5.66699 -32.666 5 -51.999c2 -71.333 6.83301 -127.166 14.5 -167.499s18.167 -64.833 31.5 -73.5c8 -2 15.167 -1.5 21.5 1.5s15.166 10.667 26.499 23l51 54.5l55.5 62l54 63c17 20 32.333 37.167 46 51.5
s24.5 23.833 32.5 28.5c2.66699 4 6 7.16699 10 9.5s8 3.83301 12 4.5l6 1c5.33301 -1.33301 8.33301 -5.5 9 -12.5s3.33398 -13.833 8.00098 -20.5c1.33301 -2.66699 3 -5.83398 5 -9.50098s2.66699 -7.16699 2 -10.5c0 -2 -1.83301 -5.16699 -5.5 -9.5
s-7.66699 -8.66602 -12 -12.999l-11.5 -11.5c-8.66699 -7.33301 -22.167 -20.166 -40.5 -38.499l-56.5 -59c-19.333 -21 -35.666 -39.833 -48.999 -56.5l-78.5 -88c-23 -24.667 -37.167 -39.334 -42.5 -44.001c-0.666992 -1.33301 -5.16699 -4.66602 -13.5 -9.99902
s-14.166 -10.666 -17.499 -15.999zM258.996 -71.0029c-2.66699 0.666992 -7.16797 3.16602 -13.501 7.49902l-19.5 13.5c-4.66699 5.33301 -7.5 10.5 -8.5 15.5s-0.166992 12.167 2.5 21.5s6.33398 23 11.001 41c0.666992 15.333 3.83398 34 9.50098 56s12.5 40.333 20.5 55
c0 7.33301 1.66699 17.333 5 30s7.5 25.834 12.5 39.501l13.5 35.5l18 52l40 34l36 -33c-2.66699 -4 -5 -8.66699 -7 -14s-4.66699 -14.333 -8 -27l-15 -59l-17.5 -58l-17.5 -58c-5.33301 -18 -10 -32.667 -14 -44c-8 -30 -14.5 -53.167 -19.5 -69.5
s-9.33301 -27.333 -13 -33s-8.83398 -7.5 -15.501 -5.5z" />
    <glyph glyph-name="Z" unicode="Z" horiz-adv-x="522" 
d="M121 -43c-14 1.33301 -26.9971 3.16992 -38.9971 5.50293s-19.667 10.166 -23 23.499c-2.66699 10.667 -1.83398 22 2.49902 34s9.83301 21.333 16.5 28l37 40c13.333 14.667 29.333 31.167 48 49.5l68 65.5l98 89c26.667 22.667 48 41.5 64 56.5l43 41.5l42 43
c23.333 24 43.5 46.5 60.5 67.5s27.167 38.167 30.5 51.5c4 13.333 3.83301 22.833 -0.5 28.5s-13 9.66699 -26 12s-31.167 4.16602 -54.5 5.49902c-41.333 3.33301 -78.333 3.16602 -111 -0.500977s-63.667 -8.16699 -93 -13.5
c-4.66699 -1.33301 -10.167 0.166992 -16.5 4.5s-9.5 7.83301 -9.5 10.5c2.66699 3.33301 4 7.16602 4 11.499s-2.66699 8.5 -8 12.5c-2.66699 6.66699 -2.66699 12.334 0 17.001s5.33398 8.33398 8.00098 11.001c5.33301 2.66699 14.5 4.66699 27.5 6
s27.167 3.33301 42.5 6c10 2 24.833 3.33301 44.5 4s39.667 1 60 1s36.5 -0.666992 48.5 -2c24 -2 47.5 -4.33301 70.5 -7s43.167 -7.33398 60.5 -14.001s29 -17.334 35 -32.001c7.33301 -15.333 8.83301 -29 4.5 -41l-17.5 -48c-8 -14.667 -21.5 -34.167 -40.5 -58.5
s-40.667 -49.666 -65 -75.999s-49.166 -51.166 -74.499 -74.499l-100.5 -92.5l-88.5 -78.5l-54.5 -48l-54.5 -50c-6.66699 -8.66699 -7.83398 -15.334 -3.50098 -20.001s20.166 -6.33398 47.499 -5.00098c15.333 0.666992 27.333 2 36 4s18 4 28 6s24 3.33301 42 4l94 5.5
c28 1.66699 51.333 2.5 70 2.5c5.33301 0 9.83301 -0.666992 13.5 -2s8.83398 -6.66602 15.501 -15.999c6 -2 9.66699 -5.5 11 -10.5s0.833008 -10.167 -1.5 -15.5s-6.5 -10.333 -12.5 -15c-4.66699 0 -12.834 -1.16699 -24.501 -3.5s-24.334 -4.33301 -38.001 -6
s-25.834 -2.16699 -36.501 -1.5c-8.66699 0.666992 -25.167 0.166992 -49.5 -1.5s-50.5 -4.16699 -78.5 -7.5c-24.667 -4 -51.667 -6.33301 -81 -7s-53 -0.666992 -71 0z" />
    <glyph glyph-name="bracketleft" unicode="[" horiz-adv-x="330" 
d="M76 -134c-11.333 5.33301 -18.333 13.0029 -21 23.0029s0 20.667 8 32c3.33301 2 6.33301 5.66699 9 11s4 10.333 4 15s1.83301 15 5.5 31s8.33398 34.667 14.001 56l17.5 63c6 20.667 11.5 38.5 16.5 53.5s8.5 23.833 10.5 26.5c0 3.33301 2.33301 10.666 7 21.999
s12.667 25.666 24 42.999c10.667 34 23.167 70.833 37.5 110.5s29.166 78.167 44.499 115.5l42.5 99.5c13 29 23.5 49.5 31.5 61.5l5.5 23c1.66699 6.66699 2.5 11.334 2.5 14.001c0 13.333 3.33301 23.166 10 29.499s19.667 9.5 39 9.5
c19.333 2.66699 36.166 4.33398 50.499 5.00098s29.166 2.5 44.499 5.5s34.333 8.16699 57 15.5c10 2 20.333 5.66699 31 11s17.334 8 20.001 8c8 2 14 1.83301 18 -0.5s8.66699 -7.83301 14 -16.5c9.33301 -10.667 13.5 -18.667 12.5 -24s-8.83301 -11 -23.5 -17
l-44.5 -12.5c-18.333 -5 -37.166 -9.83301 -56.499 -14.5s-36.666 -8 -51.999 -10c-12.667 -3.33301 -23.5 -6.33301 -32.5 -9s-14.5 -5.33398 -16.5 -8.00098c-1.33301 -2 -4.16602 -7.16699 -8.49902 -15.5l-14.5 -28.5c-5.33301 -10.667 -9.83301 -20 -13.5 -28
s-5.5 -12.667 -5.5 -14c-1.33301 -1.33301 -4.66602 -7.16602 -9.99902 -17.499l-18 -36c-6.66699 -13.667 -12.667 -26.667 -18 -39s-8.66602 -21.5 -9.99902 -27.5c-1.33301 -4 -4.83301 -12.833 -10.5 -26.5l-17.5 -42.5c-6 -14.667 -10.333 -26 -13 -34
c-2.66699 -6.66699 -5.83398 -15.834 -9.50098 -27.501l-11 -34c-3.66699 -11 -6.83398 -19.5 -9.50098 -25.5c0 -2 -0.833008 -7 -2.5 -15s-4.16699 -14.667 -7.5 -20c-2.66699 -4.66699 -5.83398 -11.5 -9.50098 -20.5s-6.5 -17.167 -8.5 -24.5l-8 -13.5
c-2.66699 -4.33301 -4 -7.83301 -4 -10.5c0 -2 -0.166992 -5 -0.5 -9s-1.83301 -9.66699 -4.5 -17c-2 -2.66699 -3.16699 -5.66699 -3.5 -9l-0.5 -5c-2.66699 -2.66699 -5.33398 -10 -8.00098 -22s-7 -25.333 -13 -40c-5.33301 -16.667 -10 -31.834 -14 -45.501
s-6 -23.167 -6 -28.5l-5 -28l30 6c12 2 27.5 4.16699 46.5 6.5s37.333 4.33301 55 6s31.5 2.5 41.5 2.5c12 2.66699 20.5 3.83398 25.5 3.50098s9.16699 -2 12.5 -5s7.66602 -7.5 12.999 -13.5c2.66699 -5.33301 4.66699 -9.83301 6 -13.5s1 -6.5 -1 -8.5
c-1.33301 -2 -8.83301 -4.5 -22.5 -7.5s-29.167 -6.16699 -46.5 -9.5s-33 -6 -47 -8h-26.5h-10.5c0 -6 -11 -9 -33 -9c-7.33301 -4 -17 -7.33301 -29 -10s-20.333 -5.33398 -25 -8.00098c-14.667 -6 -25.667 -9 -33 -9s-14.666 3 -21.999 9z" />
    <glyph glyph-name="backslash" unicode="\" horiz-adv-x="330" 
d="M337 -110c-2.66699 0 -5.32617 0.669922 -7.99316 2.00293s-4.33398 3 -5.00098 5c-12 2 -16.667 8 -14 18c0 2.66699 -1.33301 9.83398 -4 21.501s-5.83398 26.334 -9.50098 44.001s-8 36.5 -13 56.5l-15 58.5l-13.5 51c-4 15 -7.33301 26.167 -10 33.5
c0 3.33301 -0.5 6.33301 -1.5 9s-1.16699 5.33398 -0.5 8.00098c0 2.66699 -0.833008 6.33398 -2.5 11.001s-2.16699 8.66699 -1.5 12c-2.66699 2 -4.33398 6.33301 -5.00098 13s-0.666992 12.334 0 17.001c0 5.33301 -0.666992 10.666 -2 15.999s-3.66602 8 -6.99902 8
c-0.666992 2 -2.33398 10 -5.00098 24l-10 52.5c-4 21 -8 43.333 -12 67l-12 68.5c-4 22 -7.16699 40.833 -9.5 56.5s-3.5 25.834 -3.5 30.501c1.33301 5.33301 1.16602 11.666 -0.500977 18.999s-3.16699 15.333 -4.5 24c-2 27.333 -0.666992 50.166 4 68.499
s11.834 31 21.501 38s20.5 7.83301 32.5 2.5c3.33301 -3.33301 5.66602 -8.83301 6.99902 -16.5s0.666016 -19.167 -2.00098 -34.5c-0.666992 -7.33301 0.166016 -21.333 2.49902 -42s5.66602 -45 9.99902 -73l13 -86l12.5 -82.5c4 -25.667 7 -46.167 9 -61.5
c4.66699 -14.667 7.5 -27 8.5 -37s0.833008 -16 -0.5 -18l-0.5 -5.5c-0.333008 -3.66699 0.833984 -5.83398 3.50098 -6.50098c2.66699 -2.66699 4.33398 -5.33398 5.00098 -8.00098s1 -5.33398 1 -8.00098c0 -1.33301 1 -6.33301 3 -15s4.5 -18.834 7.5 -30.501
s6.33301 -23 10 -34s6.5 -19.167 8.5 -24.5c0.666992 -8.66699 1.66699 -16.167 3 -22.5s1.66602 -10.833 0.999023 -13.5c0 -0.666992 0.666992 -3.83398 2 -9.50098s3.33301 -12.667 6 -21l8 -25.5c2.66699 -8.66699 4.66699 -16.667 6 -24c6 -18 11.333 -31.833 16 -41.5
s8 -17.667 10 -24s2 -13.166 0 -20.499c0.666992 -7.33301 0.166992 -13.833 -1.5 -19.5s-6.16699 -10.834 -13.5 -15.501c-6.66699 -4.66699 -12.334 -8.33398 -17.001 -11.001z" />
    <glyph glyph-name="bracketright" unicode="]" horiz-adv-x="330" 
d="M120 -116l-13.4951 -0.00585938c-6.33301 0 -12.833 0.666992 -19.5 2c-4.66699 -0.666992 -12.5 -1.16699 -23.5 -1.5s-22.167 0.5 -33.5 2.5c-10 -0.666992 -20.167 0.333008 -30.5 3s-17.166 3.66699 -20.499 3l-5 4.5c-3.33301 3 -6.66602 6.5 -9.99902 10.5l-14 10
l12 5c2.66699 3.33301 9.66699 6.83301 21 10.5s24.333 6.83398 39 9.50098s28 4.66699 40 6s19.667 1.33301 23 0c2 0 6.33301 -0.5 13 -1.5s13.667 -1.16699 21 -0.5l33 3l10 27c1.33301 8 2.5 16.167 3.5 24.5s1.5 13.833 1.5 16.5c4 3.33301 7.16699 7.66602 9.5 12.999
s3.16602 10 2.49902 14c2 5.33301 4.83301 13.833 8.5 25.5l11.5 36.5c1.33301 10.667 5.33301 25.167 12 43.5s11.334 35.833 14.001 52.5c4 13.333 8.83301 27.833 14.5 43.5s9.16699 27.5 10.5 35.5c1.33301 10 4.33301 20.333 9 31s7.33398 21 8.00098 31l24.5 74
l32.5 98l31 98c7.33301 14.667 12.833 28.834 16.5 42.501l5.5 20.5l-19.5 -1.5c-13 -1 -29.167 -2.16699 -48.5 -3.5c-42 -2.66699 -71.833 -4.5 -89.5 -5.5s-28.334 -1.33301 -32.001 -1s-5.83398 1.16602 -6.50098 2.49902c-2 2 -3.33301 3.66699 -4 5s-2 2 -4 2
c-2.66699 -0.666992 -5.33398 0.833008 -8.00098 4.5s-4.33398 7.83398 -5.00098 12.501c0 6 5.83301 11.667 17.5 17s27.167 10 46.5 14s41 7.33301 65 10c29.333 3.33301 48.166 4.5 56.499 3.5s13.5 -1.5 15.5 -1.5c7.33301 2 17.333 4 30 6s25 3.33301 37 4
s20.333 -0.666016 25 -3.99902c2 0 5.16699 -2.66699 9.5 -8s6.5 -11.333 6.5 -18c5.33301 -9.33301 8 -15.166 8 -17.499s-2 -6.16602 -6 -11.499c-2.66699 -4 -6.83398 -11.167 -12.501 -21.5s-11.334 -21.5 -17.001 -33.5s-10.334 -22.667 -14.001 -32
s-5.16699 -15 -4.5 -17c0 -2 -0.333008 -3.83301 -1 -5.5s-2.66699 -2.83398 -6 -3.50098l-2.5 -1c-1.66699 -0.666992 -2.5 -2.66699 -2.5 -6c1.33301 -5.33301 0.333008 -12.833 -3 -22.5s-6.33301 -14.5 -9 -14.5l-2.5 -1c-1.66699 -0.666992 -2.5 -2.66699 -2.5 -6
c0 -2.66699 -0.833008 -7.33398 -2.5 -14.001s-4.16699 -14.667 -7.5 -24c-6.66699 -23.333 -13.334 -42.666 -20.001 -57.999s-10 -24 -10 -26l-3 -7c-2 -4.66699 -3.66699 -9.33398 -5 -14.001c-2.66699 -5.33301 -5.33398 -14.166 -8.00098 -26.499
s-4.66699 -23.833 -6 -34.5c-6 -8.66699 -11.333 -19.167 -16 -31.5s-7.66699 -20.5 -9 -24.5c-2 -6.66699 -3.5 -13 -4.5 -19l-1.5 -9c0 -2 -1.5 -9.16699 -4.5 -21.5s-6.66699 -25.166 -11 -38.499s-8.16602 -23.333 -11.499 -30c0 -2.66699 -1.66699 -10.667 -5 -24
s-7.66602 -28.666 -12.999 -45.999c-2.66699 -15.333 -5.66699 -30 -9 -44s-5.66602 -22.667 -6.99902 -26c0 -2 -1.5 -4.16699 -4.5 -6.5s-4.5 -5.16602 -4.5 -8.49902v-10.5c0 -4.33301 -1.66699 -7.83301 -5 -10.5c-2 -3.33301 -3 -6.83301 -3 -10.5v-5.5
c2 0 2.66699 -0.666992 2 -2l-1 -2c-2 0 -3.16699 -2.33301 -3.5 -7s-0.5 -9 -0.5 -13c0 -14 -1.66699 -24.5 -5 -31.5s-9.66602 -11.167 -18.999 -12.5s-23 -1.33301 -41 0c-16 2 -26 2.83301 -30 2.5s-5.33301 -1 -4 -2s2.66602 -1.66699 3.99902 -2
s-0.333984 0.166992 -5.00098 1.5z" />
    <glyph glyph-name="asciicircum" unicode="^" horiz-adv-x="446" 
d="M134 297c-3.33301 2.66699 -5.83496 6.83301 -7.50195 12.5s-1.66699 13.834 0 24.501s5.5 24 11.5 40l24.5 50c5 10.667 11.167 20.334 18.5 29.001c6 10.667 14.833 22.167 26.5 34.5s24.334 24.166 38.001 35.499s27.167 20.5 40.5 27.5s25 9.83301 35 8.5
c6 -0.666992 13.333 -7.16699 22 -19.5s17.834 -27.833 27.501 -46.5s19.334 -38.5 29.001 -59.5l26.5 -59.5l19 -45c3.33301 -8 3.33301 -16 0 -24s-8.33301 -14.5 -15 -19.5s-13.167 -6.83301 -19.5 -5.5s-11.166 7.33301 -14.499 18l-8.5 25
c-2.33301 6.66699 -6.33301 16.167 -12 28.5l-27.5 59.5c-10.667 18 -18.834 32.833 -24.501 44.5s-10.5 20 -14.5 25s-9.33301 6.5 -16 4.5c-8.66699 -2.66699 -18.334 -9 -29.001 -19s-22.167 -24.333 -34.5 -43s-25.5 -43.334 -39.5 -74.001
c-7.33301 -22 -16 -37.5 -26 -46.5s-20 -10.833 -30 -5.5z" />
    <glyph glyph-name="underscore" unicode="_" horiz-adv-x="446" 
d="M116 -10c-4 0 -8.99805 0.168945 -14.998 0.501953s-12.667 1.83301 -20 4.5c-10 0 -17 1.5 -21 4.5s-7.33301 6.83301 -10 11.5c-7.33301 10 -7.66602 17 -0.999023 21s22.334 7.33301 47.001 10c11.333 2.66699 28.166 4.83398 50.499 6.50098s46.666 3 72.999 4
s51.166 1.83301 74.499 2.5s41.666 1 54.999 1c17.333 0 29.5 -0.833008 36.5 -2.5s14.167 -6.16699 21.5 -13.5c10 -10 13.167 -19.833 9.5 -29.5s-13.167 -13.167 -28.5 -10.5c-3.33301 0 -8.83301 -0.333008 -16.5 -1s-16.167 -1.33398 -25.5 -2.00098
s-18 -1.33398 -26 -2.00098c-4 0 -14.833 -0.333008 -32.5 -1s-38 -1.33398 -61 -2.00098s-44.833 -1.16699 -65.5 -1.5s-35.667 -0.5 -45 -0.5z" />
    <glyph glyph-name="grave" unicode="`" horiz-adv-x="353" 
d="M345 436c-8.66699 -6 -14.665 -7.83301 -17.998 -5.5s-7 9.83301 -11 22.5c-3.33301 8.66699 -8.66602 18.834 -15.999 30.501l-22 35.5c-7.33301 12 -12.5 23 -15.5 33s-2.16699 18 2.5 24c6.66699 6.66699 13.667 12.5 21 17.5s14.666 4.83301 21.999 -0.5
c5.33301 -2.66699 11.333 -9.33398 18 -20.001s13.167 -23 19.5 -37s11.666 -27.5 15.999 -40.5s6.83301 -22.833 7.5 -29.5c0.666992 -2 -0.333008 -5.16699 -3 -9.5s-5.83398 -8.5 -9.50098 -12.5s-7.5 -6.66699 -11.5 -8z" />
    <glyph glyph-name="a" unicode="a" horiz-adv-x="440" 
d="M113 31c-2.66699 5.33301 -6.83008 9.83008 -12.4971 13.4971s-8.5 6.83398 -8.5 9.50098s-0.666992 6 -2 10s-3.33301 7.33301 -6 10c-3.33301 4 -2.83301 13.333 1.5 28s11.5 32.834 21.5 54.501s21.333 44.167 34 67.5c5.33301 5.33301 10.666 12.333 15.999 21
s9.33301 14.334 12 17.001c0 2.66699 1 5.16699 3 7.5s4.33301 3.5 7 3.5l2 9c0.666992 3.33301 4.33398 9 11.001 17s14.667 16.833 24 26.5s19.166 19 29.499 28s18.833 15.5 25.5 19.5c14 9.33301 28.5 14.5 43.5 15.5s27.833 -2.83301 38.5 -11.5l11 -10.5l19 -17
l21 -18.5l37 -33l-18 -50c-8.66699 -26.667 -10.834 -50 -6.50098 -70s10.833 -37.333 19.5 -52c3.33301 -7.33301 9.33301 -13.833 18 -19.5s17.667 -9.16699 27 -10.5c5.33301 -0.666992 10.333 -2.66699 15 -6s7 -8.66602 7 -15.999c0 -10 -1.83301 -17.5 -5.5 -22.5
s-8.83398 -8.16699 -15.501 -9.5c-22 -2.66699 -42.667 1.66602 -62 12.999s-37 32.333 -53 63c-2.66699 4 -6.16699 11.5 -10.5 22.5s-6.83301 18.167 -7.5 21.5l-13.5 -16.5c-6.33301 -7.66699 -11.5 -13.5 -15.5 -17.5c-47.333 -48 -88 -79.833 -122 -95.5
s-62.333 -16.167 -85 -1.5zM155.004 95.9971c1.33301 -3.33301 8.5 -2.33105 21.5 3.00195s27.833 14.666 44.5 27.999c22.667 19.333 44.167 38.833 64.5 58.5s37.5 39.5 51.5 59.5l22 36c-6.66699 15.333 -13.5 25.666 -20.5 30.999s-13.167 8 -18.5 8
c-8.66699 0 -20.667 -7.16699 -36 -21.5s-32 -33.833 -50 -58.5s-35.667 -53 -53 -85c-7.33301 -14 -13.5 -27.333 -18.5 -40z" />
    <glyph glyph-name="b" unicode="b" horiz-adv-x="438" 
d="M217 13c-13.333 1.33301 -22.333 3.67383 -27 7.00684s-9 9.33301 -13 18c-5.33301 6 -8.5 10.667 -9.5 14s-1.16699 6.33301 -0.5 9c3.33301 0 6.33301 0.166992 9 0.5s4.33398 1.5 5.00098 3.5c0 2 1.16699 3.33301 3.5 4s4.83301 0.666992 7.5 0
c12.667 -0.666992 28.667 3.5 48 12.5s40.333 21.833 63 38.5s45 35 67 55c17.333 22.667 29.833 40.167 37.5 52.5s12 22.166 13 29.499s-0.166992 14 -3.5 20c-2.66699 5.33301 -11.167 7.66602 -25.5 6.99902s-31.833 -7.66699 -52.5 -21
c-28.667 -18 -51.667 -34.667 -69 -50s-33.333 -32.666 -48 -51.999c-5.33301 -6.66699 -10.833 -14.334 -16.5 -23.001s-10.334 -16.167 -14.001 -22.5l-5.5 -9.5c0 -2.66699 -3.83301 -6 -11.5 -10s-14.167 -6 -19.5 -6c-2.66699 1.33301 -6.16699 3.83301 -10.5 7.5
s-7.16602 8.5 -8.49902 14.5l-11 9.5c-2.66699 2.33301 -4.33398 5.83301 -5.00098 10.5s0.166016 11.167 2.49902 19.5l10.5 37.5l13 54.5c4.66699 19 9.33398 35.167 14.001 48.5s8 20.666 10 21.999l4 9c2.66699 6 4 13 4 21c1.33301 8 3.5 15 6.5 21s4.5 10.333 4.5 13
c2.66699 2 6.66699 10 12 24l20 55c0 2 2.33301 8.5 7 19.5l17 39l20.5 47c7 16.333 12.833 30.833 17.5 43.5c8 11.333 14.333 22.166 19 32.499s9.33398 16.5 14.001 18.5c3.33301 0.666992 8.16602 0.166992 14.499 -1.5s12.5 -4.33398 18.5 -8.00098
s10.667 -8.16699 14 -13.5c2 -3.33301 3.33301 -6.5 4 -9.5s-0.5 -8 -3.5 -15s-8.33301 -18.833 -16 -35.5l-33.5 -71c-18.667 -40 -33.667 -74.833 -45 -104.5s-20.833 -55.834 -28.5 -78.501s-14.834 -42.667 -21.501 -60l-5 -22l26 26l28.5 24.5
c10.333 9 20.166 17.167 29.499 24.5c5.33301 4 12.5 8.16699 21.5 12.5s17.833 8.16602 26.5 11.499s15 5.33301 19 6c2 0.666992 7.66699 1.83398 17 3.50098s19.666 2.5 30.999 2.5c14.667 0 26.834 -4 36.501 -12s18.834 -19.333 27.501 -34
c7.33301 -14 10.166 -30.5 8.49902 -49.5s-7.16699 -36.167 -16.5 -51.5c-3.33301 -2.66699 -6.66602 -6.16699 -9.99902 -10.5s-5 -7.83301 -5 -10.5c-0.666992 -4.66699 -6.66699 -14.167 -18 -28.5s-22.666 -27.833 -33.999 -40.5c-12 -12.667 -26.667 -25.167 -44 -37.5
s-34.5 -23.333 -51.5 -33s-31.5 -16.5 -43.5 -20.5c-5.33301 -0.666992 -13 -1.83398 -23 -3.50098s-17.667 -3.16699 -23 -4.5z" />
    <glyph glyph-name="c" unicode="c" horiz-adv-x="358" 
d="M213 6c-19.333 -3.33301 -37.499 -2.00488 -54.499 3.99512s-30.833 16 -41.5 30s-16 31.667 -16 53c-2 20 0.166992 43.5 6.5 70.5s15.833 54 28.5 81s26.667 50.167 42 69.5c13.333 16 26.666 30.667 39.999 44s25.333 22.333 36 27c9.33301 4 19 6.66699 29 8
s17.667 2 23 2c10.667 -2.66699 22.334 -7.33398 35.001 -14.001s19 -14 19 -22l2.5 -2.5l2.5 -2.5c4 0 7.83301 -4.5 11.5 -13.5s6.16699 -19.167 7.5 -30.5s0 -20.666 -4 -27.999c-2.66699 -12.667 -7.5 -24.167 -14.5 -34.5s-13.167 -15.5 -18.5 -15.5
c-2.66699 0 -5.16699 -0.166992 -7.5 -0.5s-3.5 -2.16602 -3.5 -5.49902s-2.33301 -4.66602 -7 -3.99902s-9.66699 2.66699 -15 6s-9 7.66602 -11 12.999c0 3.33301 1.16699 8.5 3.5 15.5s4.83301 16.833 7.5 29.5c4 18.667 3.83301 31 -0.5 37s-13.166 6.33301 -26.499 1
c-16.667 -9.33301 -31.667 -21.666 -45 -36.999s-25.666 -35.5 -36.999 -60.5s-22 -57.167 -32 -96.5c-4 -15.333 -5.16699 -28.166 -3.5 -38.499s3.5 -15.833 5.5 -16.5c9.33301 -2.66699 21.166 -3.16699 35.499 -1.5s25.166 4.5 32.499 8.5
c10.667 5.33301 21.834 12 33.501 20l32.5 23c3.33301 2 7 5.5 11 10.5s8.66699 8.83301 14 11.5c5.33301 8 10.666 12.5 15.999 13.5s12 1.5 20 1.5c5.33301 -1.33301 10.666 -3.66602 15.999 -6.99902s9 -6.83301 11 -10.5s1 -6.5 -3 -8.5
c-2.66699 0 -4.16699 -0.833008 -4.5 -2.5l-0.5 -2.5c1.33301 -2.66699 -1.5 -8.33398 -8.5 -17.001s-15.833 -18 -26.5 -28s-20.834 -18.667 -30.501 -26s-16.5 -11 -20.5 -11c-6.66699 0 -10 -2 -10 -6c0 -1.33301 -4.83301 -4.66602 -14.5 -9.99902
s-20.667 -10.666 -33 -15.999s-23.166 -9 -32.499 -11z" />
    <glyph glyph-name="d" unicode="d" horiz-adv-x="396" 
d="M366 -19c-8.66699 -2 -16.332 -0.499023 -22.999 4.50098s-11.334 11.5 -14.001 19.5c-4.66699 13.333 -8 27.833 -10 43.5s-2.66699 30.167 -2 43.5l1 25l-40 -33c-22.667 -20 -44.167 -34.5 -64.5 -43.5s-38.5 -13.5 -54.5 -13.5
c-7.33301 1.33301 -15.166 4.83301 -23.499 10.5s-15.833 12.167 -22.5 19.5s-11.667 14.333 -15 21c-4 9.33301 -5.16699 22.166 -3.5 38.499s5.66699 34.166 12 53.499s14.333 38.333 24 57s20.834 35 33.501 49c22 33.333 46.833 53.833 74.5 61.5
s54.167 4.16699 79.5 -10.5c15.333 -6.66699 25.333 -9.66699 30 -9s8.33398 7.33398 11.001 20.001c2.66699 10.667 5.5 21.167 8.5 31.5s7.5 24.833 13.5 43.5c16.667 50.667 31.167 90.334 43.5 119.001l33.5 75c7.33301 15.333 13.833 25.166 19.5 29.499
s11.167 6.16602 16.5 5.49902c7.33301 0 14.833 -2.66699 22.5 -8s13.167 -12.666 16.5 -21.999c2.66699 -6 3.83398 -11.5 3.50098 -16.5s-2.5 -11.167 -6.5 -18.5c-8.66699 -16 -18.834 -37.167 -30.501 -63.5s-23.334 -55.166 -35.001 -86.499s-22.5 -62.333 -32.5 -93
s-18.333 -57.667 -25 -81c-4 -14.667 -7.33301 -33.334 -10 -56.001s-4.83398 -45.834 -6.50098 -69.501s-2.5 -44.667 -2.5 -63s0.666992 -30.166 2 -35.499c4 -13.333 5.16699 -23.333 3.5 -30s-4.83398 -11.167 -9.50098 -13.5s-10.667 -3.83301 -18 -4.5z
M198.002 95.001c9.33301 2.66699 18.333 6.5 27 11.5s18 11.167 28 18.5c20 15.333 36.333 29.166 49 41.499s21.334 29.833 26.001 52.5c2 12 1.33301 21.833 -2 29.5s-9 14.834 -17 21.501c-7.33301 5.33301 -17.5 7.5 -30.5 6.5s-26.833 -8.16699 -41.5 -21.5
c-16 -14.667 -30.833 -33.5 -44.5 -56.5s-24.167 -52.5 -31.5 -88.5c-1.33301 -6.66699 0.666992 -11.667 6 -15s15.666 -3.33301 30.999 0z" />
    <glyph glyph-name="e" unicode="e" horiz-adv-x="328" 
d="M282 30c-16 -12 -33.8301 -18.8301 -53.4971 -20.4971s-38.5 1.33301 -56.5 9s-33 19.167 -45 34.5c-9.33301 12.667 -16.166 28.5 -20.499 47.5s-4.83301 44.167 -1.5 75.5c2.66699 28 11.334 56 26.001 84s32.667 52.833 54 74.5s43.333 36.5 66 44.5
c9.33301 6 18 9.16699 26 9.5s19.667 -0.166992 35 -1.5c15.333 -2 27.5 -5.33301 36.5 -10s15.833 -10.334 20.5 -17.001c10.667 -10 17.667 -20 21 -30s4.66602 -19.667 3.99902 -29c-2.66699 -16.667 -12.334 -36.167 -29.001 -58.5s-38.667 -39.833 -66 -52.5
c-13.333 -4.66699 -28.333 -7 -45 -7s-33.334 3.66699 -50.001 11c-14 4.66699 -23.167 3.5 -27.5 -3.5s-7.5 -22.5 -9.5 -46.5c-1.33301 -21.333 1 -37.333 7 -48s14.667 -17.334 26 -20.001c14 -2.66699 24.667 -3.83398 32 -3.50098s16.666 3.5 27.999 9.5l18 11
c3.33301 2 6.5 4.16699 9.5 6.5s7.16699 6.16602 12.5 11.499c4 4 7.5 6.83301 10.5 8.5s6.16699 2.5 9.5 2.5c4.66699 0 9 -2.16699 13 -6.5s7.33301 -8.16602 10 -11.499c4 -2 3.66699 -7.16699 -1 -15.5s-12.334 -18 -23.001 -29s-23 -20.833 -37 -29.5zM277.003 246.003
c6 2.66699 13.1689 7.33203 21.502 13.999s15.666 14 21.999 22s9.5 14.333 9.5 19c0 8.66699 -4.5 16 -13.5 22s-21.833 7 -38.5 3c-6.66699 -2 -14.334 -6.5 -23.001 -13.5s-17 -14.833 -25 -23.5s-14.5 -16.667 -19.5 -24s-7.5 -12 -7.5 -14c2 -3.33301 7.5 -6 16.5 -8
s19 -2.66699 30 -2s20.167 2.33398 27.5 5.00098z" />
    <glyph glyph-name="f" unicode="f" horiz-adv-x="294" 
d="M131 -111c-4 -2.66699 -10.0029 -1.17383 -18.0029 4.49316s-16.667 13.834 -26 24.501c-4.66699 5.33301 -7.66699 11 -9 17s-1 17.333 1 34c2.66699 7.33301 4.16699 14.333 4.5 21s0.5 11.334 0.5 14.001c0 4 1.16699 13.333 3.5 28l7.5 46.5
c2.66699 16.333 5 28.833 7 37.5c0 0.666992 0.333008 2.5 1 5.5s1.33398 5.5 2.00098 7.5c1.33301 6 3.16602 13.833 5.49902 23.5s4.5 21.834 6.5 36.501c5.33301 16.667 9.83301 33.167 13.5 49.5s5.5 27.5 5.5 33.5c0 12 4.66699 20.667 14 26
c0.666992 3.33301 2.66699 8.5 6 15.5s6.33301 12.833 9 17.5c13.333 38 24.333 68.167 33 90.5s17.667 41.833 27 58.5c4 11.333 8.5 23 13.5 35s10.167 21.333 15.5 28c3.33301 9.33301 11 20.833 23 34.5s24.667 26.834 38 39.501s24 22.334 32 29.001
c14.667 7.33301 27 12.666 37 15.999s22 5 36 5c12.667 0 22 -2 28 -6s15.333 -11.333 28 -22c8 -10 12.5 -17.333 13.5 -22s0.833008 -11 -0.5 -19c-2 -9.33301 -6.5 -21.166 -13.5 -35.499s-14 -27.333 -21 -39s-12.5 -17.834 -16.5 -18.501
c-8 -3.33301 -14.667 -3.16602 -20 0.500977s-8 10.5 -8 20.5c0 4.66699 -0.833008 9.16699 -2.5 13.5l-2.5 6.5c0.666992 4 1.83398 8.83301 3.50098 14.5s3.83398 10.834 6.50098 15.501c4 7.33301 5.16699 13.333 3.5 18s-7.5 6.33398 -17.5 5.00098
c-2 -1.33301 -6.83301 -5.16602 -14.5 -11.499l-24.5 -21c-8.66699 -7.66699 -16.167 -14.834 -22.5 -21.501s-9.5 -11 -9.5 -13l-4.5 -9c-3 -6 -8.16699 -13.333 -15.5 -22c-4.66699 -6.66699 -8.83398 -13.167 -12.501 -19.5s-5.5 -10.5 -5.5 -12.5
c0 -2.66699 -0.166992 -5.33398 -0.5 -8.00098s-2.16602 -4 -5.49902 -4l-3 -9.5c-2 -6.33301 -5.66699 -14.166 -11 -23.499c-2.66699 -6.66699 -5.83398 -13.167 -9.50098 -19.5s-6.83398 -10.833 -9.50098 -13.5v-1l-4.5 -12l-9.5 -25
c-3.33301 -8.66699 -5 -13.667 -5 -15c0 -2.66699 4.66699 -4 14 -4s20.333 1.16699 33 3.5s24.334 4.83301 35.001 7.5c9.33301 2.66699 15.666 4 18.999 4s10 -1.33301 20 -4c5.33301 -3.33301 9.66602 -8.5 12.999 -15.5s5.83301 -13.833 7.5 -20.5
s1.83398 -11.667 0.500977 -15c-0.666992 -2.66699 -8.16699 -6.33398 -22.5 -11.001s-28.5 -8.33398 -42.5 -11.001c-12 -2.66699 -26.167 -5.5 -42.5 -8.5s-30.833 -6 -43.5 -9s-19 -5.5 -19 -7.5c-2.66699 0 -5 -1.5 -7 -4.5s-3 -5.83301 -3 -8.5
c0 -8.66699 -1.33301 -15.667 -4 -21c-1.33301 -4 -3.66602 -12 -6.99902 -24s-6.66602 -25.333 -9.99902 -40s-6.16602 -28 -8.49902 -40s-3.5 -20 -3.5 -24c-4 -4.66699 -6.33301 -10.5 -7 -17.5s-1 -13.167 -1 -18.5
c-2.66699 -5.33301 -4.33398 -10.166 -5.00098 -14.499s-1 -7.83301 -1 -10.5v-4c0 -2 -0.333008 -4 -1 -6c-0.666992 -6.66699 -1.5 -15.5 -2.5 -26.5s-1.5 -21.833 -1.5 -32.5l-3 -29c-0.666992 -8.66699 -1.66699 -16.167 -3 -22.5s-3.66602 -11.166 -6.99902 -14.499z
" />
    <glyph glyph-name="g" unicode="g" horiz-adv-x="358" 
d="M208 -194c-18.667 -7.33301 -38.1621 -6.16992 -58.4951 3.49707s-37.833 24.834 -52.5 45.501c-2.66699 4 -6.16699 10.5 -10.5 19.5s-8.33301 18.333 -12 28s-6 18.167 -7 25.5s-0.5 11.666 1.5 12.999c2 4 6.16699 6 12.5 6s12.5 -1.33301 18.5 -4s9.66699 -6 11 -10
c2 -4.66699 4.66699 -10.167 8 -16.5s7.33301 -12.333 12 -18s8.33398 -9.16699 11.001 -10.5c10.667 -8 19.5 -12.5 26.5 -13.5s12.833 0.166992 17.5 3.5c11.333 8.66699 20.333 19.667 27 33s14.667 34.666 24 63.999l21.5 73.5c7 24.333 13.5 44.166 19.5 59.499
c2 8 4.5 14.833 7.5 20.5s5.83301 9.83398 8.5 12.501h6c-14.667 -9.33301 -27.5 -19.5 -38.5 -30.5s-25.167 -20.167 -42.5 -27.5c-4 -4.66699 -13.833 -7.5 -29.5 -8.5s-30.834 0.833008 -45.501 5.5c-9.33301 5.33301 -16.333 9.83301 -21 13.5
s-8.33398 8.33398 -11.001 14.001s-6 13.5 -10 23.5c-4.66699 10 -5.33398 26.333 -2.00098 49s9.33301 45.334 18 68.001c8 16.667 19.667 34.667 35 54s31.666 36.833 48.999 52.5s33 25.5 47 29.5c5.33301 2.66699 12.333 4.83398 21 6.50098s19 0.833984 31 -2.49902
c11.333 -1.33301 20 -3.83301 26 -7.5s15.667 -11.167 29 -22.5c8.66699 -8.66699 17 -18.167 25 -28.5s13.667 -20.166 17 -29.499c4.66699 -10 6.16699 -19.667 4.5 -29s-5.83398 -18.333 -12.501 -27c-6 -8.66699 -12.333 -17.334 -19 -26.001s-11.667 -20.667 -15 -36
c-3.33301 -20 -9 -42.5 -17 -67.5s-14.667 -48.167 -20 -69.5l-16 -62c-16.667 -56.667 -33.334 -98.5 -50.001 -125.5s-31.667 -44.167 -45 -51.5zM177.005 133.996c13.333 0.666992 25.6699 3 37.0029 7s22.166 11 32.499 21s21.166 23.667 32.499 41
c11.333 16 19.333 32.167 24 48.5s6.33398 32.833 5.00098 49.5c-0.666992 10.667 -2.83398 17.667 -6.50098 21s-9.83398 4.33301 -18.501 3c-12.667 -2 -25.667 -8.33301 -39 -19s-26.666 -24.667 -39.999 -42c-10 -13.333 -18.333 -29.333 -25 -48
c-6.66699 -20 -10.334 -38 -11.001 -54s2.33301 -25.333 9 -28z" />
    <glyph glyph-name="h" unicode="h" horiz-adv-x="467" 
d="M137 49c-4.66699 -0.666992 -9.66797 0.000976562 -15.001 2.00098s-10.333 4.66699 -15 8c-5.33301 6 -9.16602 11 -11.499 15s-3.16602 9.5 -2.49902 16.5s2.33398 16.833 5.00098 29.5c3.33301 10.667 7.33301 25.334 12 44.001s10 37.667 16 57
c1.33301 10 3.83301 20.5 7.5 31.5s7.5 21.5 11.5 31.5l9 23c5.33301 18 10.5 34.167 15.5 48.5s11.167 31 18.5 50s16.333 43.833 27 74.5l33.5 91l16.5 45c3.33301 9.33301 5.66602 16.666 6.99902 21.999c0 5.33301 2.33301 9.66602 7 12.999s9.66699 5 15 5
c9.33301 0 17.333 -4.66699 24 -14s11 -20.5 13 -33.5s-0.333008 -25.5 -7 -37.5c-10.667 -24 -21.667 -51.833 -33 -83.5l-33.5 -94c-11 -31 -21.5 -57.833 -31.5 -80.5c0 -3.33301 -1.33301 -8.5 -4 -15.5s-5.33398 -13.167 -8.00098 -18.5l-7.5 -15l-3.5 -7
c0 -3.33301 -1 -8.66602 -3 -15.999s-4.33301 -15.333 -7 -24l-7.5 -25c-3 -10 -5.16699 -19 -6.5 -27c3.33301 5.33301 9.66602 13 18.999 23s18.666 19.333 27.999 28l33 28.5c11.333 9.66699 21 17.167 29 22.5s15.167 10.333 21.5 15l9.5 7c0.666992 2 2 3.66699 4 5
s4.33301 2 7 2c2 0.666992 3.66699 1.5 5 2.5s2.66602 2.83301 3.99902 5.5c2 4 6.66699 7.33301 14 10s15.666 4.66699 24.999 6s17.333 2 24 2c8 0 15 -2.16699 21 -6.5s12.667 -12.166 20 -23.499c7.33301 -10 12 -21.833 14 -35.5s1 -29.167 -3 -46.5
c0 -5.33301 -1 -13.666 -3 -24.999s-3.33301 -21.666 -4 -30.999l-7 -33h14c6 0.666992 11.667 0.166992 17 -1.5l8 -2.5c2.66699 -2.66699 5.5 -5.16699 8.5 -7.5s5.83301 -3.83301 8.5 -4.5c6.66699 -1.33301 8.33398 -5.83301 5.00098 -13.5
s-8.66602 -13.834 -15.999 -18.501c-16 -10.667 -30.333 -16.5 -43 -17.5s-25 3.16699 -37 12.5c-11.333 10.667 -18.5 22.667 -21.5 36s-2.83301 30.666 0.5 51.999c2.66699 29.333 4.33398 50.666 5.00098 63.999s-2.66602 20 -9.99902 20s-18.833 -4.33301 -34.5 -13
s-33.167 -20.167 -52.5 -34.5s-38.333 -30.333 -57 -48s-34.667 -35.834 -48 -54.501c-8 -10 -16 -19.167 -24 -27.5s-16.667 -12.833 -26 -13.5z" />
    <glyph glyph-name="i" unicode="i" horiz-adv-x="190" 
d="M108 27c-5.33301 5.33301 -9.1709 12.498 -11.5039 21.498s-3.16602 17.833 -2.49902 26.5s2.33398 15.667 5.00098 21c0 5.33301 0.833008 9.5 2.5 12.5s2.16699 5.83301 1.5 8.5s0 7.33398 2 14.001s4 13 6 19c4.66699 10.667 9.83398 23.834 15.501 39.501
s11 31.334 16 47.001l13 40.5c3.66699 11.333 5.83398 18.333 6.50098 21c0 8 5.33301 12.333 16 13c8 2.66699 15.167 1.66699 21.5 -3s12.833 -12.334 19.5 -23.001c5.33301 -5.33301 7.33301 -13 6 -23s-5.66602 -23 -12.999 -39
c-2.66699 -5.33301 -5.83398 -13.333 -9.50098 -24s-6.16699 -20 -7.5 -28c-2.66699 -5.33301 -5.83398 -12.833 -9.50098 -22.5s-6.83398 -18.834 -9.50098 -27.501c-1.33301 -3.33301 -2.66602 -8.66602 -3.99902 -15.999s-3 -14.833 -5 -22.5s-4.66699 -14.167 -8 -19.5
c-6 -27.333 -13.167 -43.333 -21.5 -48s-18.166 -0.666992 -29.499 12zM208.995 430.998c-4.66699 4 -8.49902 9.49707 -11.499 16.4971s-4.83301 13.333 -5.5 19s0 8.83398 2 9.50098c6 2.66699 12.167 9.5 18.5 20.5s10.166 20.833 11.499 29.5
c0.666992 2.66699 2 5.33398 4 8.00098s4.33301 4.33398 7 5.00098c8 5.33301 17 5.83301 27 1.5s18.333 -11.833 25 -22.5c6 -12.667 7.66699 -24 5 -34s-10 -22.333 -22 -37c-10 -13.333 -20.333 -21 -31 -23s-20.667 0.333008 -30 7z" />
    <glyph glyph-name="j" unicode="j" horiz-adv-x="207" 
d="M62 -199c-14.667 -14.667 -33.4971 -21.834 -56.4971 -21.501s-42.5 8.83301 -58.5 25.5c-10.667 15.333 -18.334 31.166 -23.001 47.499s-6.33398 30.333 -5.00098 42s6 17.5 14 17.5c3.33301 0 6.83301 -1.16699 10.5 -3.5s7.16699 -5.33301 10.5 -9
s5 -8.16699 5 -13.5c0 -10 1.83301 -18.833 5.5 -26.5s9.83398 -11.834 18.501 -12.501c7.33301 -2.66699 16.333 -1 27 5s19.667 15 27 27c6.66699 8.66699 14.667 22.334 24 41.001s18.5 38.167 27.5 58.5s15.833 36.833 20.5 49.5c8 27.333 14.833 55.166 20.5 83.499
l18.5 91.5c2.66699 18 5.83398 33.5 9.50098 46.5s5.5 20.833 5.5 23.5s0.333008 8.16699 1 16.5s2.66699 15.833 6 22.5c0 10 1.16699 19.667 3.5 29s3.5 15.333 3.5 18c2 2 5.16699 2.5 9.5 1.5s9.16602 -2.66699 14.499 -5s9.66602 -5.16602 12.999 -8.49902
c5.33301 -5.33301 9.16602 -10.833 11.499 -16.5s3.5 -14.5 3.5 -26.5s-1.66699 -31 -5 -57c0 -4 -1 -12.167 -3 -24.5s-4.66699 -26.166 -8 -41.499l-10 -44.5c-3.33301 -14.333 -6 -26.166 -8 -35.499l-9 -33c-3.33301 -12 -5.33301 -20.333 -6 -25
c-0.666992 -4 -3 -11.833 -7 -23.5s-8.16699 -23.167 -12.5 -34.5s-6.83301 -19.333 -7.5 -24c-0.666992 -2.66699 -2.5 -9 -5.5 -19s-9.16699 -25.333 -18.5 -46c-3.33301 -8 -9.33301 -18.667 -18 -32s-17.5 -26 -26.5 -38s-16.5 -20.333 -22.5 -25zM216.003 482
c-7.33301 8.66699 -9.66895 20.834 -7.00195 36.501s9.33398 30.5 20.001 44.5c8.66699 10 18.834 15.667 30.501 17s21.834 -1.66699 30.501 -9c7.33301 -11.333 11.333 -21.166 12 -29.499s-2.66602 -17.833 -9.99902 -28.5
c-16.667 -18.667 -31.334 -30.334 -44.001 -35.001s-23.334 -3.33398 -32.001 3.99902z" />
    <glyph glyph-name="k" unicode="k" horiz-adv-x="368" 
d="M117 2c-5.33301 2 -11.3242 6.66211 -17.9912 13.9951s-12.5 15.666 -17.5 24.999s-7.5 17.666 -7.5 24.999c3.33301 7.33301 7.66602 20.333 12.999 39s12 39.667 20 63c5.33301 7.33301 9.5 16 12.5 26s5.83301 19 8.5 27c5.33301 11.333 11.5 25.166 18.5 41.499
l21 50l18.5 43.5c8.66699 18.667 16.167 35.5 22.5 50.5l19 45.5l20.5 50l25.5 58.5l22 53c6.33301 15.667 10.166 26.834 11.499 33.501c0 5.33301 1 9.33301 3 12s4.66699 4 8 4c2.66699 2.66699 6.16699 4.16699 10.5 4.5s7.83301 0.5 10.5 0.5
c4 -0.666992 10 -6.16699 18 -16.5s12 -19.5 12 -27.5c0 -10.667 -5.16699 -30.667 -15.5 -60s-24.833 -63 -43.5 -101c-23.333 -49.333 -41.5 -89.166 -54.5 -119.499s-22 -52.666 -27 -66.999s-6.83301 -22.5 -5.5 -24.5l12 5c8 3.33301 17.333 9 28 17
c7.33301 4 15.333 9.33301 24 16s17.167 12.834 25.5 18.501s15.166 9.16699 20.499 10.5c6.66699 4.66699 13.834 9.33398 21.501 14.001s13.5 8.33398 17.5 11.001c11.333 6.66699 20.166 8.83398 26.499 6.50098s12.5 -7.5 18.5 -15.5
c7.33301 -8.66699 9.16602 -16.834 5.49902 -24.501s-14.5 -17.5 -32.5 -29.5c-14 -9.33301 -30.333 -19.666 -49 -30.999l-50 -30c-14.667 -8.66699 -23.667 -14.334 -27 -17.001l8.5 -14.5c5.66699 -9.66699 11.167 -18.5 16.5 -26.5
c5.33301 -10.667 11.333 -21.667 18 -33s10.667 -19.333 12 -24c7.33301 -17.333 17.166 -29.666 29.499 -36.999s26.5 -7.66602 42.5 -0.999023c12 4.66699 21.333 5.83398 28 3.50098s11.667 -7.16602 15 -14.499c2.66699 -5.33301 3.66699 -9.66602 3 -12.999
s-5 -9 -13 -17c-14.667 -12.667 -29.334 -21.667 -44.001 -27s-28.334 -4.33301 -41.001 3c-11.333 3.33301 -23.833 11.833 -37.5 25.5s-32.167 35.5 -55.5 65.5c0 2.66699 -1.5 7.16699 -4.5 13.5s-5.5 11.166 -7.5 14.499
c-2.66699 5.33301 -5.83398 10.833 -9.50098 16.5l-5.5 8.5c-0.666992 4 -2.16699 8 -4.5 12s-5.5 7.66699 -9.5 11c-8 1.33301 -14.167 -1.16699 -18.5 -7.5s-8.83301 -13.5 -13.5 -21.5c-3.33301 -8.66699 -7.33301 -19.834 -12 -33.501s-8.5 -27.334 -11.5 -41.001
s-4.16699 -24.834 -3.5 -33.501c0.666992 -9.33301 -1.33301 -16.666 -6 -21.999s-12.334 -8 -23.001 -8z" />
    <glyph glyph-name="l" unicode="l" horiz-adv-x="172" 
d="M134 -4c-12.667 -3.33301 -23.167 -0.334961 -31.5 8.99805s-13.666 23.333 -15.999 42s-0.833008 40.334 4.5 65.001c3.33301 8 6 15.833 8 23.5s3 13.834 3 18.501c1.33301 6.66699 4 16.5 8 29.5l13 40.5c4.66699 14 9.16699 26.5 13.5 37.5
s7.16602 17.833 8.49902 20.5c2.66699 0 5 2.33301 7 7s3 9.33398 3 14.001c0 5.33301 1.16699 11.333 3.5 18s4.83301 11.334 7.5 14.001c0 3.33301 0.833008 7.16602 2.5 11.499s2.5 7.83301 2.5 10.5s0.833008 5.33398 2.5 8.00098s2.5 5.33398 2.5 8.00098
c4.66699 8.66699 10.834 22.5 18.501 41.5l25 63.5l25.5 69c8 22.667 14.5 41.834 19.5 57.501s7.5 25.167 7.5 28.5c0 5.33301 1.5 9.66602 4.5 12.999s7.16699 5 12.5 5c2 2 5.33301 3.33301 10 4s8.33398 1 11.001 1l4 -4l12 -12
c5.33301 -4.66699 9.16602 -10 11.499 -16s3.5 -13 3.5 -21c0 -8.66699 -1.16699 -16.5 -3.5 -23.5s-6.5 -17 -12.5 -30l-28 -59.5c-5.33301 -13.333 -11 -25.833 -17 -37.5s-9 -18.834 -9 -21.501s-1.16699 -6.66699 -3.5 -12s-4.83301 -12 -7.5 -20
c-2.66699 -5.33301 -6.33398 -13.166 -11.001 -23.499l-14.5 -33l-12.5 -30c-3.33301 -8.33301 -5 -13.166 -5 -14.499c0 -2.66699 -0.166992 -5.33398 -0.5 -8.00098s-1.83301 -5.33398 -4.5 -8.00098c-2.66699 0 -4.16699 -1.83301 -4.5 -5.5l-0.5 -5.5
c0 -6.66699 -5.33301 -24.334 -16 -53.001l-29.5 -101c-9 -30.667 -13.5 -55.334 -13.5 -74.001c0 -16 -1 -27.167 -3 -33.5s-5.66699 -10.833 -11 -13.5z" />
    <glyph glyph-name="m" unicode="m" horiz-adv-x="563" 
d="M556 36c-4 1.33301 -9.83984 5.00391 -17.5068 11.0039s-14.334 15.833 -20.001 29.5s-8.5 32.167 -8.5 55.5c0.666992 20 1.5 35.167 2.5 45.5s-0.833008 15.5 -5.5 15.5s-13.667 -4.5 -27 -13.5s-29.166 -21.667 -47.499 -38s-37.833 -35.833 -58.5 -58.5
c-7.33301 -6.66699 -14.666 -13.834 -21.999 -21.501s-14.666 -12.834 -21.999 -15.501s-15 -0.666992 -23 6l-10 9c-4 3.33301 -6.83301 7.33301 -8.5 12s-1.83398 9.33398 -0.500977 14.001l25 70c10 22 16.833 38 20.5 48s5.33398 16.333 5.00098 19s-1.5 3.66699 -3.5 3
c-5.33301 -0.666992 -12.666 -4 -21.999 -10s-15.666 -11.333 -18.999 -16c-2.66699 0 -6.5 -3 -11.5 -9s-10.833 -11.333 -17.5 -16c-4.66699 -6.66699 -13.167 -16 -25.5 -28l-37.5 -38c-8.66699 -7.33301 -17.667 -16.833 -27 -28.5l-24 -30.5
c-6.66699 -8.66699 -11 -13 -13 -13c-10 0 -18.833 2.83301 -26.5 8.5s-13.167 13.834 -16.5 24.501c-5.33301 10 -5.66602 25 -0.999023 45l19 84c2.66699 10 4.5 17.833 5.5 23.5s2.5 11.334 4.5 17.001s5.16699 13.667 9.5 24l18.5 43.5c4 11.333 6.33301 20.5 7 27.5
s0.666992 12.5 0 16.5c0 7.33301 2.33301 13.666 7 18.999s10.167 9 16.5 11s11.833 2.33301 16.5 1c10.667 -1.33301 19 -6 25 -14s9.33301 -17.333 10 -28c0.666992 -8.66699 -0.166016 -16.334 -2.49902 -23.001l-6.5 -18l-11 -27
c-4.66699 -10 -9.16699 -20.833 -13.5 -32.5l-11 -30.5c-3 -8.66699 -4.5 -14 -4.5 -16c0.666992 -2 3.33398 -1.33301 8.00098 2s10.334 8 17.001 14s13.334 11.667 20.001 17c13.333 12.667 28.166 24.834 44.499 36.501s32 21.667 47 30s26.833 13.833 35.5 16.5
c11.333 -0.666992 20.166 -3.83398 26.499 -9.50098s13.5 -13.167 21.5 -22.5c4 -6.66699 5.83301 -13.834 5.5 -21.501s-1.16602 -14.834 -2.49902 -21.501c-0.666992 -2.66699 -2.5 -8.66699 -5.5 -18l-8.5 -26.5l-4 -12.5l10 9l22.5 19.5
c8.33301 7 15.166 12.5 20.499 16.5c28.667 22 52.667 35.833 72 41.5s35.333 -0.833008 48 -19.5c8 -7.33301 12.5 -16 13.5 -26s1.5 -25.667 1.5 -47c0.666992 -8.66699 1.33398 -18.834 2.00098 -30.501s1.66699 -22 3 -31s2.66602 -14.5 3.99902 -16.5
c2 -2.66699 5.83301 -5 11.5 -7s12.167 -3.66699 19.5 -5c10 -2.66699 15.833 -8.5 17.5 -17.5s-2.83301 -16.833 -13.5 -23.5c-10 -6 -20.833 -9 -32.5 -9s-22.5 1.33301 -32.5 4z" />
    <glyph glyph-name="n" unicode="n" horiz-adv-x="453" 
d="M450 39c-13.333 0 -24.498 2.83105 -33.498 8.49805s-16.5 15.5 -22.5 29.5c-2.66699 9.33301 -4.5 19.833 -5.5 31.5s-1.33301 22.834 -1 33.501s1.16602 18.334 2.49902 23.001c2 2.66699 2.83301 7 2.5 13s-0.5 12 -0.5 18c-0.666992 12.667 -3.5 19.834 -8.5 21.501
s-12.5 0.166992 -22.5 -4.5c-12.667 -7.33301 -28.167 -17 -46.5 -29l-57.5 -39.5c-20 -14.333 -39.333 -29.5 -58 -45.5c-14.667 -16 -24.167 -28.5 -28.5 -37.5s-9.5 -13.5 -15.5 -13.5c-5.33301 -2.66699 -10.166 -2.5 -14.499 0.5s-9.83301 7.16699 -16.5 12.5l-15 17
c-5.33301 6 -8.66602 10.333 -9.99902 13c0 6 1 14 3 24s4.5 20 7.5 30s5.83301 18.333 8.5 25c3.33301 1.33301 6.16602 5 8.49902 11s5.83301 12.667 10.5 20c2 8.66699 5.66699 19.5 11 32.5l15 35.5c8.66699 16.667 14.834 30.667 18.501 42s6.5 24.666 8.5 39.999
c-0.666992 2.66699 -0.166992 5.16699 1.5 7.5s3.83398 3.5 6.50098 3.5h1v0c5.33301 4.66699 12.5 5.83398 21.5 3.50098s16.833 -6.83301 23.5 -13.5c12.667 -14.667 18 -31 16 -49s-12.667 -42.667 -32 -74l-11.5 -26c-3 -6.66699 -4.5 -11.667 -4.5 -15l9.5 6.5
c6.33301 4.33301 13.666 9.66602 21.999 15.999s15.166 11.166 20.499 14.499c3.33301 3.33301 11 9.33301 23 18l38 26.5c13.333 9 23.666 14.833 30.999 17.5c6 3.33301 12.833 6.66602 20.5 9.99902s12.834 5 15.501 5c6 0 13.333 -2.66699 22 -8
s16.834 -11.5 24.501 -18.5s12.167 -13.167 13.5 -18.5v-9c0 -3.33301 0.333008 -6.33301 1 -9c1.33301 -9.33301 2.16602 -21.5 2.49902 -36.5s0.166016 -29 -0.500977 -42s-2.66699 -22.167 -6 -27.5l0.5 -2c0.333008 -1.33301 1.5 -2.33301 3.5 -3v-4v-1
c-1.33301 -2 -1.5 -5.66699 -0.5 -11s3.16699 -11.166 6.5 -17.499s6.66602 -12.166 9.99902 -17.499c5.33301 -8 6 -15.833 2 -23.5s-11 -12.5 -21 -14.5z" />
    <glyph glyph-name="o" unicode="o" horiz-adv-x="356" 
d="M169 12c-8.66699 0 -15.498 1.66895 -20.498 5.00195s-11.167 8 -18.5 14c-12.667 13.333 -22.167 26.666 -28.5 39.999s-8.5 25.666 -6.5 36.999c2 5.33301 2.83301 10.5 2.5 15.5l-0.5 7.5c-3.33301 3.33301 -4.33301 5.5 -3 6.5s2.66602 2.83301 3.99902 5.5
c4 0 5.33301 3.66699 4 11c-1.33301 5.33301 1.16699 17 7.5 35s14.5 35 24.5 51c4 6.66699 10 15.5 18 26.5s16.833 22 26.5 33s18.5 19.833 26.5 26.5c16.667 14 31.667 24.667 45 32s27.333 12.666 42 15.999s26.5 5 35.5 5s18.5 -5.33301 28.5 -16
c15.333 -6.66699 26.333 -15 33 -25s11 -24 13 -42c2 -20 0.333008 -43.333 -5 -70s-21.333 -59 -48 -97c-16.667 -24 -32.334 -42.167 -47.001 -54.5s-31.667 -24.166 -51 -35.499c-14 -9.33301 -27.333 -15.833 -40 -19.5s-26.667 -6.16699 -42 -7.5zM267.002 124.002
c15.333 16 27.332 31.833 35.999 47.5s17 35.167 25 58.5c2.66699 6.66699 4.33398 15.167 5.00098 25.5s0.666992 20.166 0 29.499s-3 14.666 -7 15.999c-7.33301 4.66699 -15.833 6.16699 -25.5 4.5s-20.5 -7.5 -32.5 -17.5
c-20.667 -17.333 -38.834 -38.166 -54.501 -62.499s-29.5 -52.5 -41.5 -84.5c-7.33301 -21.333 -8.16602 -38.166 -2.49902 -50.499s17 -16.5 34 -12.5s38.167 19.333 63.5 46z" />
    <glyph glyph-name="p" unicode="p" horiz-adv-x="378" 
d="M61 -227c-2.66699 0 -6.16406 -0.171875 -10.4971 -0.504883s-8.16602 2.5 -11.499 8.5c-2.66699 3.33301 -5 8.83301 -7 16.5s-1.33301 20.167 2 37.5c3.33301 11.333 6 22.5 8 33.5s3 19.167 3 24.5c0 2.66699 0.833008 7.83398 2.5 15.501s2.5 13.167 2.5 16.5
c3.33301 5.33301 6 12.666 8 21.999s3 17.666 3 24.999c0 8 4 15.333 12 22c0 5.33301 1.16699 12 3.5 20s3.5 13.333 3.5 16c2 9.33301 6.5 25.833 13.5 49.5s15.667 50.5 26 80.5l30.5 88c10 28.667 19 53 27 73c8 18.667 13.833 35.167 17.5 49.5s5.5 24.833 5.5 31.5
c0 2.66699 0.666992 4.83398 2 6.50098s4.33301 5.16699 9 10.5c6.66699 6.66699 13.5 8.83398 20.5 6.50098s14.167 -6.16602 21.5 -11.499c5.33301 -8.66699 9.16602 -16.167 11.499 -22.5s2.16602 -16.833 -0.500977 -31.5c0 -10 -1.83301 -18.833 -5.5 -26.5
s-7 -13.5 -10 -17.5s-3.83301 -5.66699 -2.5 -5c28 14.667 53 22.5 75 23.5s40.5 -2.83301 55.5 -11.5s26.333 -20.667 34 -36s11.5 -32.666 11.5 -51.999c0 -8 -2 -17.833 -6 -29.5s-8.83301 -22.5 -14.5 -32.5s-10.5 -17 -14.5 -21
c-2.66699 0 -5.33398 -2.16699 -8.00098 -6.5s-5.33398 -9.16602 -8.00098 -14.499c-5.33301 -6.66699 -13.833 -14.167 -25.5 -22.5s-23.5 -15 -35.5 -20s-20.667 -6.5 -26 -4.5l-2.5 -1c-1.66699 -0.666992 -2.5 -2.66699 -2.5 -6c0 -1.33301 -5 -4.16602 -15 -8.49902
s-21.833 -8.16602 -35.5 -11.499s-25.834 -5 -36.501 -5c-14 0 -24 2.66699 -30 8c-1.33301 -1.33301 -2.83301 -3.33301 -4.5 -6s-2.5 -5 -2.5 -7c0 -4 -1.5 -11.167 -4.5 -21.5s-6.5 -20 -10.5 -29s-7.66699 -13.5 -11 -13.5l-2 -3
c-1.33301 -2 -0.666016 -4.66699 2.00098 -8l-0.5 -11.5c-0.333008 -7.66699 -2.16602 -14.167 -5.49902 -19.5c0 -5.33301 -1 -13.333 -3 -24s-4.33301 -18.667 -7 -24c0 -8 -1.16699 -15.833 -3.5 -23.5s-4.83301 -11.5 -7.5 -11.5
c-2.66699 -0.666992 -4.33398 -4.83398 -5.00098 -12.501s-1 -13.167 -1 -16.5c-0.666992 -16.667 -4.66699 -30.167 -12 -40.5s-15 -15.5 -23 -15.5zM184.003 111.995c5.33301 0 15.998 2.33398 31.998 7.00098s32.333 10.5 49 17.5s29.334 14.167 38.001 21.5
c17.333 15.333 30.833 32 40.5 50s8.83398 36 -2.49902 54c-5.33301 9.33301 -14.5 13.166 -27.5 11.499s-27.5 -7.16699 -43.5 -16.5s-31.333 -21 -46 -35c-8 -8.66699 -15.333 -19 -22 -31s-12.167 -24 -16.5 -36s-6.83301 -22.167 -7.5 -30.5s1.33301 -12.5 6 -12.5z" />
    <glyph glyph-name="q" unicode="q" horiz-adv-x="377" 
d="M246 -224c-8 5.33301 -14.498 10.8359 -19.498 16.5029s-9.16699 15.167 -12.5 28.5c-3.33301 18 -3.5 41.5 -0.5 70.5s8.83301 60.833 17.5 95.5s19 69.667 31 105c3.33301 5.33301 5.83301 11.5 7.5 18.5s2.16699 11.833 1.5 14.5
c-31.333 -15.333 -54.833 -26.333 -70.5 -33s-29.167 -10 -40.5 -10c-8.66699 0 -17.834 4.16699 -27.501 12.5s-17.834 18.5 -24.501 30.5s-10 23.333 -10 34s5.5 26.5 16.5 47.5s23.167 40.833 36.5 59.5c5.33301 9.33301 14.666 20.166 27.999 32.499s27.333 24 42 35
s26.334 19.167 35.001 24.5c5.33301 3.33301 10.666 6.16602 15.999 8.49902s10.666 4.83301 15.999 7.5c5.33301 3.33301 10.333 6 15 8s8.33398 3 11.001 3c10.667 2.66699 23 3.83398 37 3.50098s25 -1.83301 33 -4.5c8 -5.33301 16.333 -14.5 25 -27.5
s14.334 -26.167 17.001 -39.5c0 -6.66699 -0.333008 -12.834 -1 -18.501s-2.83398 -13.167 -6.50098 -22.5s-10.167 -24 -19.5 -44c-10.667 -16 -19.5 -31.667 -26.5 -47s-10.5 -24.333 -10.5 -27c-3.33301 -8.66699 -8.16602 -20 -14.499 -34l-17.5 -38.5
c-5.33301 -11.667 -9 -19.5 -11 -23.5c-1.33301 -6.66699 -4.33301 -18.5 -9 -35.5s-9.5 -35.667 -14.5 -56s-9.5 -39.5 -13.5 -57.5c-5.33301 -29.333 -8 -55 -8 -77s2.66699 -37 8 -45c2.66699 -8 0 -13.833 -8 -17.5s-17.333 -2.83398 -28 2.49902zM165.002 150.003
c22 -5.33301 43.668 -1.49805 65.001 11.502s42.333 29.5 63 49.5c11.333 10.667 22 23.667 32 39s17.667 29.666 23 42.999s7 22.666 5 27.999c-2.66699 5.33301 -11.834 4.83301 -27.501 -1.5s-34.167 -17.5 -55.5 -33.5c-24 -18.667 -43.667 -36.5 -59 -53.5
s-27 -34.833 -35 -53.5z" />
    <glyph glyph-name="r" unicode="r" horiz-adv-x="360" 
d="M119 32c-6 4.66699 -11.002 9.83105 -15.002 15.498s-5 15.167 -3 28.5c2 18.667 4.66699 35.167 8 49.5l12 49.5c1.33301 8 5.16602 21.667 11.499 41s13.833 40.333 22.5 63s17.667 44.167 27 64.5s17.333 35.5 24 45.5c6 4.66699 13.833 6.83398 23.5 6.50098
s17.167 -3.16602 22.5 -8.49902c7.33301 -6 9 -16.5 5 -31.5s-14 -38.5 -30 -70.5c-6 -14.667 -11.167 -26.5 -15.5 -35.5s-6.66602 -15 -6.99902 -18s1.83398 -3.16699 6.50098 -0.5c4 7.33301 11.333 15.833 22 25.5s22 19.167 34 28.5s23.333 17.666 34 24.999
s18 12 22 14c5.33301 3.33301 11.5 6.16602 18.5 8.49902s11.833 4.16602 14.5 5.49902c15.333 7.33301 31.333 10 48 8s27 -8 31 -18c0.666992 -5.33301 2.83398 -9.33301 6.50098 -12l5.5 -4c2.66699 0 4.16699 -1 4.5 -3l0.5 -3c0 -4.66699 -3.83301 -8.66699 -11.5 -12
s-16.834 -5.33301 -27.501 -6c-8.66699 -0.666992 -16.334 -2.33398 -23.001 -5.00098l-24 -10l-71 -42c-22 -13.333 -43.667 -31.666 -65 -54.999c-4.66699 -5.33301 -9.5 -11.166 -14.5 -17.499s-10.167 -13.833 -15.5 -22.5
c-3.33301 -3.33301 -6.66602 -10.666 -9.99902 -21.999s-6.16602 -22.166 -8.49902 -32.499s-3.5 -16.5 -3.5 -18.5l-3 -9.5c-2 -6.33301 -5.33301 -12.5 -10 -18.5c-8 -10.667 -15 -16.5 -21 -17.5s-14.333 3.83301 -25 14.5z" />
    <glyph glyph-name="s" unicode="s" horiz-adv-x="344" 
d="M158 -5c-16 6.66699 -29.4922 14.8271 -40.4922 24.4941s-17.167 17.834 -18.5 24.501c0.666992 5.33301 2.16699 9.33301 4.5 12s8.66602 3.83398 18.999 3.50098s26.833 -2.5 49.5 -6.5c8 0 17.167 0.5 27.5 1.5s20 2.66699 29 5s14.833 5.16602 17.5 8.49902
c3.33301 0.666992 4 2.16699 2 4.5s-4.33301 4.83301 -7 7.5c-2.66699 0.666992 -5.66699 2 -9 4s-6.33301 3 -9 3c-0.666992 3.33301 -3.83398 7 -9.50098 11s-11.5 7.66699 -17.5 11l-39 32c-11.333 9.33301 -15.666 16 -12.999 20v4.5v0.5
c-4.66699 0 -9.5 6.66699 -14.5 20s-7.5 25.333 -7.5 36c0 9.33301 2.5 20.333 7.5 33s11.667 25.5 20 38.5s16.833 23.833 25.5 32.5c12.667 12 27.334 24.167 44.001 36.5s33.667 23.5 51 33.5s33.666 17 48.999 21c10.667 4 21.5 6 32.5 6s20.167 -2 27.5 -6
c6 -1.33301 12.167 -5 18.5 -11s12.333 -12.5 18 -19.5s9.5 -13.5 11.5 -19.5c0 -8 -0.5 -17.167 -1.5 -27.5s-2.5 -19.333 -4.5 -27s-5.33301 -11.5 -10 -11.5l-2.5 -0.5c-1.66699 -0.333008 -2.5 -2.16602 -2.5 -5.49902c0 -6.66699 -5 -14.334 -15 -23.001
c-12.667 -8.66699 -24 -14.5 -34 -17.5s-16.667 -0.833008 -20 6.5c-2.66699 2.66699 -4.66699 5.16699 -6 7.5s-3.33301 4.16602 -6 5.49902l-3 3.5c-2 2.33301 -3 5.5 -3 9.5c0 2.66699 1 5.16699 3 7.5l3 3.5c5.33301 2.66699 10.666 7.83398 15.999 15.501
s9.66602 15.334 12.999 23.001s5 13.167 5 16.5c0 4 -0.5 6.5 -1.5 7.5s-4.16699 1.5 -9.5 1.5c-7.33301 -2.66699 -17.333 -7.16699 -30 -13.5s-24.834 -12.833 -36.501 -19.5s-20.5 -13 -26.5 -19c-2.66699 -4.66699 -4.33398 -7.5 -5.00098 -8.5
s-2.33398 -1.5 -5.00098 -1.5c0 2.66699 -2 1.83398 -6 -2.49902s-9 -10.5 -15 -18.5l-17 -23.5l-12 -17.5c-0.666992 -2.66699 -2 -7 -4 -13s-3 -11.667 -3 -17c-1.33301 -7.33301 0.166992 -13 4.5 -17s12.166 -10.667 23.499 -20c23.333 -17.333 41.333 -31.5 54 -42.5
s22 -20 28 -27s9.66699 -13.5 11 -19.5c12 -20 15 -36 9 -48s-18 -22 -36 -30c-6.66699 -3.33301 -18 -6.16602 -34 -8.49902s-32.333 -3.66602 -49 -3.99902s-30.334 0.833984 -41.001 3.50098z" />
    <glyph glyph-name="t" unicode="t" horiz-adv-x="331" 
d="M176 4c-7.33301 1.33301 -15.0088 5.49902 -23.0088 12.499s-15 14.833 -21 23.5s-10 16.334 -12 23.001c0 1.33301 -0.833008 3 -2.5 5l-2.5 3c-2.66699 2 -4.16699 10.833 -4.5 26.5s0.5 33.167 2.5 52.5s4.33301 34.666 7 45.999
c3.33301 10.667 8.33301 25.167 15 43.5s12.334 34.833 17.001 49.5l27 58l-40 11c-4.66699 1.33301 -8.5 4 -11.5 8s-4.5 7.33301 -4.5 10c0 5.33301 3 12.166 9 20.499s10.333 12.5 13 12.5c3.33301 -0.666992 9.5 -1 18.5 -1s17.833 0.333008 26.5 1
s14 1.33398 16 2.00098c2.66699 1.33301 5.33398 3.16602 8.00098 5.49902s4.66699 5.83301 6 10.5l9 19.5c2.66699 5.66699 6.33398 12.5 11.001 20.5l11.5 22c3 6 7.83301 14.333 14.5 25c3.33301 4.66699 7 10.334 11 17.001s9 12.334 15 17.001
c6 5.33301 13.333 8.33301 22 9s18 -3.33301 28 -12c5.33301 -6.66699 8.33301 -12.167 9 -16.5s-2 -11.166 -8 -20.499c-5.33301 -11.333 -11.5 -22.333 -18.5 -33s-13.5 -21.667 -19.5 -33c-10.667 -14.667 -12.667 -23 -6 -25s25.334 -0.666992 56.001 4
c19.333 3.33301 33.333 2.16602 42 -3.50098s13.667 -14.167 15 -25.5c2 -16 0.333008 -25.667 -5 -29s-20.666 -5 -45.999 -5c-16 -2.66699 -29.667 -4.16699 -41 -4.5s-19.666 -0.5 -24.999 -0.5c-8.66699 -0.666992 -14.334 -1 -17.001 -1s-6.66699 -0.666992 -12 -2
s-9.16602 -3.5 -11.499 -6.5s-4.83301 -7.16699 -7.5 -12.5c-2.66699 -2.66699 -6.66699 -9.66699 -12 -21s-12 -23.666 -20 -36.999c-9.33301 -28 -17.166 -55.5 -23.499 -82.5s-11.833 -53.5 -16.5 -79.5c-2 -15.333 -1.5 -26 1.5 -32s11.5 -9.66699 25.5 -11
c7.33301 -0.666992 18.833 -0.5 34.5 0.5s28.167 2.83301 37.5 5.5l23 10.5c8 3.66699 15.333 7.5 22 11.5l18 10.5l9 5.5c3.33301 5.33301 7.33301 6.16602 12 2.49902s8.33398 -9.5 11.001 -17.5c0 -8 -1.66699 -16.667 -5 -26s-15.666 -20 -36.999 -32
c-30 -18.667 -58.333 -30 -85 -34s-48.667 -4.33301 -66 -1z" />
    <glyph glyph-name="u" unicode="u" horiz-adv-x="370" 
d="M338 2c-6.66699 6.66699 -12.8359 15.8359 -18.5029 27.5029s-10.5 25.167 -14.5 40.5c-1.33301 5.33301 -1.83301 12.166 -1.5 20.499s0.166016 14.5 -0.500977 18.5c-2 -4.66699 -5.16699 -9.83398 -9.5 -15.501s-8.5 -10.167 -12.5 -13.5
c-2.66699 -2.66699 -8.66699 -7.83398 -18 -15.501s-18.666 -13.834 -27.999 -18.501c-22 -14 -40.667 -21.333 -56 -22s-29.333 7 -42 23c-10.667 8.66699 -18.5 18.834 -23.5 30.501s-5.5 26.834 -1.5 45.501c1.33301 23.333 4.66602 46.166 9.99902 68.499
s16.333 52.166 33 89.499l32 61.5c7.33301 13.667 12 21.834 14 24.501c10 3.33301 19.667 3.16602 29 -0.500977s14.666 -10.167 15.999 -19.5c4 -6.66699 3.66699 -18.334 -1 -35.001s-13 -36.667 -25 -60c-9.33301 -22.667 -18 -45.167 -26 -67.5
s-12.667 -41.166 -14 -56.499s2.66699 -24.666 12 -27.999c6 -3.33301 15.833 -2.66602 29.5 2.00098s29.5 17.5 47.5 38.5s36 53.167 54 96.5c5.33301 13.333 9.33301 25.166 12 35.499s4.33398 21.833 5.00098 34.5c-1.33301 8 -0.166016 15.5 3.50098 22.5
s9.5 12.833 17.5 17.5c2.66699 3.33301 6.33398 6.5 11.001 9.5s7.66699 2.83301 9 -0.5l16 1c2.66699 0.666992 4.83398 -1.16602 6.50098 -5.49902s4.16699 -7.83301 7.5 -10.5c7.33301 -6 9.83301 -19 7.5 -39s-11.166 -48 -26.499 -84
c-12.667 -27.333 -21.167 -48 -25.5 -62s-6.83301 -27.667 -7.5 -41c0 -12 1.83301 -23 5.5 -33s10.5 -19.333 20.5 -28c7.33301 -4.66699 11.5 -10.834 12.5 -18.501s1.16699 -15.5 0.5 -23.5c-1.33301 -6 -5.66602 -10.5 -12.999 -13.5s-15.333 -4.33301 -24 -4
s-16.334 2.83301 -23.001 7.5z" />
    <glyph glyph-name="v" unicode="v" horiz-adv-x="331" 
d="M182 58c-4.66699 4 -10.668 16 -18.001 36s-14.333 43.5 -21 70.5s-12 51.833 -16 74.5c-2.66699 13.333 -5.5 24.666 -8.5 33.999l-7.5 23c-3.33301 12 -3.5 22.833 -0.5 32.5s8.5 16.834 16.5 21.501c3.33301 2 8.16602 3.5 14.499 4.5s10.833 1.16699 13.5 0.5
c8 -2.66699 15.333 -14.834 22 -36.501s12.667 -50.167 18 -85.5c2.66699 -20.667 5.5 -37.5 8.5 -50.5s4.5 -20.833 4.5 -23.5l8.5 -16.5c3 -5.66699 7.16699 -5.83398 12.5 -0.500977c2.66699 2.66699 7.66699 8.16699 15 16.5s15 17.833 23 28.5l33.5 46
c8.33301 12 17.833 24.667 28.5 38c4.66699 6.66699 10.334 14 17.001 22s13.5 15.5 20.5 22.5s13.167 11.167 18.5 12.5c16 2.66699 25 -1.5 27 -12.5s-3.66699 -25.833 -17 -44.5c-5.33301 -8 -9.5 -15.5 -12.5 -22.5s-5.83301 -11.833 -8.5 -14.5
c-5.33301 -10.667 -13.666 -24.167 -24.999 -40.5s-22.333 -31.333 -33 -45s-18 -22.5 -22 -26.5c-2.66699 -2.66699 -8.5 -7.66699 -17.5 -15s-17.5 -16.666 -25.5 -27.999c-16 -15.333 -29.5 -24.666 -40.5 -27.999s-20.5 -1 -28.5 7z" />
    <glyph glyph-name="w" unicode="w" horiz-adv-x="517" 
d="M175 40c-10 0 -19.5039 6.66797 -28.5039 20.001s-15.667 30.166 -20 50.499s-5.83301 41.166 -4.5 62.499c0 21.333 1.16699 38.5 3.5 51.5s4.83301 25.833 7.5 38.5c2 4 3.16699 7.33301 3.5 10s1 7 2 13s3.16699 16 6.5 30
c2.66699 11.333 5.33398 20.666 8.00098 27.999s5.33398 12.333 8.00098 15c4.66699 6 10.5 9.83301 17.5 11.5s13.667 1 20 -2s10.833 -7.83301 13.5 -14.5c4 -3.33301 6.16699 -10.833 6.5 -22.5s-0.5 -23.667 -2.5 -36s-5 -21.166 -9 -26.499
c-1.33301 -3.33301 -2.83301 -12 -4.5 -26l-5 -44c-1.66699 -15.333 -3.5 -27.666 -5.5 -36.999c-2 -12 -1 -21 3 -27s11.833 -5.16699 23.5 2.5s26.834 25.5 45.501 53.5c14 20 24.5 36.167 31.5 48.5s12.5 23.666 16.5 33.999l13 34.5c3.33301 10.667 6.5 19.5 9.5 26.5
s5.83301 11.5 8.5 13.5c6 6 13.167 8.5 21.5 7.5s16.5 -4.16699 24.5 -9.5c8 -8 12.167 -18 12.5 -30s-3.5 -26 -11.5 -42c-5.33301 -10.667 -10.5 -24 -15.5 -40s-9 -32.167 -12 -48.5s-4.5 -29.833 -4.5 -40.5c0 -13.333 1.83301 -21.166 5.5 -23.499
s8.16699 -3.5 13.5 -3.5c8 0 17 3 27 9s22 16.333 36 31c6 6 13.333 14.833 22 26.5s17.167 24.167 25.5 37.5s15.333 25 21 35s8.5 16.333 8.5 19c0 4 3 9.66699 9 17l9.5 12.5c2.33301 3 6.83301 6.16699 13.5 9.5c5.33301 2.66699 10.5 3.16699 15.5 1.5
s9.83301 -5.16699 14.5 -10.5c3.33301 -2.66699 5.33301 -7.5 6 -14.5s1 -14.5 1 -22.5c-2 -7.33301 -5 -17 -9 -29s-8.5 -23.5 -13.5 -34.5s-9.16699 -18.5 -12.5 -22.5l-14 -14.5c-6.66699 -7 -12.667 -14.5 -18 -22.5c-16.667 -20 -28.667 -33 -36 -39
s-13.666 -11.667 -18.999 -17c-14 -14 -29 -24.667 -45 -32s-31.333 -11.166 -46 -11.499s-26.667 2.83398 -36 9.50098c-20.667 10.667 -31 28.667 -31 54c0 5.33301 -0.833008 10.166 -2.5 14.499l-2.5 6.5c-2.66699 0 -6.16699 -0.666992 -10.5 -2s-8.83301 -6 -13.5 -14
c-6 -11.333 -15.667 -22.833 -29 -34.5s-26.833 -21.334 -40.5 -29.001s-24.5 -11.5 -32.5 -11.5z" />
    <glyph glyph-name="x" unicode="x" horiz-adv-x="343" 
d="M391 -2c-2.66699 0 -6.16895 0.331055 -10.502 0.998047s-7.83301 2.33398 -10.5 5.00098c-2.66699 0 -7.33398 1 -14.001 3s-12.667 4.33301 -18 7c-6.66699 2.66699 -15.667 8.16699 -27 16.5s-22.666 17.5 -33.999 27.5s-20.833 19.333 -28.5 28s-11.5 15 -11.5 19
c0 3.33301 -1.66699 5 -5 5l-3 3.5c-2 2.33301 -3 4.83301 -3 7.5c0 6.66699 -3.33301 10 -10 10l-16 -14c-10.667 -9.33301 -22.667 -20.666 -36 -33.999c-18.667 -18.667 -32.5 -32.167 -41.5 -40.5s-16.167 -12.5 -21.5 -12.5s-11.5 2.16699 -18.5 6.5
s-13.333 9.83301 -19 16.5s-8.5 13.667 -8.5 21l20.5 23c13.667 15.333 29.834 31 48.501 47l60 60l-11 38l-14.5 33.5c-5 11.667 -8.83301 21.5 -11.5 29.5c-8 11.333 -12.167 18.5 -12.5 21.5s2.16699 8.5 7.5 16.5v0v0c5.33301 5.33301 11.333 9.5 18 12.5
s14 1.83301 22 -3.5c4 0 9.33301 -5.5 16 -16.5s12.834 -23 18.501 -36s8.5 -22.167 8.5 -27.5c0 -10.667 3.33301 -15.5 10 -14.5s18 6.83301 34 17.5c8 7.33301 14.333 13.5 19 18.5l7 7.5c2 2 8 6.66699 18 14l31 22.5c10.667 7.66699 17.667 12.167 21 13.5
c5.33301 4 11.5 4.16699 18.5 0.5s13.167 -9 18.5 -16s8 -14.167 8 -21.5c0 -8 -2.16699 -15.167 -6.5 -21.5s-13.166 -13.166 -26.499 -20.499l-30 -22c-8 -6 -16.333 -12.667 -25 -20l-35 -30l-26 -21l16 -27c2.66699 -4.66699 6.5 -10.834 11.5 -18.501
s9.83301 -12.834 14.5 -15.501c4 -5.33301 11.5 -12.5 22.5 -21.5s21.667 -17.167 32 -24.5s16.166 -11 17.499 -11c2.66699 0 5.66699 -1 9 -3l12 -7c5.33301 -5.33301 8.5 -12.166 9.5 -20.499s0.166992 -15.833 -2.5 -22.5s-6.66699 -10 -12 -10z" />
    <glyph glyph-name="y" unicode="y" horiz-adv-x="341" 
d="M81 -202c-18.667 -4.66699 -38.002 -5.50098 -58.002 -2.50098s-37.167 8.83301 -51.5 17.5s-22.833 18.334 -25.5 29.001c-2 8 -0.666992 14.667 4 20s10.334 8.83301 17.001 10.5s11.667 0.5 15 -3.5c5.33301 -3.33301 14.666 -7.83301 27.999 -13.5
s28.666 -6.83398 45.999 -3.50098c15.333 3.33301 30 11.833 44 25.5s25.667 26.834 35 39.501c5.33301 8 14.333 22.333 27 43s25.834 43.5 39.501 68.5s25.167 48.167 34.5 69.5l7 19c2.66699 7.33301 6 13.333 10 18c4 8 7.5 15.5 10.5 22.5s4.83301 11.833 5.5 14.5
c0.666992 3.33301 3.66699 10 9 20s10.333 20 15 30l15 44c6.66699 19.333 13.334 35 20.001 47l19.5 37.5c5 9.66699 10.5 15.5 16.5 17.5v0v0c6 4.66699 10.667 7 14 7s8.66602 -2 15.999 -6c8 -8 13.5 -15.833 16.5 -23.5s3 -17 0 -28s-9.5 -25.833 -19.5 -44.5
c-5.33301 -16 -11.166 -30.5 -17.499 -43.5s-11.166 -21.5 -14.499 -25.5l-11.5 -26.5l-11.5 -26.5c-12 -26.667 -22.333 -48.334 -31 -65.001l-23 -46c-6.66699 -14 -13.667 -30.333 -21 -49l-44.5 -70.5c-14.333 -22.333 -29.5 -43.166 -45.5 -62.499
c-6.66699 -6 -15.334 -13.333 -26.001 -22s-21.667 -16.5 -33 -23.5s-21.666 -11.833 -30.999 -14.5zM212.998 32.999c-10 1.33301 -20.1689 7.66602 -30.502 18.999s-18.5 23.166 -24.5 35.499s-8.33301 21.166 -7 26.499v8v3c-4 0 -7.5 5.33301 -10.5 16
s-5 24.334 -6 41.001s-1.66699 34.167 -2 52.5s0.166992 35.5 1.5 51.5c2.66699 11.333 4 23.833 4 37.5s0.333008 24.5 1 32.5c-0.666992 10.667 0.833008 18.334 4.5 23.001s6.83398 8 9.50098 10v0v0c20.667 8.66699 35 3.5 43 -15.5s10.333 -52.5 7 -100.5
c-1.33301 -26.667 -1.66602 -53 -0.999023 -79s4 -48.5 10 -67.5s14.667 -32.167 26 -39.5c4.66699 -2.66699 6.66699 -7 6 -13s-2.66699 -12.333 -6 -19s-7.33301 -12.167 -12 -16.5s-9 -6.16602 -13 -5.49902z" />
    <glyph glyph-name="z" unicode="z" horiz-adv-x="315" 
d="M140 22c-25.333 -3.33301 -44.3271 -5.33691 -56.9941 -6.00391s-22.334 0.333008 -29.001 3s-13.334 7 -20.001 13c-6 5.33301 -8.66699 12.833 -8 22.5s11.334 25.167 32.001 46.5c12.667 15.333 25.667 29.833 39 43.5s25.333 24.834 36 33.501
c4.66699 4 9.83398 8 15.501 12l28 19.5l58.5 39.5l29 22.5l16.5 12l14.5 10.5c-4.66699 0.666992 -14.334 1.83398 -29.001 3.50098s-28.667 1.83398 -42 0.500977c-18.667 0 -30.167 0.166992 -34.5 0.5s-9.16602 1.16602 -14.499 2.49902h-15
c-3.33301 0 -9.33301 1.66699 -18 5s-16.667 7.66602 -24 12.999s-11.333 10.333 -12 15l6 4.5c4 3 7.33301 5.83301 10 8.5l12.5 8c3 2 5.83301 1.66699 8.5 -1l21 1c14 0.666992 29 1.33398 45 2.00098c38.667 -0.666992 67.167 -1.83398 85.5 -3.50098s32 -4.5 41 -8.5
s17.833 -10 26.5 -18c10.667 -10.667 16 -21.5 16 -32.5s-3.66699 -20.5 -11 -28.5c-2.66699 -2.66699 -5.16699 -5.5 -7.5 -8.5s-4.5 -4.5 -6.5 -4.5l-14 -9l-34 -22c-12.667 -8.66699 -25.167 -16.667 -37.5 -24s-19.833 -12.666 -22.5 -15.999
c-4.66699 -2.66699 -10.334 -6.16699 -17.001 -10.5s-11.334 -7.83301 -14.001 -10.5c-2 -2.66699 -6.5 -7.33398 -13.5 -14.001s-14.5 -12.667 -22.5 -18l-21 -19.5l-20.5 -20l-8.5 -8.5l18.5 2.5c12.333 1.66699 27.833 3.33398 46.5 5.00098s37.667 1.83398 57 0.500977
c31.333 0.666992 56.166 1.5 74.499 2.5s32.333 1.33301 42 1s17.167 -1.83301 22.5 -4.5c4.66699 -1.33301 8.66699 -4.66602 12 -9.99902s5.66602 -10.833 6.99902 -16.5s1.33301 -9.5 0 -11.5c-2.66699 0 -13 -0.833008 -31 -2.5s-38.667 -3.16699 -62 -4.5
c-30.667 -2.66699 -60.334 -6 -89.001 -10s-57.334 -7.66699 -86.001 -11z" />
    <glyph glyph-name="braceleft" unicode="{" horiz-adv-x="330" 
d="M176 -132c-6 9.33301 -9.00098 12.0029 -9.00098 8.00293l-7.5 5.5c-5 3.66699 -9.16699 7.83398 -12.5 12.501c-5.33301 7.33301 -8.5 14.5 -9.5 21.5s-1.16699 15.833 -0.5 26.5v19v9c3.33301 3.33301 5.33301 7.33301 6 12l2 14
c1.33301 5.33301 4.83301 16.333 10.5 33l18.5 53.5c6.66699 19 12.667 33.833 18 44.5c7.33301 14 13.5 28.167 18.5 42.5s7.5 24.833 7.5 31.5c0 10.667 -4.5 19.667 -13.5 27s-21.167 12.333 -36.5 15c-20 0 -26.667 9.66699 -20 29c2.66699 8 8.16699 14.333 16.5 19
s16.833 5.66699 25.5 3c10 0 21.5 5 34.5 15s25.333 23.333 37 40s20.5 35 26.5 55c8 21.333 14 42.166 18 62.499s7.33301 46.833 10 79.5c2 26 5.66699 48 11 66s13 34.333 23 49s23 29.667 39 45c9.33301 12 19.5 20.667 30.5 26s20.167 10 27.5 14
c13.333 5.33301 27 8 41 8s23.333 -1.66699 28 -5c3.33301 -1.33301 6.83301 -5.33301 10.5 -12s6.66699 -13.5 9 -20.5s2.5 -11.167 0.5 -12.5c-3.33301 0 -8 -0.833008 -14 -2.5s-14 -2.5 -24 -2.5c-12.667 -2.66699 -24.167 -7 -34.5 -13s-22.166 -14.667 -35.499 -26
c-10.667 -14 -18.5 -24.833 -23.5 -32.5s-8.16699 -17.834 -9.5 -30.501c-4.66699 -12 -8 -21.667 -10 -29s-3.66699 -16 -5 -26s-3 -24.667 -5 -44c-2 -20 -3.66699 -35.667 -5 -47s-3.33301 -22 -6 -32s-7.33398 -22.667 -14.001 -38
c-8.66699 -24.667 -18.5 -46 -29.5 -64s-24.167 -33.667 -39.5 -47c-11.333 -6.66699 -17.5 -11.334 -18.5 -14.001s1.5 -7.66699 7.5 -15c0 -2.66699 1.66699 -7.16699 5 -13.5s5 -12.833 5 -19.5c4.66699 -10.667 5 -23.834 1 -39.501s-14 -41.167 -30 -76.5
c-4.66699 -10 -9 -20.333 -13 -31s-6 -18.667 -6 -24c-3.33301 -4.66699 -6.66602 -12.667 -9.99902 -24l-9 -31c-2.66699 -14 -5 -25.333 -7 -34s-3 -14 -3 -16c0 -12.667 15 -16.667 45 -12c11.333 3.33301 19 4.33301 23 3s8.33301 -5 13 -11
c7.33301 -6.66699 9.5 -13.5 6.5 -20.5s-11.833 -12.833 -26.5 -17.5c-10 -5.33301 -21 -9 -33 -11s-22.833 -2.5 -32.5 -1.5s-17.167 3.16699 -22.5 6.5z" />
    <glyph glyph-name="bar" unicode="|" horiz-adv-x="330" 
d="M150 -143c-12.667 -3.33301 -23.165 -0.331055 -31.498 9.00195s-13.666 23.166 -15.999 41.499s-0.833008 39.833 4.5 64.5c3.33301 8 6 15.833 8 23.5s3 13.834 3 18.501c1.33301 5.33301 4.66602 17.166 9.99902 35.499s11.833 39.5 19.5 63.5l23 71.5l20 60
c5.66699 16.333 9.16699 25.5 10.5 27.5c2.66699 0 5 2.33301 7 7s3 9.33398 3 14.001c0 5.33301 1.16699 11.333 3.5 18s4.83301 11.334 7.5 14.001c0 3.33301 0.833008 7.16602 2.5 11.499s2.5 7.83301 2.5 10.5s0.833008 5.33398 2.5 8.00098s2.5 5.33398 2.5 8.00098
c4 7.33301 10.167 21.166 18.5 41.499l29 72l33.5 86l32 84.5c10 26.667 18 48.667 24 66s9 27.333 9 30c0 5.33301 2.16699 9.83301 6.5 13.5s9.16602 5.5 14.499 5.5c2 2 4.5 3.33301 7.5 4s5.83301 1 8.5 1l4 -4l12 -12c5.33301 -4.66699 9.33301 -10.5 12 -17.5
s4 -14.5 4 -22.5c0 -8.66699 -1 -16.334 -3 -23.001s-6 -16.334 -12 -29.001l-28 -59c-2 -5.33301 -6 -14.666 -12 -27.999l-19.5 -45l-21 -48.5c-7 -15.667 -12.667 -28.834 -17 -39.501s-6.5 -16.667 -6.5 -18c0 -2.66699 -1.16699 -6.66699 -3.5 -12
s-4.83301 -12 -7.5 -20c-2.66699 -5.33301 -6.33398 -13.166 -11.001 -23.499l-14.5 -33l-12.5 -30c-3.33301 -8.33301 -5 -13.166 -5 -14.499c0 -2.66699 -0.166992 -5.33398 -0.5 -8.00098s-1.83301 -5.33398 -4.5 -8.00098c-2.66699 0 -4.16699 -1.83301 -4.5 -5.5
l-0.5 -5.5c0 -6.66699 -5.33301 -24.334 -16 -53.001c-4.66699 -14.667 -10.334 -33.5 -17.001 -56.5l-21.5 -73l-21.5 -75c-6.66699 -24.333 -12.167 -45.833 -16.5 -64.5s-6.5 -31.667 -6.5 -39c0 -16 -1.16699 -26.5 -3.5 -31.5s-6.16602 -8.83301 -11.499 -11.5z" />
    <glyph glyph-name="braceright" unicode="}" horiz-adv-x="330" 
d="M141 -116c-18 -0.666992 -33.5 2.16895 -46.5 8.50195s-19.5 13.166 -19.5 20.499c0 3.33301 1 6 3 8l3 3c3.33301 -2.66699 5.83301 -4 7.5 -4s2.5 1.33301 2.5 4l10 4l27 11c19.333 3.33301 33.666 7.16602 42.999 11.499s15.833 11 19.5 20s7.16699 21.833 10.5 38.5
l5.5 22.5c1.66699 7 2.5 11.833 2.5 14.5c0 2 0.5 12.833 1.5 32.5s0.833008 42.5 -0.5 68.5c-1.33301 29.333 -2.16602 50.833 -2.49902 64.5s0.333984 23.667 2.00098 30s4.16699 12.833 7.5 19.5c5.33301 5.33301 8.5 10.5 9.5 15.5s0.833008 10.833 -0.5 17.5
c-5.33301 13.333 -7.33301 25.5 -6 36.5s4.66602 18.5 9.99902 22.5l27.5 30c7 7.33301 13.167 14.833 18.5 22.5s11 17.5 17 29.5c17.333 27.333 32.333 54.5 45 81.5s21.334 50.5 26.001 70.5v7v3c2.66699 6 3.16699 13.167 1.5 21.5s-6.16699 17.5 -13.5 27.5
c-5.33301 10.667 -12 18.667 -20 24s-20.667 10.333 -38 15c-10.667 2 -16.5 7 -17.5 15s1.5 15.333 7.5 22c2.66699 5.33301 7.83398 9 15.501 11s15.167 2.66699 22.5 2s12.333 -2.66699 15 -6c5.33301 -5.33301 10.333 -8 15 -8c2 0 7 -3.33301 15 -10
s16.5 -14.667 25.5 -24s15.167 -17.333 18.5 -24c2.66699 -2 5.16699 -7.83301 7.5 -17.5s3.83301 -18.5 4.5 -26.5c2 -8 3.16699 -14.833 3.5 -20.5s-0.333984 -12 -2.00098 -19s-4.83398 -17.167 -9.50098 -30.5c-9.33301 -30.667 -17.833 -56.167 -25.5 -76.5
s-13.167 -32.166 -16.5 -35.499c-2.66699 -2 -5.16699 -3.33301 -7.5 -4s-3.5 -2.33398 -3.5 -5.00098s-3 -9.5 -9 -20.5s-12.833 -22.333 -20.5 -34s-14.5 -20.5 -20.5 -26.5c-2.66699 -2.66699 -5.16699 -6.5 -7.5 -11.5l-3.5 -7.5l-1 -0.5
c-0.666992 -0.333008 -2.66699 -1.5 -6 -3.5c-4.66699 -2.66699 -7 -6.5 -7 -11.5s2.33301 -12.833 7 -23.5c1.33301 -6 3.33301 -11.333 6 -16s5.33398 -9.66699 8.00098 -15c0 -9.33301 -1.66699 -14 -5 -14c-8.66699 -4.66699 -15.167 -10.167 -19.5 -16.5
s-6.83301 -17 -7.5 -32s-0.666992 -37.833 0 -68.5c0.666992 -14 0.666992 -29 0 -45s-1.5 -30.167 -2.5 -42.5s-2.5 -20.5 -4.5 -24.5c-4.66699 -20 -8.83398 -36.667 -12.501 -50s-7.16699 -20 -10.5 -20l-2 -0.5c-1.33301 -0.333008 -1.66602 -1.5 -0.999023 -3.5
c0 -9.33301 -5 -18.166 -15 -26.499s-22.833 -15.333 -38.5 -21s-31.834 -8.83398 -48.501 -9.50098z" />
    <glyph glyph-name="asciitilde" unicode="~" horiz-adv-x="446" 
d="M358 196c-15.333 0 -29 2.66602 -41 7.99902s-24.667 12.333 -38 21c-8 4.66699 -17 11 -27 19s-21 13.667 -33 17c-10 2 -18.5 0.166992 -25.5 -5.5s-13.833 -11.834 -20.5 -18.501s-14.667 -10.667 -24 -12c-0.666992 -3.33301 -3.16699 -7.33301 -7.5 -12
s-7.83301 -6 -10.5 -4c-9.33301 1.33301 -16.833 5.16602 -22.5 11.499s-8.16699 11.833 -7.5 16.5c0.666992 3.33301 4.16699 9.66602 10.5 18.999s16.333 19.333 30 30s31.5 20 53.5 28c16 2.66699 31.333 2 46 -2s27 -10.667 37 -20
c15.333 -13.333 29.5 -23.5 42.5 -30.5s25.833 -8.5 38.5 -4.5c6 0 14.333 2 25 6s18.667 7.33301 24 10l26 8l6.5 4.5c2.33301 1.66699 4.83301 2.83398 7.5 3.50098c2.66699 2 8 3 16 3c8.66699 2.66699 14.834 1.33398 18.501 -3.99902s5.16699 -11.666 4.5 -18.999
c0 -3.33301 -1.16699 -7.33301 -3.5 -12s-6.83301 -10.667 -13.5 -18l-20 -10c-12 -3.33301 -23.333 -7.66602 -34 -12.999l-26 -13c-12.667 -4.66699 -23.334 -7 -32.001 -7z" />
    <glyph glyph-name="uni00A0" unicode="&#xa0;" horiz-adv-x="242" 
 />
    </font>
</defs>
</svg>
